{
  "accessors": [
    {
      "bufferView": 2,
      "componentType": 5126,
      "count": 1919,
      "max": [
        0.24646300077438354,
        1.0,
        0.24716100096702576
      ],
      "min": [
        -0.24463799595832825,
        -0.9814710021018982,
        -0.24394099414348602
      ],
      "type": "VEC3"
    },
    {
      "bufferView": 2,
      "byteOffset": 23028,
      "componentType": 5126,
      "count": 1919,
      "max": [
        1.0,
        1.0,
        1.0
      ],
      "min": [
        -1.0,
        -1.0,
        -1.0
      ],
      "type": "VEC3"
    },
    {
      "bufferView": 1,
      "componentType": 5126,
      "count": 1919,
      "max": [
        0.9850010275840759,
        0.987779974937439
      ],
      "min": [
        0.016884099692106247,
        0.007708969991654158
      ],
      "type": "VEC2"
    },
    {
      "bufferView": 0,
      "componentType": 5125,
      "count": 4416,
      "type": "SCALAR"
    },
    {
      "bufferView": 2,
      "byteOffset": 46056,
      "componentType": 5126,
      "count": 2719,
      "max": [
        0.2836729884147644,
        0.5591179728507996,
        0.2843700051307678
      ],
      "min": [
        -0.2818470001220703,
        -0.9519739747047424,
        -0.2811500132083893
      ],
      "type": "VEC3"
    },
    {
      "bufferView": 2,
      "byteOffset": 78684,
      "componentType": 5126,
      "count": 2719,
      "max": [
        1.0,
        1.0,
        1.0
      ],
      "min": [
        -1.0,
        -1.0,
        -1.0
      ],
      "type": "VEC3"
    },
    {
      "bufferView": 3,
      "componentType": 5126,
      "count": 2719,
      "max": [
        1.0,
        0.7890769839286804,
        1.0,
        1.0
      ],
      "min": [
        -1.0,
        -0.7983620166778564,
        -1.0,
        1.0
      ],
      "type": "VEC4"
    },
    {
      "bufferView": 1,
      "byteOffset": 15352,
      "componentType": 5126,
      "count": 2719,
      "max": [
        0.646140992641449,
        0.7676870226860046
      ],
      "min": [
        0.012118900194764137,
        0.024153899401426315
      ],
      "type": "VEC2"
    },
    {
      "bufferView": 0,
      "byteOffset": 17664,
      "componentType": 5125,
      "count": 5760,
      "type": "SCALAR"
    },
    {
      "bufferView": 2,
      "byteOffset": 111312,
      "componentType": 5126,
      "count": 2677,
      "max": [
        0.2836729884147644,
        1.0,
        0.2843700051307678
      ],
      "min": [
        -0.2818470001220703,
        -0.2057880014181137,
        -0.2811500132083893
      ],
      "type": "VEC3"
    },
    {
      "bufferView": 2,
      "byteOffset": 143436,
      "componentType": 5126,
      "count": 2677,
      "max": [
        1.0,
        1.0,
        1.0
      ],
      "min": [
        -1.0,
        -1.0,
        -1.0
      ],
      "type": "VEC3"
    },
    {
      "bufferView": 3,
      "byteOffset": 43504,
      "componentType": 5126,
      "count": 2677,
      "max": [
        1.0,
        0.9976949691772461,
        1.0,
        1.0
      ],
      "min": [
        -1.0,
        -0.8999269604682922,
        -1.0,
        -1.0
      ],
      "type": "VEC4"
    },
    {
      "bufferView": 1,
      "byteOffset": 37104,
      "componentType": 5126,
      "count": 2677,
      "max": [
        1.003000020980835,
        0.9536849856376648
      ],
      "min": [
        0.012579900212585926,
        0.06846100091934204
      ],
      "type": "VEC2"
    },
    {
      "bufferView": 0,
      "byteOffset": 40704,
      "componentType": 5125,
      "count": 8670,
      "type": "SCALAR"
    },
    {
      "bufferView": 2,
      "byteOffset": 175560,
      "componentType": 5126,
      "count": 8389,
      "max": [
        0.2833389937877655,
        1.0,
        0.2840360105037689
      ],
      "min": [
        -0.2815139889717102,
        -0.981531023979187,
        -0.2808170020580292
      ],
      "type": "VEC3"
    },
    {
      "bufferView": 2,
      "byteOffset": 276228,
      "componentType": 5126,
      "count": 8389,
      "max": [
        1.0,
        1.0,
        1.0
      ],
      "min": [
        -1.0,
        -1.0,
        -1.0
      ],
      "type": "VEC3"
    },
    {
      "bufferView": 3,
      "byteOffset": 86336,
      "componentType": 5126,
      "count": 8389,
      "max": [
        1.0,
        1.0,
        1.0,
        1.0
      ],
      "min": [
        -1.0,
        -1.0,
        -1.0,
        -1.0
      ],
      "type": "VEC4"
    },
    {
      "bufferView": 1,
      "byteOffset": 58520,
      "componentType": 5126,
      "count": 8389,
      "max": [
        0.9918779730796814,
        0.9418140053749084
      ],
      "min": [
        0.012033600360155106,
        0.021956000477075577
      ],
      "type": "VEC2"
    },
    {
      "bufferView": 0,
      "byteOffset": 75384,
      "componentType": 5125,
      "count": 19350,
      "type": "SCALAR"
    },
    {
      "bufferView": 2,
      "byteOffset": 376896,
      "componentType": 5126,
      "count": 7134,
      "max": [
        0.2810559868812561,
        -0.9482390284538269,
        0.284170001745224
      ],
      "min": [
        -0.2836729884147644,
        -1.0,
        -0.2843700051307678
      ],
      "type": "VEC3"
    },
    {
      "bufferView": 2,
      "byteOffset": 462504,
      "componentType": 5126,
      "count": 7134,
      "max": [
        0.9997588992118835,
        1.0,
        0.9999997615814209
      ],
      "min": [
        -0.9999313354492188,
        -0.9305762648582458,
        -0.9999827742576599
      ],
      "type": "VEC3"
    },
    {
      "bufferView": 1,
      "byteOffset": 125632,
      "componentType": 5126,
      "count": 7134,
      "max": [
        1.0,
        1.0
      ],
      "min": [
        0.0,
        0.0
      ],
      "type": "VEC2"
    },
    {
      "bufferView": 0,
      "byteOffset": 152784,
      "componentType": 5125,
      "count": 10824,
      "type": "SCALAR"
    }
  ],
  "asset": {
    "extras": {
      "author": "Zohaib1 (https://sketchfab.com/Zohaib1)",
      "license": "CC-BY-4.0 (http://creativecommons.org/licenses/by/4.0/)",
      "source": "https://sketchfab.com/3d-models/radioactive-explosive-gernade-53edc60a9fa74bbe929441d4169109ad",
      "title": "Radioactive Explosive gernade"
    },
    "generator": "Sketchfab-15.27.0",
    "version": "2.0"
  },
  "bufferViews": [
    {
      "buffer": 0,
      "byteLength": 196080,
      "name": "floatBufferViews",
      "target": 34963
    },
    {
      "buffer": 0,
      "byteLength": 182704,
      "byteOffset": 196080,
      "byteStride": 8,
      "name": "floatBufferViews",
      "target": 34962
    },
    {
      "buffer": 0,
      "byteLength": 548112,
      "byteOffset": 378784,
      "byteStride": 12,
      "name": "floatBufferViews",
      "target": 34962
    },
    {
      "buffer": 0,
      "byteLength": 220560,
      "byteOffset": 926896,
      "byteStride": 16,
      "name": "floatBufferViews",
      "target": 34962
    }
  ],
  "buffers": [
    {
      "byteLength": 1147456,
      "uri": "scene.bin"
    }
  ],
  "extensionsUsed": [
    "KHR_materials_emissive_strength",
    "KHR_materials_specular"
  ],
  "images": [
    {
      "uri": "textures/base_baseColor.jpeg"
    },
    {
      "uri": "textures/base_metallicRoughness.png"
    },
    {
      "uri": "textures/base_emissive.jpeg"
    },
    {
      "uri": "textures/base_normal.png"
    },
    {
      "uri": "textures/material_baseColor.jpeg"
    },
    {
      "uri": "textures/material_metallicRoughness.png"
    },
    {
      "uri": "textures/material_normal.png"
    },
    {
      "uri": "textures/silver_baseColor.jpeg"
    },
    {
      "uri": "textures/silver_metallicRoughness.png"
    },
    {
      "uri": "textures/silver_emissive.jpeg"
    },
    {
      "uri": "textures/silver_normal.png"
    }
  ],
  "materials": [
    {
      "doubleSided": true,
      "name": "Material_001",
      "pbrMetallicRoughness": {
        "baseColorFactor": [
          0.0188486,
          0.0188486,
          0.0188486,
          1.0
        ],
        "metallicFactor": 0.0,
        "roughnessFactor": 0.6
      }
    },
    {
      "doubleSided": true,
      "emissiveFactor": [
        1.0,
        1.0,
        1.0
      ],
      "emissiveTexture": {
        "index": 2
      },
      "extensions": {
        "KHR_materials_emissive_strength": {
          "emissiveStrength": 2.3196970621744795
        },
        "KHR_materials_specular": {
          "specularColorFactor": [
            1.0,
            1.0,
            1.0
          ],
          "specularFactor": 0.2077272819750237
        }
      },
      "name": "base",
      "normalTexture": {
        "index": 3
      },
      "occlusionTexture": {
        "index": 1
      },
      "pbrMetallicRoughness": {
        "baseColorTexture": {
          "index": 0
        },
        "metallicRoughnessTexture": {
          "index": 1
        }
      }
    },
    {
      "doubleSided": true,
      "name": "material",
      "normalTexture": {
        "index": 6
      },
      "occlusionTexture": {
        "index": 5
      },
      "pbrMetallicRoughness": {
        "baseColorTexture": {
          "index": 4
        },
        "metallicRoughnessTexture": {
          "index": 5
        }
      }
    },
    {
      "doubleSided": true,
      "emissiveFactor": [
        1.0,
        1.0,
        1.0
      ],
      "emissiveTexture": {
        "index": 9
      },
      "name": "silver",
      "normalTexture": {
        "index": 10
      },
      "occlusionTexture": {
        "index": 8
      },
      "pbrMetallicRoughness": {
        "baseColorTexture": {
          "index": 7
        },
        "metallicRoughnessTexture": {
          "index": 8
        }
      }
    },
    {
      "doubleSided": true,
      "name": "yellow",
      "pbrMetallicRoughness": {
        "baseColorFactor": [
          0.0,
          0.738531,
          0.8,
          1.0
        ],
        "metallicFactor": 0.0,
        "roughnessFactor": 0.6
      }
    }
  ],
  "meshes": [
    {
      "name": "defaultMaterial",
      "primitives": [
        {
          "attributes": {
            "NORMAL": 1,
            "POSITION": 0,
            "TEXCOORD_0": 2
          },
          "indices": 3,
          "material": 4,
          "mode": 4
        }
      ]
    },
    {
      "name": "defaultMaterial",
      "primitives": [
        {
          "attributes": {
            "NORMAL": 5,
            "POSITION": 4,
            "TANGENT": 6,
            "TEXCOORD_0": 7
          },
          "indices": 8,
          "material": 3,
          "mode": 4
        }
      ]
    },
    {
      "name": "defaultMaterial",
      "primitives": [
        {
          "attributes": {
            "NORMAL": 10,
            "POSITION": 9,
            "TANGENT": 11,
            "TEXCOORD_0": 12
          },
          "indices": 13,
          "material": 2,
          "mode": 4
        }
      ]
    },
    {
      "name": "defaultMaterial",
      "primitives": [
        {
          "attributes": {
            "NORMAL": 15,
            "POSITION": 14,
            "TANGENT": 16,
            "TEXCOORD_0": 17
          },
          "indices": 18,
          "material": 1,
          "mode": 4
        }
      ]
    },
    {
      "name": "defaultMaterial",
      "primitives": [
        {
          "attributes": {
            "NORMAL": 20,
            "POSITION": 19,
            "TEXCOORD_0": 21
          },
          "indices": 22,
          "material": 0,
          "mode": 4
        }
      ]
    }
  ],
  "nodes": [
    {
      "children": [
        1
      ],
      "matrix": [
        1.0,
        0.0,
        0.0,
        0.0,
        0.0,
        2.220446049250313e-16,
        -1.0,
        0.0,
        0.0,
        1.0,
        2.220446049250313e-16,
        0.0,
        0.0,
        0.0,
        0.0,
        1.0
      ],
      "name": "Sketchfab_model"
    },
    {
      "children": [
        2,
        4,
        6,
        8,
        10
      ],
      "matrix": [
        1.0,
        0.0,
        0.0,
        0.0,
        0.0,
        -4.371139006309477e-08,
        0.999999999999999,
        0.0,
        0.0,
        -0.999999999999999,
        -4.371139006309477e-08,
        0.0,
        0.0,
        0.0,
        0.0,
        1.0
      ],
      "name": "Collada visual scene group"
    },
    {
      "children": [
        3
      ],
      "name": "Cylinder"
    },
    {
      "mesh": 0,
      "name": "defaultMaterial"
    },
    {
      "children": [
        5
      ],
      "name": "Cylinder"
    },
    {
      "mesh": 1,
      "name": "defaultMaterial"
    },
    {
      "children": [
        7
      ],
      "name": "Cylinder"
    },
    {
      "mesh": 2,
      "name": "defaultMaterial"
    },
    {
      "children": [
        9
      ],
      "name": "Cylinder"
    },
    {
      "mesh": 3,
      "name": "defaultMaterial"
    },
    {
      "children": [
        11
      ],
      "name": "Cube"
    },
    {
      "mesh": 4,
      "name": "defaultMaterial"
    }
  ],
  "samplers": [
    {
      "magFilter": 9729,
      "minFilter": 9987,
      "wrapS": 10497,
      "wrapT": 10497
    }
  ],
  "scene": 0,
  "scenes": [
    {
      "name": "Sketchfab_Scene",
      "nodes": [
        0
      ]
    }
  ],
  "textures": [
    {
      "sampler": 0,
      "source": 0
    },
    {
      "sampler": 0,
      "source": 1
    },
    {
      "sampler": 0,
      "source": 2
    },
    {
      "sampler": 0,
      "source": 3
    },
    {
      "sampler": 0,
      "source": 4
    },
    {
      "sampler": 0,
      "source": 5
    },
    {
      "sampler": 0,
      "source": 6
    },
    {
      "sampler": 0,
      "source": 7
    },
    {
      "sampler": 0,
      "source": 8
    },
    {
      "sampler": 0,
      "source": 9
    },
    {
      "sampler": 0,
      "source": 10
    }
  ]
}
