# PROP_Nightstand - procedurally generated, CC0
mtllib PROP_Nightstand.mtl
v -0.27500 0.07500 0.22500
v 0.27500 0.07500 0.22500
v 0.27500 0.62500 0.22500
v -0.27500 0.62500 0.22500
v 0.27500 0.07500 -0.22500
v -0.27500 0.07500 -0.22500
v -0.27500 0.62500 -0.22500
v 0.27500 0.62500 -0.22500
v -0.27500 0.07500 -0.22500
v -0.27500 0.07500 0.22500
v -0.27500 0.62500 0.22500
v -0.27500 0.62500 -0.22500
v 0.27500 0.07500 0.22500
v 0.27500 0.07500 -0.22500
v 0.27500 0.62500 -0.22500
v 0.27500 0.62500 0.22500
v -0.27500 0.62500 0.22500
v 0.27500 0.62500 0.22500
v 0.27500 0.62500 -0.22500
v -0.27500 0.62500 -0.22500
v -0.27500 0.07500 -0.22500
v 0.27500 0.07500 -0.22500
v 0.27500 0.07500 0.22500
v -0.27500 0.07500 0.22500
v -0.22500 0.34000 0.24500
v 0.22500 0.34000 0.24500
v 0.22500 0.50000 0.24500
v -0.22500 0.50000 0.24500
v 0.22500 0.34000 0.22500
v -0.22500 0.34000 0.22500
v -0.22500 0.50000 0.22500
v 0.22500 0.50000 0.22500
v -0.22500 0.34000 0.22500
v -0.22500 0.34000 0.24500
v -0.22500 0.50000 0.24500
v -0.22500 0.50000 0.22500
v 0.22500 0.34000 0.24500
v 0.22500 0.34000 0.22500
v 0.22500 0.50000 0.22500
v 0.22500 0.50000 0.24500
v -0.22500 0.50000 0.24500
v 0.22500 0.50000 0.24500
v 0.22500 0.50000 0.22500
v -0.22500 0.50000 0.22500
v -0.22500 0.34000 0.22500
v 0.22500 0.34000 0.22500
v 0.22500 0.34000 0.24500
v -0.22500 0.34000 0.24500
v -0.22500 0.14000 0.24500
v 0.22500 0.14000 0.24500
v 0.22500 0.30000 0.24500
v -0.22500 0.30000 0.24500
v 0.22500 0.14000 0.22500
v -0.22500 0.14000 0.22500
v -0.22500 0.30000 0.22500
v 0.22500 0.30000 0.22500
v -0.22500 0.14000 0.22500
v -0.22500 0.14000 0.24500
v -0.22500 0.30000 0.24500
v -0.22500 0.30000 0.22500
v 0.22500 0.14000 0.24500
v 0.22500 0.14000 0.22500
v 0.22500 0.30000 0.22500
v 0.22500 0.30000 0.24500
v -0.22500 0.30000 0.24500
v 0.22500 0.30000 0.24500
v 0.22500 0.30000 0.22500
v -0.22500 0.30000 0.22500
v -0.22500 0.14000 0.22500
v 0.22500 0.14000 0.22500
v 0.22500 0.14000 0.24500
v -0.22500 0.14000 0.24500
v 0.02500 0.40000 0.26000
v 0.02500 0.44000 0.26000
v 0.01768 0.44000 0.27768
v 0.01768 0.40000 0.27768
v 0.01768 0.40000 0.27768
v 0.01768 0.44000 0.27768
v 0.00000 0.44000 0.28500
v 0.00000 0.40000 0.28500
v 0.00000 0.40000 0.28500
v 0.00000 0.44000 0.28500
v -0.01768 0.44000 0.27768
v -0.01768 0.40000 0.27768
v -0.01768 0.40000 0.27768
v -0.01768 0.44000 0.27768
v -0.02500 0.44000 0.26000
v -0.02500 0.40000 0.26000
v -0.02500 0.40000 0.26000
v -0.02500 0.44000 0.26000
v -0.01768 0.44000 0.24232
v -0.01768 0.40000 0.24232
v -0.01768 0.40000 0.24232
v -0.01768 0.44000 0.24232
v -0.00000 0.44000 0.23500
v -0.00000 0.40000 0.23500
v -0.00000 0.40000 0.23500
v -0.00000 0.44000 0.23500
v 0.01768 0.44000 0.24232
v 0.01768 0.40000 0.24232
v 0.01768 0.40000 0.24232
v 0.01768 0.44000 0.24232
v 0.02500 0.44000 0.26000
v 0.02500 0.40000 0.26000
v 0.00000 0.40000 0.26000
v 0.02500 0.40000 0.26000
v 0.01768 0.40000 0.27768
v 0.00000 0.40000 0.26000
v 0.01768 0.40000 0.27768
v 0.00000 0.40000 0.28500
v 0.00000 0.40000 0.26000
v 0.00000 0.40000 0.28500
v -0.01768 0.40000 0.27768
v 0.00000 0.40000 0.26000
v -0.01768 0.40000 0.27768
v -0.02500 0.40000 0.26000
v 0.00000 0.40000 0.26000
v -0.02500 0.40000 0.26000
v -0.01768 0.40000 0.24232
v 0.00000 0.40000 0.26000
v -0.01768 0.40000 0.24232
v -0.00000 0.40000 0.23500
v 0.00000 0.40000 0.26000
v -0.00000 0.40000 0.23500
v 0.01768 0.40000 0.24232
v 0.00000 0.40000 0.26000
v 0.01768 0.40000 0.24232
v 0.02500 0.40000 0.26000
v 0.00000 0.44000 0.26000
v 0.01768 0.44000 0.27768
v 0.02500 0.44000 0.26000
v 0.00000 0.44000 0.26000
v 0.00000 0.44000 0.28500
v 0.01768 0.44000 0.27768
v 0.00000 0.44000 0.26000
v -0.01768 0.44000 0.27768
v 0.00000 0.44000 0.28500
v 0.00000 0.44000 0.26000
v -0.02500 0.44000 0.26000
v -0.01768 0.44000 0.27768
v 0.00000 0.44000 0.26000
v -0.01768 0.44000 0.24232
v -0.02500 0.44000 0.26000
v 0.00000 0.44000 0.26000
v -0.00000 0.44000 0.23500
v -0.01768 0.44000 0.24232
v 0.00000 0.44000 0.26000
v 0.01768 0.44000 0.24232
v -0.00000 0.44000 0.23500
v 0.00000 0.44000 0.26000
v 0.02500 0.44000 0.26000
v 0.01768 0.44000 0.24232
v 0.02500 0.20000 0.26000
v 0.02500 0.24000 0.26000
v 0.01768 0.24000 0.27768
v 0.01768 0.20000 0.27768
v 0.01768 0.20000 0.27768
v 0.01768 0.24000 0.27768
v 0.00000 0.24000 0.28500
v 0.00000 0.20000 0.28500
v 0.00000 0.20000 0.28500
v 0.00000 0.24000 0.28500
v -0.01768 0.24000 0.27768
v -0.01768 0.20000 0.27768
v -0.01768 0.20000 0.27768
v -0.01768 0.24000 0.27768
v -0.02500 0.24000 0.26000
v -0.02500 0.20000 0.26000
v -0.02500 0.20000 0.26000
v -0.02500 0.24000 0.26000
v -0.01768 0.24000 0.24232
v -0.01768 0.20000 0.24232
v -0.01768 0.20000 0.24232
v -0.01768 0.24000 0.24232
v -0.00000 0.24000 0.23500
v -0.00000 0.20000 0.23500
v -0.00000 0.20000 0.23500
v -0.00000 0.24000 0.23500
v 0.01768 0.24000 0.24232
v 0.01768 0.20000 0.24232
v 0.01768 0.20000 0.24232
v 0.01768 0.24000 0.24232
v 0.02500 0.24000 0.26000
v 0.02500 0.20000 0.26000
v 0.00000 0.20000 0.26000
v 0.02500 0.20000 0.26000
v 0.01768 0.20000 0.27768
v 0.00000 0.20000 0.26000
v 0.01768 0.20000 0.27768
v 0.00000 0.20000 0.28500
v 0.00000 0.20000 0.26000
v 0.00000 0.20000 0.28500
v -0.01768 0.20000 0.27768
v 0.00000 0.20000 0.26000
v -0.01768 0.20000 0.27768
v -0.02500 0.20000 0.26000
v 0.00000 0.20000 0.26000
v -0.02500 0.20000 0.26000
v -0.01768 0.20000 0.24232
v 0.00000 0.20000 0.26000
v -0.01768 0.20000 0.24232
v -0.00000 0.20000 0.23500
v 0.00000 0.20000 0.26000
v -0.00000 0.20000 0.23500
v 0.01768 0.20000 0.24232
v 0.00000 0.20000 0.26000
v 0.01768 0.20000 0.24232
v 0.02500 0.20000 0.26000
v 0.00000 0.24000 0.26000
v 0.01768 0.24000 0.27768
v 0.02500 0.24000 0.26000
v 0.00000 0.24000 0.26000
v 0.00000 0.24000 0.28500
v 0.01768 0.24000 0.27768
v 0.00000 0.24000 0.26000
v -0.01768 0.24000 0.27768
v 0.00000 0.24000 0.28500
v 0.00000 0.24000 0.26000
v -0.02500 0.24000 0.26000
v -0.01768 0.24000 0.27768
v 0.00000 0.24000 0.26000
v -0.01768 0.24000 0.24232
v -0.02500 0.24000 0.26000
v 0.00000 0.24000 0.26000
v -0.00000 0.24000 0.23500
v -0.01768 0.24000 0.24232
v 0.00000 0.24000 0.26000
v 0.01768 0.24000 0.24232
v -0.00000 0.24000 0.23500
v 0.00000 0.24000 0.26000
v 0.02500 0.24000 0.26000
v 0.01768 0.24000 0.24232
v -0.25500 0.00000 -0.13500
v -0.18500 0.00000 -0.13500
v -0.18500 0.07000 -0.13500
v -0.25500 0.07000 -0.13500
v -0.18500 0.00000 -0.20500
v -0.25500 0.00000 -0.20500
v -0.25500 0.07000 -0.20500
v -0.18500 0.07000 -0.20500
v -0.25500 0.00000 -0.20500
v -0.25500 0.00000 -0.13500
v -0.25500 0.07000 -0.13500
v -0.25500 0.07000 -0.20500
v -0.18500 0.00000 -0.13500
v -0.18500 0.00000 -0.20500
v -0.18500 0.07000 -0.20500
v -0.18500 0.07000 -0.13500
v -0.25500 0.07000 -0.13500
v -0.18500 0.07000 -0.13500
v -0.18500 0.07000 -0.20500
v -0.25500 0.07000 -0.20500
v -0.25500 0.00000 -0.20500
v -0.18500 0.00000 -0.20500
v -0.18500 0.00000 -0.13500
v -0.25500 0.00000 -0.13500
v -0.25500 0.00000 0.20500
v -0.18500 0.00000 0.20500
v -0.18500 0.07000 0.20500
v -0.25500 0.07000 0.20500
v -0.18500 0.00000 0.13500
v -0.25500 0.00000 0.13500
v -0.25500 0.07000 0.13500
v -0.18500 0.07000 0.13500
v -0.25500 0.00000 0.13500
v -0.25500 0.00000 0.20500
v -0.25500 0.07000 0.20500
v -0.25500 0.07000 0.13500
v -0.18500 0.00000 0.20500
v -0.18500 0.00000 0.13500
v -0.18500 0.07000 0.13500
v -0.18500 0.07000 0.20500
v -0.25500 0.07000 0.20500
v -0.18500 0.07000 0.20500
v -0.18500 0.07000 0.13500
v -0.25500 0.07000 0.13500
v -0.25500 0.00000 0.13500
v -0.18500 0.00000 0.13500
v -0.18500 0.00000 0.20500
v -0.25500 0.00000 0.20500
v 0.18500 0.00000 -0.13500
v 0.25500 0.00000 -0.13500
v 0.25500 0.07000 -0.13500
v 0.18500 0.07000 -0.13500
v 0.25500 0.00000 -0.20500
v 0.18500 0.00000 -0.20500
v 0.18500 0.07000 -0.20500
v 0.25500 0.07000 -0.20500
v 0.18500 0.00000 -0.20500
v 0.18500 0.00000 -0.13500
v 0.18500 0.07000 -0.13500
v 0.18500 0.07000 -0.20500
v 0.25500 0.00000 -0.13500
v 0.25500 0.00000 -0.20500
v 0.25500 0.07000 -0.20500
v 0.25500 0.07000 -0.13500
v 0.18500 0.07000 -0.13500
v 0.25500 0.07000 -0.13500
v 0.25500 0.07000 -0.20500
v 0.18500 0.07000 -0.20500
v 0.18500 0.00000 -0.20500
v 0.25500 0.00000 -0.20500
v 0.25500 0.00000 -0.13500
v 0.18500 0.00000 -0.13500
v 0.18500 0.00000 0.20500
v 0.25500 0.00000 0.20500
v 0.25500 0.07000 0.20500
v 0.18500 0.07000 0.20500
v 0.25500 0.00000 0.13500
v 0.18500 0.00000 0.13500
v 0.18500 0.07000 0.13500
v 0.25500 0.07000 0.13500
v 0.18500 0.00000 0.13500
v 0.18500 0.00000 0.20500
v 0.18500 0.07000 0.20500
v 0.18500 0.07000 0.13500
v 0.25500 0.00000 0.20500
v 0.25500 0.00000 0.13500
v 0.25500 0.07000 0.13500
v 0.25500 0.07000 0.20500
v 0.18500 0.07000 0.20500
v 0.25500 0.07000 0.20500
v 0.25500 0.07000 0.13500
v 0.18500 0.07000 0.13500
v 0.18500 0.00000 0.13500
v 0.25500 0.00000 0.13500
v 0.25500 0.00000 0.20500
v 0.18500 0.00000 0.20500
vt 0.0000 0.0000
vt 1.0000 0.0000
vt 1.0000 1.0000
vt 0.0000 1.0000
vt 0.0000 0.0000
vt 1.0000 0.0000
vt 1.0000 1.0000
vt 0.0000 1.0000
vt 0.0000 0.0000
vt 1.0000 0.0000
vt 1.0000 1.0000
vt 0.0000 1.0000
vt 0.0000 0.0000
vt 1.0000 0.0000
vt 1.0000 1.0000
vt 0.0000 1.0000
vt 0.0000 0.0000
vt 1.0000 0.0000
vt 1.0000 1.0000
vt 0.0000 1.0000
vt 0.0000 0.0000
vt 1.0000 0.0000
vt 1.0000 1.0000
vt 0.0000 1.0000
vt 0.0000 0.0000
vt 1.0000 0.0000
vt 1.0000 1.0000
vt 0.0000 1.0000
vt 0.0000 0.0000
vt 1.0000 0.0000
vt 1.0000 1.0000
vt 0.0000 1.0000
vt 0.0000 0.0000
vt 1.0000 0.0000
vt 1.0000 1.0000
vt 0.0000 1.0000
vt 0.0000 0.0000
vt 1.0000 0.0000
vt 1.0000 1.0000
vt 0.0000 1.0000
vt 0.0000 0.0000
vt 1.0000 0.0000
vt 1.0000 1.0000
vt 0.0000 1.0000
vt 0.0000 0.0000
vt 1.0000 0.0000
vt 1.0000 1.0000
vt 0.0000 1.0000
vt 0.0000 0.0000
vt 1.0000 0.0000
vt 1.0000 1.0000
vt 0.0000 1.0000
vt 0.0000 0.0000
vt 1.0000 0.0000
vt 1.0000 1.0000
vt 0.0000 1.0000
vt 0.0000 0.0000
vt 1.0000 0.0000
vt 1.0000 1.0000
vt 0.0000 1.0000
vt 0.0000 0.0000
vt 1.0000 0.0000
vt 1.0000 1.0000
vt 0.0000 1.0000
vt 0.0000 0.0000
vt 1.0000 0.0000
vt 1.0000 1.0000
vt 0.0000 1.0000
vt 0.0000 0.0000
vt 1.0000 0.0000
vt 1.0000 1.0000
vt 0.0000 1.0000
vt 0.0000 0.0000
vt 0.0000 1.0000
vt 0.1250 1.0000
vt 0.1250 0.0000
vt 0.1250 0.0000
vt 0.1250 1.0000
vt 0.2500 1.0000
vt 0.2500 0.0000
vt 0.2500 0.0000
vt 0.2500 1.0000
vt 0.3750 1.0000
vt 0.3750 0.0000
vt 0.3750 0.0000
vt 0.3750 1.0000
vt 0.5000 1.0000
vt 0.5000 0.0000
vt 0.5000 0.0000
vt 0.5000 1.0000
vt 0.6250 1.0000
vt 0.6250 0.0000
vt 0.6250 0.0000
vt 0.6250 1.0000
vt 0.7500 1.0000
vt 0.7500 0.0000
vt 0.7500 0.0000
vt 0.7500 1.0000
vt 0.8750 1.0000
vt 0.8750 0.0000
vt 0.8750 0.0000
vt 0.8750 1.0000
vt 1.0000 1.0000
vt 1.0000 0.0000
vt 0.5000 0.5000
vt 0.0000 0.0000
vt 1.0000 0.0000
vt 0.5000 0.5000
vt 0.0000 0.0000
vt 1.0000 0.0000
vt 0.5000 0.5000
vt 0.0000 0.0000
vt 1.0000 0.0000
vt 0.5000 0.5000
vt 0.0000 0.0000
vt 1.0000 0.0000
vt 0.5000 0.5000
vt 0.0000 0.0000
vt 1.0000 0.0000
vt 0.5000 0.5000
vt 0.0000 0.0000
vt 1.0000 0.0000
vt 0.5000 0.5000
vt 0.0000 0.0000
vt 1.0000 0.0000
vt 0.5000 0.5000
vt 0.0000 0.0000
vt 1.0000 0.0000
vt 0.5000 0.5000
vt 0.0000 0.0000
vt 1.0000 0.0000
vt 0.5000 0.5000
vt 0.0000 0.0000
vt 1.0000 0.0000
vt 0.5000 0.5000
vt 0.0000 0.0000
vt 1.0000 0.0000
vt 0.5000 0.5000
vt 0.0000 0.0000
vt 1.0000 0.0000
vt 0.5000 0.5000
vt 0.0000 0.0000
vt 1.0000 0.0000
vt 0.5000 0.5000
vt 0.0000 0.0000
vt 1.0000 0.0000
vt 0.5000 0.5000
vt 0.0000 0.0000
vt 1.0000 0.0000
vt 0.5000 0.5000
vt 0.0000 0.0000
vt 1.0000 0.0000
vt 0.0000 0.0000
vt 0.0000 1.0000
vt 0.1250 1.0000
vt 0.1250 0.0000
vt 0.1250 0.0000
vt 0.1250 1.0000
vt 0.2500 1.0000
vt 0.2500 0.0000
vt 0.2500 0.0000
vt 0.2500 1.0000
vt 0.3750 1.0000
vt 0.3750 0.0000
vt 0.3750 0.0000
vt 0.3750 1.0000
vt 0.5000 1.0000
vt 0.5000 0.0000
vt 0.5000 0.0000
vt 0.5000 1.0000
vt 0.6250 1.0000
vt 0.6250 0.0000
vt 0.6250 0.0000
vt 0.6250 1.0000
vt 0.7500 1.0000
vt 0.7500 0.0000
vt 0.7500 0.0000
vt 0.7500 1.0000
vt 0.8750 1.0000
vt 0.8750 0.0000
vt 0.8750 0.0000
vt 0.8750 1.0000
vt 1.0000 1.0000
vt 1.0000 0.0000
vt 0.5000 0.5000
vt 0.0000 0.0000
vt 1.0000 0.0000
vt 0.5000 0.5000
vt 0.0000 0.0000
vt 1.0000 0.0000
vt 0.5000 0.5000
vt 0.0000 0.0000
vt 1.0000 0.0000
vt 0.5000 0.5000
vt 0.0000 0.0000
vt 1.0000 0.0000
vt 0.5000 0.5000
vt 0.0000 0.0000
vt 1.0000 0.0000
vt 0.5000 0.5000
vt 0.0000 0.0000
vt 1.0000 0.0000
vt 0.5000 0.5000
vt 0.0000 0.0000
vt 1.0000 0.0000
vt 0.5000 0.5000
vt 0.0000 0.0000
vt 1.0000 0.0000
vt 0.5000 0.5000
vt 0.0000 0.0000
vt 1.0000 0.0000
vt 0.5000 0.5000
vt 0.0000 0.0000
vt 1.0000 0.0000
vt 0.5000 0.5000
vt 0.0000 0.0000
vt 1.0000 0.0000
vt 0.5000 0.5000
vt 0.0000 0.0000
vt 1.0000 0.0000
vt 0.5000 0.5000
vt 0.0000 0.0000
vt 1.0000 0.0000
vt 0.5000 0.5000
vt 0.0000 0.0000
vt 1.0000 0.0000
vt 0.5000 0.5000
vt 0.0000 0.0000
vt 1.0000 0.0000
vt 0.5000 0.5000
vt 0.0000 0.0000
vt 1.0000 0.0000
vt 0.0000 0.0000
vt 1.0000 0.0000
vt 1.0000 1.0000
vt 0.0000 1.0000
vt 0.0000 0.0000
vt 1.0000 0.0000
vt 1.0000 1.0000
vt 0.0000 1.0000
vt 0.0000 0.0000
vt 1.0000 0.0000
vt 1.0000 1.0000
vt 0.0000 1.0000
vt 0.0000 0.0000
vt 1.0000 0.0000
vt 1.0000 1.0000
vt 0.0000 1.0000
vt 0.0000 0.0000
vt 1.0000 0.0000
vt 1.0000 1.0000
vt 0.0000 1.0000
vt 0.0000 0.0000
vt 1.0000 0.0000
vt 1.0000 1.0000
vt 0.0000 1.0000
vt 0.0000 0.0000
vt 1.0000 0.0000
vt 1.0000 1.0000
vt 0.0000 1.0000
vt 0.0000 0.0000
vt 1.0000 0.0000
vt 1.0000 1.0000
vt 0.0000 1.0000
vt 0.0000 0.0000
vt 1.0000 0.0000
vt 1.0000 1.0000
vt 0.0000 1.0000
vt 0.0000 0.0000
vt 1.0000 0.0000
vt 1.0000 1.0000
vt 0.0000 1.0000
vt 0.0000 0.0000
vt 1.0000 0.0000
vt 1.0000 1.0000
vt 0.0000 1.0000
vt 0.0000 0.0000
vt 1.0000 0.0000
vt 1.0000 1.0000
vt 0.0000 1.0000
vt 0.0000 0.0000
vt 1.0000 0.0000
vt 1.0000 1.0000
vt 0.0000 1.0000
vt 0.0000 0.0000
vt 1.0000 0.0000
vt 1.0000 1.0000
vt 0.0000 1.0000
vt 0.0000 0.0000
vt 1.0000 0.0000
vt 1.0000 1.0000
vt 0.0000 1.0000
vt 0.0000 0.0000
vt 1.0000 0.0000
vt 1.0000 1.0000
vt 0.0000 1.0000
vt 0.0000 0.0000
vt 1.0000 0.0000
vt 1.0000 1.0000
vt 0.0000 1.0000
vt 0.0000 0.0000
vt 1.0000 0.0000
vt 1.0000 1.0000
vt 0.0000 1.0000
vt 0.0000 0.0000
vt 1.0000 0.0000
vt 1.0000 1.0000
vt 0.0000 1.0000
vt 0.0000 0.0000
vt 1.0000 0.0000
vt 1.0000 1.0000
vt 0.0000 1.0000
vt 0.0000 0.0000
vt 1.0000 0.0000
vt 1.0000 1.0000
vt 0.0000 1.0000
vt 0.0000 0.0000
vt 1.0000 0.0000
vt 1.0000 1.0000
vt 0.0000 1.0000
vt 0.0000 0.0000
vt 1.0000 0.0000
vt 1.0000 1.0000
vt 0.0000 1.0000
vt 0.0000 0.0000
vt 1.0000 0.0000
vt 1.0000 1.0000
vt 0.0000 1.0000
vn 0.0000 0.0000 1.0000
vn 0.0000 0.0000 -1.0000
vn -1.0000 0.0000 0.0000
vn 1.0000 0.0000 0.0000
vn 0.0000 1.0000 0.0000
vn 0.0000 -1.0000 0.0000
vn 0.0000 0.0000 1.0000
vn 0.0000 0.0000 -1.0000
vn -1.0000 0.0000 0.0000
vn 1.0000 0.0000 0.0000
vn 0.0000 1.0000 0.0000
vn 0.0000 -1.0000 0.0000
vn 0.0000 0.0000 1.0000
vn 0.0000 0.0000 -1.0000
vn -1.0000 0.0000 0.0000
vn 1.0000 0.0000 0.0000
vn 0.0000 1.0000 0.0000
vn 0.0000 -1.0000 0.0000
vn 0.9239 0.0000 0.3827
vn 0.3827 0.0000 0.9239
vn -0.3827 0.0000 0.9239
vn -0.9239 0.0000 0.3827
vn -0.9239 0.0000 -0.3827
vn -0.3827 0.0000 -0.9239
vn 0.3827 0.0000 -0.9239
vn 0.9239 0.0000 -0.3827
vn 0.0000 -1.0000 0.0000
vn 0.0000 -1.0000 0.0000
vn 0.0000 -1.0000 0.0000
vn 0.0000 -1.0000 0.0000
vn 0.0000 -1.0000 0.0000
vn 0.0000 -1.0000 0.0000
vn 0.0000 -1.0000 0.0000
vn 0.0000 -1.0000 0.0000
vn 0.0000 1.0000 0.0000
vn 0.0000 1.0000 0.0000
vn 0.0000 1.0000 0.0000
vn 0.0000 1.0000 0.0000
vn 0.0000 1.0000 0.0000
vn 0.0000 1.0000 0.0000
vn 0.0000 1.0000 0.0000
vn 0.0000 1.0000 0.0000
vn 0.9239 0.0000 0.3827
vn 0.3827 0.0000 0.9239
vn -0.3827 0.0000 0.9239
vn -0.9239 0.0000 0.3827
vn -0.9239 0.0000 -0.3827
vn -0.3827 0.0000 -0.9239
vn 0.3827 0.0000 -0.9239
vn 0.9239 0.0000 -0.3827
vn 0.0000 -1.0000 0.0000
vn 0.0000 -1.0000 0.0000
vn 0.0000 -1.0000 0.0000
vn 0.0000 -1.0000 0.0000
vn 0.0000 -1.0000 0.0000
vn 0.0000 -1.0000 0.0000
vn 0.0000 -1.0000 0.0000
vn 0.0000 -1.0000 0.0000
vn 0.0000 1.0000 0.0000
vn 0.0000 1.0000 0.0000
vn 0.0000 1.0000 0.0000
vn 0.0000 1.0000 0.0000
vn 0.0000 1.0000 0.0000
vn 0.0000 1.0000 0.0000
vn 0.0000 1.0000 0.0000
vn 0.0000 1.0000 0.0000
vn 0.0000 0.0000 1.0000
vn 0.0000 0.0000 -1.0000
vn -1.0000 0.0000 0.0000
vn 1.0000 0.0000 0.0000
vn 0.0000 1.0000 0.0000
vn 0.0000 -1.0000 0.0000
vn 0.0000 0.0000 1.0000
vn 0.0000 0.0000 -1.0000
vn -1.0000 0.0000 0.0000
vn 1.0000 0.0000 0.0000
vn 0.0000 1.0000 0.0000
vn 0.0000 -1.0000 0.0000
vn 0.0000 0.0000 1.0000
vn 0.0000 0.0000 -1.0000
vn -1.0000 0.0000 0.0000
vn 1.0000 0.0000 0.0000
vn 0.0000 1.0000 0.0000
vn 0.0000 -1.0000 0.0000
vn 0.0000 0.0000 1.0000
vn 0.0000 0.0000 -1.0000
vn -1.0000 0.0000 0.0000
vn 1.0000 0.0000 0.0000
vn 0.0000 1.0000 0.0000
vn 0.0000 -1.0000 0.0000
g Body
usemtl MAT_Wood
f 1/1/1 2/2/1 3/3/1 4/4/1
f 5/5/2 6/6/2 7/7/2 8/8/2
f 9/9/3 10/10/3 11/11/3 12/12/3
f 13/13/4 14/14/4 15/15/4 16/16/4
f 17/17/5 18/18/5 19/19/5 20/20/5
f 21/21/6 22/22/6 23/23/6 24/24/6
g Drawer
usemtl MAT_Wood
f 25/25/7 26/26/7 27/27/7 28/28/7
f 29/29/8 30/30/8 31/31/8 32/32/8
f 33/33/9 34/34/9 35/35/9 36/36/9
f 37/37/10 38/38/10 39/39/10 40/40/10
f 41/41/11 42/42/11 43/43/11 44/44/11
f 45/45/12 46/46/12 47/47/12 48/48/12
g Drawer2
usemtl MAT_Wood
f 49/49/13 50/50/13 51/51/13 52/52/13
f 53/53/14 54/54/14 55/55/14 56/56/14
f 57/57/15 58/58/15 59/59/15 60/60/15
f 61/61/16 62/62/16 63/63/16 64/64/16
f 65/65/17 66/66/17 67/67/17 68/68/17
f 69/69/18 70/70/18 71/71/18 72/72/18
g Knob
usemtl MAT_MetalPanels
f 73/73/19 74/74/19 75/75/19 76/76/19
f 77/77/20 78/78/20 79/79/20 80/80/20
f 81/81/21 82/82/21 83/83/21 84/84/21
f 85/85/22 86/86/22 87/87/22 88/88/22
f 89/89/23 90/90/23 91/91/23 92/92/23
f 93/93/24 94/94/24 95/95/24 96/96/24
f 97/97/25 98/98/25 99/99/25 100/100/25
f 101/101/26 102/102/26 103/103/26 104/104/26
f 105/105/27 106/106/27 107/107/27
f 108/108/28 109/109/28 110/110/28
f 111/111/29 112/112/29 113/113/29
f 114/114/30 115/115/30 116/116/30
f 117/117/31 118/118/31 119/119/31
f 120/120/32 121/121/32 122/122/32
f 123/123/33 124/124/33 125/125/33
f 126/126/34 127/127/34 128/128/34
f 129/129/35 130/130/35 131/131/35
f 132/132/36 133/133/36 134/134/36
f 135/135/37 136/136/37 137/137/37
f 138/138/38 139/139/38 140/140/38
f 141/141/39 142/142/39 143/143/39
f 144/144/40 145/145/40 146/146/40
f 147/147/41 148/148/41 149/149/41
f 150/150/42 151/151/42 152/152/42
g Knob2
usemtl MAT_MetalPanels
f 153/153/43 154/154/43 155/155/43 156/156/43
f 157/157/44 158/158/44 159/159/44 160/160/44
f 161/161/45 162/162/45 163/163/45 164/164/45
f 165/165/46 166/166/46 167/167/46 168/168/46
f 169/169/47 170/170/47 171/171/47 172/172/47
f 173/173/48 174/174/48 175/175/48 176/176/48
f 177/177/49 178/178/49 179/179/49 180/180/49
f 181/181/50 182/182/50 183/183/50 184/184/50
f 185/185/51 186/186/51 187/187/51
f 188/188/52 189/189/52 190/190/52
f 191/191/53 192/192/53 193/193/53
f 194/194/54 195/195/54 196/196/54
f 197/197/55 198/198/55 199/199/55
f 200/200/56 201/201/56 202/202/56
f 203/203/57 204/204/57 205/205/57
f 206/206/58 207/207/58 208/208/58
f 209/209/59 210/210/59 211/211/59
f 212/212/60 213/213/60 214/214/60
f 215/215/61 216/216/61 217/217/61
f 218/218/62 219/219/62 220/220/62
f 221/221/63 222/222/63 223/223/63
f 224/224/64 225/225/64 226/226/64
f 227/227/65 228/228/65 229/229/65
f 230/230/66 231/231/66 232/232/66
g Leg
usemtl MAT_Wood
f 233/233/67 234/234/67 235/235/67 236/236/67
f 237/237/68 238/238/68 239/239/68 240/240/68
f 241/241/69 242/242/69 243/243/69 244/244/69
f 245/245/70 246/246/70 247/247/70 248/248/70
f 249/249/71 250/250/71 251/251/71 252/252/71
f 253/253/72 254/254/72 255/255/72 256/256/72
f 257/257/73 258/258/73 259/259/73 260/260/73
f 261/261/74 262/262/74 263/263/74 264/264/74
f 265/265/75 266/266/75 267/267/75 268/268/75
f 269/269/76 270/270/76 271/271/76 272/272/76
f 273/273/77 274/274/77 275/275/77 276/276/77
f 277/277/78 278/278/78 279/279/78 280/280/78
f 281/281/79 282/282/79 283/283/79 284/284/79
f 285/285/80 286/286/80 287/287/80 288/288/80
f 289/289/81 290/290/81 291/291/81 292/292/81
f 293/293/82 294/294/82 295/295/82 296/296/82
f 297/297/83 298/298/83 299/299/83 300/300/83
f 301/301/84 302/302/84 303/303/84 304/304/84
f 305/305/85 306/306/85 307/307/85 308/308/85
f 309/309/86 310/310/86 311/311/86 312/312/86
f 313/313/87 314/314/87 315/315/87 316/316/87
f 317/317/88 318/318/88 319/319/88 320/320/88
f 321/321/89 322/322/89 323/323/89 324/324/89
f 325/325/90 326/326/90 327/327/90 328/328/90
