# PROP_CeilingFixture - procedurally generated, CC0
mtllib PROP_CeilingFixture.mtl
v 0.10000 -0.08000 0.00000
v 0.10000 0.00000 0.00000
v 0.08660 0.00000 0.05000
v 0.08660 -0.08000 0.05000
v 0.08660 -0.08000 0.05000
v 0.08660 0.00000 0.05000
v 0.05000 0.00000 0.08660
v 0.05000 -0.08000 0.08660
v 0.05000 -0.08000 0.08660
v 0.05000 0.00000 0.08660
v 0.00000 0.00000 0.10000
v 0.00000 -0.08000 0.10000
v 0.00000 -0.08000 0.10000
v 0.00000 0.00000 0.10000
v -0.05000 0.00000 0.08660
v -0.05000 -0.08000 0.08660
v -0.05000 -0.08000 0.08660
v -0.05000 0.00000 0.08660
v -0.08660 0.00000 0.05000
v -0.08660 -0.08000 0.05000
v -0.08660 -0.08000 0.05000
v -0.08660 0.00000 0.05000
v -0.10000 0.00000 0.00000
v -0.10000 -0.08000 0.00000
v -0.10000 -0.08000 0.00000
v -0.10000 0.00000 0.00000
v -0.08660 0.00000 -0.05000
v -0.08660 -0.08000 -0.05000
v -0.08660 -0.08000 -0.05000
v -0.08660 0.00000 -0.05000
v -0.05000 0.00000 -0.08660
v -0.05000 -0.08000 -0.08660
v -0.05000 -0.08000 -0.08660
v -0.05000 0.00000 -0.08660
v -0.00000 0.00000 -0.10000
v -0.00000 -0.08000 -0.10000
v -0.00000 -0.08000 -0.10000
v -0.00000 0.00000 -0.10000
v 0.05000 0.00000 -0.08660
v 0.05000 -0.08000 -0.08660
v 0.05000 -0.08000 -0.08660
v 0.05000 0.00000 -0.08660
v 0.08660 0.00000 -0.05000
v 0.08660 -0.08000 -0.05000
v 0.08660 -0.08000 -0.05000
v 0.08660 0.00000 -0.05000
v 0.10000 0.00000 -0.00000
v 0.10000 -0.08000 -0.00000
v 0.00000 -0.08000 0.00000
v 0.10000 -0.08000 0.00000
v 0.08660 -0.08000 0.05000
v 0.00000 -0.08000 0.00000
v 0.08660 -0.08000 0.05000
v 0.05000 -0.08000 0.08660
v 0.00000 -0.08000 0.00000
v 0.05000 -0.08000 0.08660
v 0.00000 -0.08000 0.10000
v 0.00000 -0.08000 0.00000
v 0.00000 -0.08000 0.10000
v -0.05000 -0.08000 0.08660
v 0.00000 -0.08000 0.00000
v -0.05000 -0.08000 0.08660
v -0.08660 -0.08000 0.05000
v 0.00000 -0.08000 0.00000
v -0.08660 -0.08000 0.05000
v -0.10000 -0.08000 0.00000
v 0.00000 -0.08000 0.00000
v -0.10000 -0.08000 0.00000
v -0.08660 -0.08000 -0.05000
v 0.00000 -0.08000 0.00000
v -0.08660 -0.08000 -0.05000
v -0.05000 -0.08000 -0.08660
v 0.00000 -0.08000 0.00000
v -0.05000 -0.08000 -0.08660
v -0.00000 -0.08000 -0.10000
v 0.00000 -0.08000 0.00000
v -0.00000 -0.08000 -0.10000
v 0.05000 -0.08000 -0.08660
v 0.00000 -0.08000 0.00000
v 0.05000 -0.08000 -0.08660
v 0.08660 -0.08000 -0.05000
v 0.00000 -0.08000 0.00000
v 0.08660 -0.08000 -0.05000
v 0.10000 -0.08000 -0.00000
v 0.00000 0.00000 0.00000
v 0.08660 0.00000 0.05000
v 0.10000 0.00000 0.00000
v 0.00000 0.00000 0.00000
v 0.05000 0.00000 0.08660
v 0.08660 0.00000 0.05000
v 0.00000 0.00000 0.00000
v 0.00000 0.00000 0.10000
v 0.05000 0.00000 0.08660
v 0.00000 0.00000 0.00000
v -0.05000 0.00000 0.08660
v 0.00000 0.00000 0.10000
v 0.00000 0.00000 0.00000
v -0.08660 0.00000 0.05000
v -0.05000 0.00000 0.08660
v 0.00000 0.00000 0.00000
v -0.10000 0.00000 0.00000
v -0.08660 0.00000 0.05000
v 0.00000 0.00000 0.00000
v -0.08660 0.00000 -0.05000
v -0.10000 0.00000 0.00000
v 0.00000 0.00000 0.00000
v -0.05000 0.00000 -0.08660
v -0.08660 0.00000 -0.05000
v 0.00000 0.00000 0.00000
v -0.00000 0.00000 -0.10000
v -0.05000 0.00000 -0.08660
v 0.00000 0.00000 0.00000
v 0.05000 0.00000 -0.08660
v -0.00000 0.00000 -0.10000
v 0.00000 0.00000 0.00000
v 0.08660 0.00000 -0.05000
v 0.05000 0.00000 -0.08660
v 0.00000 0.00000 0.00000
v 0.10000 0.00000 -0.00000
v 0.08660 0.00000 -0.05000
v 0.02000 -0.32000 0.00000
v 0.02000 -0.08000 0.00000
v 0.01414 -0.08000 0.01414
v 0.01414 -0.32000 0.01414
v 0.01414 -0.32000 0.01414
v 0.01414 -0.08000 0.01414
v 0.00000 -0.08000 0.02000
v 0.00000 -0.32000 0.02000
v 0.00000 -0.32000 0.02000
v 0.00000 -0.08000 0.02000
v -0.01414 -0.08000 0.01414
v -0.01414 -0.32000 0.01414
v -0.01414 -0.32000 0.01414
v -0.01414 -0.08000 0.01414
v -0.02000 -0.08000 0.00000
v -0.02000 -0.32000 0.00000
v -0.02000 -0.32000 0.00000
v -0.02000 -0.08000 0.00000
v -0.01414 -0.08000 -0.01414
v -0.01414 -0.32000 -0.01414
v -0.01414 -0.32000 -0.01414
v -0.01414 -0.08000 -0.01414
v -0.00000 -0.08000 -0.02000
v -0.00000 -0.32000 -0.02000
v -0.00000 -0.32000 -0.02000
v -0.00000 -0.08000 -0.02000
v 0.01414 -0.08000 -0.01414
v 0.01414 -0.32000 -0.01414
v 0.01414 -0.32000 -0.01414
v 0.01414 -0.08000 -0.01414
v 0.02000 -0.08000 -0.00000
v 0.02000 -0.32000 -0.00000
v 0.00000 -0.32000 0.00000
v 0.02000 -0.32000 0.00000
v 0.01414 -0.32000 0.01414
v 0.00000 -0.32000 0.00000
v 0.01414 -0.32000 0.01414
v 0.00000 -0.32000 0.02000
v 0.00000 -0.32000 0.00000
v 0.00000 -0.32000 0.02000
v -0.01414 -0.32000 0.01414
v 0.00000 -0.32000 0.00000
v -0.01414 -0.32000 0.01414
v -0.02000 -0.32000 0.00000
v 0.00000 -0.32000 0.00000
v -0.02000 -0.32000 0.00000
v -0.01414 -0.32000 -0.01414
v 0.00000 -0.32000 0.00000
v -0.01414 -0.32000 -0.01414
v -0.00000 -0.32000 -0.02000
v 0.00000 -0.32000 0.00000
v -0.00000 -0.32000 -0.02000
v 0.01414 -0.32000 -0.01414
v 0.00000 -0.32000 0.00000
v 0.01414 -0.32000 -0.01414
v 0.02000 -0.32000 -0.00000
v 0.00000 -0.08000 0.00000
v 0.01414 -0.08000 0.01414
v 0.02000 -0.08000 0.00000
v 0.00000 -0.08000 0.00000
v 0.00000 -0.08000 0.02000
v 0.01414 -0.08000 0.01414
v 0.00000 -0.08000 0.00000
v -0.01414 -0.08000 0.01414
v 0.00000 -0.08000 0.02000
v 0.00000 -0.08000 0.00000
v -0.02000 -0.08000 0.00000
v -0.01414 -0.08000 0.01414
v 0.00000 -0.08000 0.00000
v -0.01414 -0.08000 -0.01414
v -0.02000 -0.08000 0.00000
v 0.00000 -0.08000 0.00000
v -0.00000 -0.08000 -0.02000
v -0.01414 -0.08000 -0.01414
v 0.00000 -0.08000 0.00000
v 0.01414 -0.08000 -0.01414
v -0.00000 -0.08000 -0.02000
v 0.00000 -0.08000 0.00000
v 0.02000 -0.08000 -0.00000
v 0.01414 -0.08000 -0.01414
v 0.28000 -0.38500 0.00000
v 0.28000 -0.31500 0.00000
v 0.25869 -0.31500 0.10715
v 0.25869 -0.38500 0.10715
v 0.25869 -0.38500 0.10715
v 0.25869 -0.31500 0.10715
v 0.19799 -0.31500 0.19799
v 0.19799 -0.38500 0.19799
v 0.19799 -0.38500 0.19799
v 0.19799 -0.31500 0.19799
v 0.10715 -0.31500 0.25869
v 0.10715 -0.38500 0.25869
v 0.10715 -0.38500 0.25869
v 0.10715 -0.31500 0.25869
v 0.00000 -0.31500 0.28000
v 0.00000 -0.38500 0.28000
v 0.00000 -0.38500 0.28000
v 0.00000 -0.31500 0.28000
v -0.10715 -0.31500 0.25869
v -0.10715 -0.38500 0.25869
v -0.10715 -0.38500 0.25869
v -0.10715 -0.31500 0.25869
v -0.19799 -0.31500 0.19799
v -0.19799 -0.38500 0.19799
v -0.19799 -0.38500 0.19799
v -0.19799 -0.31500 0.19799
v -0.25869 -0.31500 0.10715
v -0.25869 -0.38500 0.10715
v -0.25869 -0.38500 0.10715
v -0.25869 -0.31500 0.10715
v -0.28000 -0.31500 0.00000
v -0.28000 -0.38500 0.00000
v -0.28000 -0.38500 0.00000
v -0.28000 -0.31500 0.00000
v -0.25869 -0.31500 -0.10715
v -0.25869 -0.38500 -0.10715
v -0.25869 -0.38500 -0.10715
v -0.25869 -0.31500 -0.10715
v -0.19799 -0.31500 -0.19799
v -0.19799 -0.38500 -0.19799
v -0.19799 -0.38500 -0.19799
v -0.19799 -0.31500 -0.19799
v -0.10715 -0.31500 -0.25869
v -0.10715 -0.38500 -0.25869
v -0.10715 -0.38500 -0.25869
v -0.10715 -0.31500 -0.25869
v -0.00000 -0.31500 -0.28000
v -0.00000 -0.38500 -0.28000
v -0.00000 -0.38500 -0.28000
v -0.00000 -0.31500 -0.28000
v 0.10715 -0.31500 -0.25869
v 0.10715 -0.38500 -0.25869
v 0.10715 -0.38500 -0.25869
v 0.10715 -0.31500 -0.25869
v 0.19799 -0.31500 -0.19799
v 0.19799 -0.38500 -0.19799
v 0.19799 -0.38500 -0.19799
v 0.19799 -0.31500 -0.19799
v 0.25869 -0.31500 -0.10715
v 0.25869 -0.38500 -0.10715
v 0.25869 -0.38500 -0.10715
v 0.25869 -0.31500 -0.10715
v 0.28000 -0.31500 -0.00000
v 0.28000 -0.38500 -0.00000
v 0.00000 -0.38500 0.00000
v 0.28000 -0.38500 0.00000
v 0.25869 -0.38500 0.10715
v 0.00000 -0.38500 0.00000
v 0.25869 -0.38500 0.10715
v 0.19799 -0.38500 0.19799
v 0.00000 -0.38500 0.00000
v 0.19799 -0.38500 0.19799
v 0.10715 -0.38500 0.25869
v 0.00000 -0.38500 0.00000
v 0.10715 -0.38500 0.25869
v 0.00000 -0.38500 0.28000
v 0.00000 -0.38500 0.00000
v 0.00000 -0.38500 0.28000
v -0.10715 -0.38500 0.25869
v 0.00000 -0.38500 0.00000
v -0.10715 -0.38500 0.25869
v -0.19799 -0.38500 0.19799
v 0.00000 -0.38500 0.00000
v -0.19799 -0.38500 0.19799
v -0.25869 -0.38500 0.10715
v 0.00000 -0.38500 0.00000
v -0.25869 -0.38500 0.10715
v -0.28000 -0.38500 0.00000
v 0.00000 -0.38500 0.00000
v -0.28000 -0.38500 0.00000
v -0.25869 -0.38500 -0.10715
v 0.00000 -0.38500 0.00000
v -0.25869 -0.38500 -0.10715
v -0.19799 -0.38500 -0.19799
v 0.00000 -0.38500 0.00000
v -0.19799 -0.38500 -0.19799
v -0.10715 -0.38500 -0.25869
v 0.00000 -0.38500 0.00000
v -0.10715 -0.38500 -0.25869
v -0.00000 -0.38500 -0.28000
v 0.00000 -0.38500 0.00000
v -0.00000 -0.38500 -0.28000
v 0.10715 -0.38500 -0.25869
v 0.00000 -0.38500 0.00000
v 0.10715 -0.38500 -0.25869
v 0.19799 -0.38500 -0.19799
v 0.00000 -0.38500 0.00000
v 0.19799 -0.38500 -0.19799
v 0.25869 -0.38500 -0.10715
v 0.00000 -0.38500 0.00000
v 0.25869 -0.38500 -0.10715
v 0.28000 -0.38500 -0.00000
v 0.00000 -0.31500 0.00000
v 0.25869 -0.31500 0.10715
v 0.28000 -0.31500 0.00000
v 0.00000 -0.31500 0.00000
v 0.19799 -0.31500 0.19799
v 0.25869 -0.31500 0.10715
v 0.00000 -0.31500 0.00000
v 0.10715 -0.31500 0.25869
v 0.19799 -0.31500 0.19799
v 0.00000 -0.31500 0.00000
v 0.00000 -0.31500 0.28000
v 0.10715 -0.31500 0.25869
v 0.00000 -0.31500 0.00000
v -0.10715 -0.31500 0.25869
v 0.00000 -0.31500 0.28000
v 0.00000 -0.31500 0.00000
v -0.19799 -0.31500 0.19799
v -0.10715 -0.31500 0.25869
v 0.00000 -0.31500 0.00000
v -0.25869 -0.31500 0.10715
v -0.19799 -0.31500 0.19799
v 0.00000 -0.31500 0.00000
v -0.28000 -0.31500 0.00000
v -0.25869 -0.31500 0.10715
v 0.00000 -0.31500 0.00000
v -0.25869 -0.31500 -0.10715
v -0.28000 -0.31500 0.00000
v 0.00000 -0.31500 0.00000
v -0.19799 -0.31500 -0.19799
v -0.25869 -0.31500 -0.10715
v 0.00000 -0.31500 0.00000
v -0.10715 -0.31500 -0.25869
v -0.19799 -0.31500 -0.19799
v 0.00000 -0.31500 0.00000
v -0.00000 -0.31500 -0.28000
v -0.10715 -0.31500 -0.25869
v 0.00000 -0.31500 0.00000
v 0.10715 -0.31500 -0.25869
v -0.00000 -0.31500 -0.28000
v 0.00000 -0.31500 0.00000
v 0.19799 -0.31500 -0.19799
v 0.10715 -0.31500 -0.25869
v 0.00000 -0.31500 0.00000
v 0.25869 -0.31500 -0.10715
v 0.19799 -0.31500 -0.19799
v 0.00000 -0.31500 0.00000
v 0.28000 -0.31500 -0.00000
v 0.25869 -0.31500 -0.10715
v 0.24000 -0.40500 0.00000
v 0.24000 -0.38500 0.00000
v 0.22173 -0.38500 0.09184
v 0.22173 -0.40500 0.09184
v 0.22173 -0.40500 0.09184
v 0.22173 -0.38500 0.09184
v 0.16971 -0.38500 0.16971
v 0.16971 -0.40500 0.16971
v 0.16971 -0.40500 0.16971
v 0.16971 -0.38500 0.16971
v 0.09184 -0.38500 0.22173
v 0.09184 -0.40500 0.22173
v 0.09184 -0.40500 0.22173
v 0.09184 -0.38500 0.22173
v 0.00000 -0.38500 0.24000
v 0.00000 -0.40500 0.24000
v 0.00000 -0.40500 0.24000
v 0.00000 -0.38500 0.24000
v -0.09184 -0.38500 0.22173
v -0.09184 -0.40500 0.22173
v -0.09184 -0.40500 0.22173
v -0.09184 -0.38500 0.22173
v -0.16971 -0.38500 0.16971
v -0.16971 -0.40500 0.16971
v -0.16971 -0.40500 0.16971
v -0.16971 -0.38500 0.16971
v -0.22173 -0.38500 0.09184
v -0.22173 -0.40500 0.09184
v -0.22173 -0.40500 0.09184
v -0.22173 -0.38500 0.09184
v -0.24000 -0.38500 0.00000
v -0.24000 -0.40500 0.00000
v -0.24000 -0.40500 0.00000
v -0.24000 -0.38500 0.00000
v -0.22173 -0.38500 -0.09184
v -0.22173 -0.40500 -0.09184
v -0.22173 -0.40500 -0.09184
v -0.22173 -0.38500 -0.09184
v -0.16971 -0.38500 -0.16971
v -0.16971 -0.40500 -0.16971
v -0.16971 -0.40500 -0.16971
v -0.16971 -0.38500 -0.16971
v -0.09184 -0.38500 -0.22173
v -0.09184 -0.40500 -0.22173
v -0.09184 -0.40500 -0.22173
v -0.09184 -0.38500 -0.22173
v -0.00000 -0.38500 -0.24000
v -0.00000 -0.40500 -0.24000
v -0.00000 -0.40500 -0.24000
v -0.00000 -0.38500 -0.24000
v 0.09184 -0.38500 -0.22173
v 0.09184 -0.40500 -0.22173
v 0.09184 -0.40500 -0.22173
v 0.09184 -0.38500 -0.22173
v 0.16971 -0.38500 -0.16971
v 0.16971 -0.40500 -0.16971
v 0.16971 -0.40500 -0.16971
v 0.16971 -0.38500 -0.16971
v 0.22173 -0.38500 -0.09184
v 0.22173 -0.40500 -0.09184
v 0.22173 -0.40500 -0.09184
v 0.22173 -0.38500 -0.09184
v 0.24000 -0.38500 -0.00000
v 0.24000 -0.40500 -0.00000
v 0.00000 -0.40500 0.00000
v 0.24000 -0.40500 0.00000
v 0.22173 -0.40500 0.09184
v 0.00000 -0.40500 0.00000
v 0.22173 -0.40500 0.09184
v 0.16971 -0.40500 0.16971
v 0.00000 -0.40500 0.00000
v 0.16971 -0.40500 0.16971
v 0.09184 -0.40500 0.22173
v 0.00000 -0.40500 0.00000
v 0.09184 -0.40500 0.22173
v 0.00000 -0.40500 0.24000
v 0.00000 -0.40500 0.00000
v 0.00000 -0.40500 0.24000
v -0.09184 -0.40500 0.22173
v 0.00000 -0.40500 0.00000
v -0.09184 -0.40500 0.22173
v -0.16971 -0.40500 0.16971
v 0.00000 -0.40500 0.00000
v -0.16971 -0.40500 0.16971
v -0.22173 -0.40500 0.09184
v 0.00000 -0.40500 0.00000
v -0.22173 -0.40500 0.09184
v -0.24000 -0.40500 0.00000
v 0.00000 -0.40500 0.00000
v -0.24000 -0.40500 0.00000
v -0.22173 -0.40500 -0.09184
v 0.00000 -0.40500 0.00000
v -0.22173 -0.40500 -0.09184
v -0.16971 -0.40500 -0.16971
v 0.00000 -0.40500 0.00000
v -0.16971 -0.40500 -0.16971
v -0.09184 -0.40500 -0.22173
v 0.00000 -0.40500 0.00000
v -0.09184 -0.40500 -0.22173
v -0.00000 -0.40500 -0.24000
v 0.00000 -0.40500 0.00000
v -0.00000 -0.40500 -0.24000
v 0.09184 -0.40500 -0.22173
v 0.00000 -0.40500 0.00000
v 0.09184 -0.40500 -0.22173
v 0.16971 -0.40500 -0.16971
v 0.00000 -0.40500 0.00000
v 0.16971 -0.40500 -0.16971
v 0.22173 -0.40500 -0.09184
v 0.00000 -0.40500 0.00000
v 0.22173 -0.40500 -0.09184
v 0.24000 -0.40500 -0.00000
v 0.00000 -0.38500 0.00000
v 0.22173 -0.38500 0.09184
v 0.24000 -0.38500 0.00000
v 0.00000 -0.38500 0.00000
v 0.16971 -0.38500 0.16971
v 0.22173 -0.38500 0.09184
v 0.00000 -0.38500 0.00000
v 0.09184 -0.38500 0.22173
v 0.16971 -0.38500 0.16971
v 0.00000 -0.38500 0.00000
v 0.00000 -0.38500 0.24000
v 0.09184 -0.38500 0.22173
v 0.00000 -0.38500 0.00000
v -0.09184 -0.38500 0.22173
v 0.00000 -0.38500 0.24000
v 0.00000 -0.38500 0.00000
v -0.16971 -0.38500 0.16971
v -0.09184 -0.38500 0.22173
v 0.00000 -0.38500 0.00000
v -0.22173 -0.38500 0.09184
v -0.16971 -0.38500 0.16971
v 0.00000 -0.38500 0.00000
v -0.24000 -0.38500 0.00000
v -0.22173 -0.38500 0.09184
v 0.00000 -0.38500 0.00000
v -0.22173 -0.38500 -0.09184
v -0.24000 -0.38500 0.00000
v 0.00000 -0.38500 0.00000
v -0.16971 -0.38500 -0.16971
v -0.22173 -0.38500 -0.09184
v 0.00000 -0.38500 0.00000
v -0.09184 -0.38500 -0.22173
v -0.16971 -0.38500 -0.16971
v 0.00000 -0.38500 0.00000
v -0.00000 -0.38500 -0.24000
v -0.09184 -0.38500 -0.22173
v 0.00000 -0.38500 0.00000
v 0.09184 -0.38500 -0.22173
v -0.00000 -0.38500 -0.24000
v 0.00000 -0.38500 0.00000
v 0.16971 -0.38500 -0.16971
v 0.09184 -0.38500 -0.22173
v 0.00000 -0.38500 0.00000
v 0.22173 -0.38500 -0.09184
v 0.16971 -0.38500 -0.16971
v 0.00000 -0.38500 0.00000
v 0.24000 -0.38500 -0.00000
v 0.22173 -0.38500 -0.09184
vt 0.0000 0.0000
vt 0.0000 1.0000
vt 0.0833 1.0000
vt 0.0833 0.0000
vt 0.0833 0.0000
vt 0.0833 1.0000
vt 0.1667 1.0000
vt 0.1667 0.0000
vt 0.1667 0.0000
vt 0.1667 1.0000
vt 0.2500 1.0000
vt 0.2500 0.0000
vt 0.2500 0.0000
vt 0.2500 1.0000
vt 0.3333 1.0000
vt 0.3333 0.0000
vt 0.3333 0.0000
vt 0.3333 1.0000
vt 0.4167 1.0000
vt 0.4167 0.0000
vt 0.4167 0.0000
vt 0.4167 1.0000
vt 0.5000 1.0000
vt 0.5000 0.0000
vt 0.5000 0.0000
vt 0.5000 1.0000
vt 0.5833 1.0000
vt 0.5833 0.0000
vt 0.5833 0.0000
vt 0.5833 1.0000
vt 0.6667 1.0000
vt 0.6667 0.0000
vt 0.6667 0.0000
vt 0.6667 1.0000
vt 0.7500 1.0000
vt 0.7500 0.0000
vt 0.7500 0.0000
vt 0.7500 1.0000
vt 0.8333 1.0000
vt 0.8333 0.0000
vt 0.8333 0.0000
vt 0.8333 1.0000
vt 0.9167 1.0000
vt 0.9167 0.0000
vt 0.9167 0.0000
vt 0.9167 1.0000
vt 1.0000 1.0000
vt 1.0000 0.0000
vt 0.5000 0.5000
vt 0.0000 0.0000
vt 1.0000 0.0000
vt 0.5000 0.5000
vt 0.0000 0.0000
vt 1.0000 0.0000
vt 0.5000 0.5000
vt 0.0000 0.0000
vt 1.0000 0.0000
vt 0.5000 0.5000
vt 0.0000 0.0000
vt 1.0000 0.0000
vt 0.5000 0.5000
vt 0.0000 0.0000
vt 1.0000 0.0000
vt 0.5000 0.5000
vt 0.0000 0.0000
vt 1.0000 0.0000
vt 0.5000 0.5000
vt 0.0000 0.0000
vt 1.0000 0.0000
vt 0.5000 0.5000
vt 0.0000 0.0000
vt 1.0000 0.0000
vt 0.5000 0.5000
vt 0.0000 0.0000
vt 1.0000 0.0000
vt 0.5000 0.5000
vt 0.0000 0.0000
vt 1.0000 0.0000
vt 0.5000 0.5000
vt 0.0000 0.0000
vt 1.0000 0.0000
vt 0.5000 0.5000
vt 0.0000 0.0000
vt 1.0000 0.0000
vt 0.5000 0.5000
vt 0.0000 0.0000
vt 1.0000 0.0000
vt 0.5000 0.5000
vt 0.0000 0.0000
vt 1.0000 0.0000
vt 0.5000 0.5000
vt 0.0000 0.0000
vt 1.0000 0.0000
vt 0.5000 0.5000
vt 0.0000 0.0000
vt 1.0000 0.0000
vt 0.5000 0.5000
vt 0.0000 0.0000
vt 1.0000 0.0000
vt 0.5000 0.5000
vt 0.0000 0.0000
vt 1.0000 0.0000
vt 0.5000 0.5000
vt 0.0000 0.0000
vt 1.0000 0.0000
vt 0.5000 0.5000
vt 0.0000 0.0000
vt 1.0000 0.0000
vt 0.5000 0.5000
vt 0.0000 0.0000
vt 1.0000 0.0000
vt 0.5000 0.5000
vt 0.0000 0.0000
vt 1.0000 0.0000
vt 0.5000 0.5000
vt 0.0000 0.0000
vt 1.0000 0.0000
vt 0.5000 0.5000
vt 0.0000 0.0000
vt 1.0000 0.0000
vt 0.0000 0.0000
vt 0.0000 1.0000
vt 0.1250 1.0000
vt 0.1250 0.0000
vt 0.1250 0.0000
vt 0.1250 1.0000
vt 0.2500 1.0000
vt 0.2500 0.0000
vt 0.2500 0.0000
vt 0.2500 1.0000
vt 0.3750 1.0000
vt 0.3750 0.0000
vt 0.3750 0.0000
vt 0.3750 1.0000
vt 0.5000 1.0000
vt 0.5000 0.0000
vt 0.5000 0.0000
vt 0.5000 1.0000
vt 0.6250 1.0000
vt 0.6250 0.0000
vt 0.6250 0.0000
vt 0.6250 1.0000
vt 0.7500 1.0000
vt 0.7500 0.0000
vt 0.7500 0.0000
vt 0.7500 1.0000
vt 0.8750 1.0000
vt 0.8750 0.0000
vt 0.8750 0.0000
vt 0.8750 1.0000
vt 1.0000 1.0000
vt 1.0000 0.0000
vt 0.5000 0.5000
vt 0.0000 0.0000
vt 1.0000 0.0000
vt 0.5000 0.5000
vt 0.0000 0.0000
vt 1.0000 0.0000
vt 0.5000 0.5000
vt 0.0000 0.0000
vt 1.0000 0.0000
vt 0.5000 0.5000
vt 0.0000 0.0000
vt 1.0000 0.0000
vt 0.5000 0.5000
vt 0.0000 0.0000
vt 1.0000 0.0000
vt 0.5000 0.5000
vt 0.0000 0.0000
vt 1.0000 0.0000
vt 0.5000 0.5000
vt 0.0000 0.0000
vt 1.0000 0.0000
vt 0.5000 0.5000
vt 0.0000 0.0000
vt 1.0000 0.0000
vt 0.5000 0.5000
vt 0.0000 0.0000
vt 1.0000 0.0000
vt 0.5000 0.5000
vt 0.0000 0.0000
vt 1.0000 0.0000
vt 0.5000 0.5000
vt 0.0000 0.0000
vt 1.0000 0.0000
vt 0.5000 0.5000
vt 0.0000 0.0000
vt 1.0000 0.0000
vt 0.5000 0.5000
vt 0.0000 0.0000
vt 1.0000 0.0000
vt 0.5000 0.5000
vt 0.0000 0.0000
vt 1.0000 0.0000
vt 0.5000 0.5000
vt 0.0000 0.0000
vt 1.0000 0.0000
vt 0.5000 0.5000
vt 0.0000 0.0000
vt 1.0000 0.0000
vt 0.0000 0.0000
vt 0.0000 1.0000
vt 0.0625 1.0000
vt 0.0625 0.0000
vt 0.0625 0.0000
vt 0.0625 1.0000
vt 0.1250 1.0000
vt 0.1250 0.0000
vt 0.1250 0.0000
vt 0.1250 1.0000
vt 0.1875 1.0000
vt 0.1875 0.0000
vt 0.1875 0.0000
vt 0.1875 1.0000
vt 0.2500 1.0000
vt 0.2500 0.0000
vt 0.2500 0.0000
vt 0.2500 1.0000
vt 0.3125 1.0000
vt 0.3125 0.0000
vt 0.3125 0.0000
vt 0.3125 1.0000
vt 0.3750 1.0000
vt 0.3750 0.0000
vt 0.3750 0.0000
vt 0.3750 1.0000
vt 0.4375 1.0000
vt 0.4375 0.0000
vt 0.4375 0.0000
vt 0.4375 1.0000
vt 0.5000 1.0000
vt 0.5000 0.0000
vt 0.5000 0.0000
vt 0.5000 1.0000
vt 0.5625 1.0000
vt 0.5625 0.0000
vt 0.5625 0.0000
vt 0.5625 1.0000
vt 0.6250 1.0000
vt 0.6250 0.0000
vt 0.6250 0.0000
vt 0.6250 1.0000
vt 0.6875 1.0000
vt 0.6875 0.0000
vt 0.6875 0.0000
vt 0.6875 1.0000
vt 0.7500 1.0000
vt 0.7500 0.0000
vt 0.7500 0.0000
vt 0.7500 1.0000
vt 0.8125 1.0000
vt 0.8125 0.0000
vt 0.8125 0.0000
vt 0.8125 1.0000
vt 0.8750 1.0000
vt 0.8750 0.0000
vt 0.8750 0.0000
vt 0.8750 1.0000
vt 0.9375 1.0000
vt 0.9375 0.0000
vt 0.9375 0.0000
vt 0.9375 1.0000
vt 1.0000 1.0000
vt 1.0000 0.0000
vt 0.5000 0.5000
vt 0.0000 0.0000
vt 1.0000 0.0000
vt 0.5000 0.5000
vt 0.0000 0.0000
vt 1.0000 0.0000
vt 0.5000 0.5000
vt 0.0000 0.0000
vt 1.0000 0.0000
vt 0.5000 0.5000
vt 0.0000 0.0000
vt 1.0000 0.0000
vt 0.5000 0.5000
vt 0.0000 0.0000
vt 1.0000 0.0000
vt 0.5000 0.5000
vt 0.0000 0.0000
vt 1.0000 0.0000
vt 0.5000 0.5000
vt 0.0000 0.0000
vt 1.0000 0.0000
vt 0.5000 0.5000
vt 0.0000 0.0000
vt 1.0000 0.0000
vt 0.5000 0.5000
vt 0.0000 0.0000
vt 1.0000 0.0000
vt 0.5000 0.5000
vt 0.0000 0.0000
vt 1.0000 0.0000
vt 0.5000 0.5000
vt 0.0000 0.0000
vt 1.0000 0.0000
vt 0.5000 0.5000
vt 0.0000 0.0000
vt 1.0000 0.0000
vt 0.5000 0.5000
vt 0.0000 0.0000
vt 1.0000 0.0000
vt 0.5000 0.5000
vt 0.0000 0.0000
vt 1.0000 0.0000
vt 0.5000 0.5000
vt 0.0000 0.0000
vt 1.0000 0.0000
vt 0.5000 0.5000
vt 0.0000 0.0000
vt 1.0000 0.0000
vt 0.5000 0.5000
vt 0.0000 0.0000
vt 1.0000 0.0000
vt 0.5000 0.5000
vt 0.0000 0.0000
vt 1.0000 0.0000
vt 0.5000 0.5000
vt 0.0000 0.0000
vt 1.0000 0.0000
vt 0.5000 0.5000
vt 0.0000 0.0000
vt 1.0000 0.0000
vt 0.5000 0.5000
vt 0.0000 0.0000
vt 1.0000 0.0000
vt 0.5000 0.5000
vt 0.0000 0.0000
vt 1.0000 0.0000
vt 0.5000 0.5000
vt 0.0000 0.0000
vt 1.0000 0.0000
vt 0.5000 0.5000
vt 0.0000 0.0000
vt 1.0000 0.0000
vt 0.5000 0.5000
vt 0.0000 0.0000
vt 1.0000 0.0000
vt 0.5000 0.5000
vt 0.0000 0.0000
vt 1.0000 0.0000
vt 0.5000 0.5000
vt 0.0000 0.0000
vt 1.0000 0.0000
vt 0.5000 0.5000
vt 0.0000 0.0000
vt 1.0000 0.0000
vt 0.5000 0.5000
vt 0.0000 0.0000
vt 1.0000 0.0000
vt 0.5000 0.5000
vt 0.0000 0.0000
vt 1.0000 0.0000
vt 0.5000 0.5000
vt 0.0000 0.0000
vt 1.0000 0.0000
vt 0.5000 0.5000
vt 0.0000 0.0000
vt 1.0000 0.0000
vt 0.0000 0.0000
vt 0.0000 1.0000
vt 0.0625 1.0000
vt 0.0625 0.0000
vt 0.0625 0.0000
vt 0.0625 1.0000
vt 0.1250 1.0000
vt 0.1250 0.0000
vt 0.1250 0.0000
vt 0.1250 1.0000
vt 0.1875 1.0000
vt 0.1875 0.0000
vt 0.1875 0.0000
vt 0.1875 1.0000
vt 0.2500 1.0000
vt 0.2500 0.0000
vt 0.2500 0.0000
vt 0.2500 1.0000
vt 0.3125 1.0000
vt 0.3125 0.0000
vt 0.3125 0.0000
vt 0.3125 1.0000
vt 0.3750 1.0000
vt 0.3750 0.0000
vt 0.3750 0.0000
vt 0.3750 1.0000
vt 0.4375 1.0000
vt 0.4375 0.0000
vt 0.4375 0.0000
vt 0.4375 1.0000
vt 0.5000 1.0000
vt 0.5000 0.0000
vt 0.5000 0.0000
vt 0.5000 1.0000
vt 0.5625 1.0000
vt 0.5625 0.0000
vt 0.5625 0.0000
vt 0.5625 1.0000
vt 0.6250 1.0000
vt 0.6250 0.0000
vt 0.6250 0.0000
vt 0.6250 1.0000
vt 0.6875 1.0000
vt 0.6875 0.0000
vt 0.6875 0.0000
vt 0.6875 1.0000
vt 0.7500 1.0000
vt 0.7500 0.0000
vt 0.7500 0.0000
vt 0.7500 1.0000
vt 0.8125 1.0000
vt 0.8125 0.0000
vt 0.8125 0.0000
vt 0.8125 1.0000
vt 0.8750 1.0000
vt 0.8750 0.0000
vt 0.8750 0.0000
vt 0.8750 1.0000
vt 0.9375 1.0000
vt 0.9375 0.0000
vt 0.9375 0.0000
vt 0.9375 1.0000
vt 1.0000 1.0000
vt 1.0000 0.0000
vt 0.5000 0.5000
vt 0.0000 0.0000
vt 1.0000 0.0000
vt 0.5000 0.5000
vt 0.0000 0.0000
vt 1.0000 0.0000
vt 0.5000 0.5000
vt 0.0000 0.0000
vt 1.0000 0.0000
vt 0.5000 0.5000
vt 0.0000 0.0000
vt 1.0000 0.0000
vt 0.5000 0.5000
vt 0.0000 0.0000
vt 1.0000 0.0000
vt 0.5000 0.5000
vt 0.0000 0.0000
vt 1.0000 0.0000
vt 0.5000 0.5000
vt 0.0000 0.0000
vt 1.0000 0.0000
vt 0.5000 0.5000
vt 0.0000 0.0000
vt 1.0000 0.0000
vt 0.5000 0.5000
vt 0.0000 0.0000
vt 1.0000 0.0000
vt 0.5000 0.5000
vt 0.0000 0.0000
vt 1.0000 0.0000
vt 0.5000 0.5000
vt 0.0000 0.0000
vt 1.0000 0.0000
vt 0.5000 0.5000
vt 0.0000 0.0000
vt 1.0000 0.0000
vt 0.5000 0.5000
vt 0.0000 0.0000
vt 1.0000 0.0000
vt 0.5000 0.5000
vt 0.0000 0.0000
vt 1.0000 0.0000
vt 0.5000 0.5000
vt 0.0000 0.0000
vt 1.0000 0.0000
vt 0.5000 0.5000
vt 0.0000 0.0000
vt 1.0000 0.0000
vt 0.5000 0.5000
vt 0.0000 0.0000
vt 1.0000 0.0000
vt 0.5000 0.5000
vt 0.0000 0.0000
vt 1.0000 0.0000
vt 0.5000 0.5000
vt 0.0000 0.0000
vt 1.0000 0.0000
vt 0.5000 0.5000
vt 0.0000 0.0000
vt 1.0000 0.0000
vt 0.5000 0.5000
vt 0.0000 0.0000
vt 1.0000 0.0000
vt 0.5000 0.5000
vt 0.0000 0.0000
vt 1.0000 0.0000
vt 0.5000 0.5000
vt 0.0000 0.0000
vt 1.0000 0.0000
vt 0.5000 0.5000
vt 0.0000 0.0000
vt 1.0000 0.0000
vt 0.5000 0.5000
vt 0.0000 0.0000
vt 1.0000 0.0000
vt 0.5000 0.5000
vt 0.0000 0.0000
vt 1.0000 0.0000
vt 0.5000 0.5000
vt 0.0000 0.0000
vt 1.0000 0.0000
vt 0.5000 0.5000
vt 0.0000 0.0000
vt 1.0000 0.0000
vt 0.5000 0.5000
vt 0.0000 0.0000
vt 1.0000 0.0000
vt 0.5000 0.5000
vt 0.0000 0.0000
vt 1.0000 0.0000
vt 0.5000 0.5000
vt 0.0000 0.0000
vt 1.0000 0.0000
vt 0.5000 0.5000
vt 0.0000 0.0000
vt 1.0000 0.0000
vn 0.9659 0.0000 0.2588
vn 0.7071 0.0000 0.7071
vn 0.2588 0.0000 0.9659
vn -0.2588 0.0000 0.9659
vn -0.7071 0.0000 0.7071
vn -0.9659 0.0000 0.2588
vn -0.9659 0.0000 -0.2588
vn -0.7071 0.0000 -0.7071
vn -0.2588 0.0000 -0.9659
vn 0.2588 0.0000 -0.9659
vn 0.7071 0.0000 -0.7071
vn 0.9659 0.0000 -0.2588
vn 0.0000 -1.0000 0.0000
vn 0.0000 -1.0000 0.0000
vn 0.0000 -1.0000 0.0000
vn 0.0000 -1.0000 0.0000
vn 0.0000 -1.0000 0.0000
vn 0.0000 -1.0000 0.0000
vn 0.0000 -1.0000 0.0000
vn 0.0000 -1.0000 0.0000
vn 0.0000 -1.0000 0.0000
vn 0.0000 -1.0000 0.0000
vn 0.0000 -1.0000 0.0000
vn 0.0000 -1.0000 0.0000
vn 0.0000 1.0000 0.0000
vn 0.0000 1.0000 0.0000
vn 0.0000 1.0000 0.0000
vn 0.0000 1.0000 0.0000
vn 0.0000 1.0000 0.0000
vn 0.0000 1.0000 0.0000
vn 0.0000 1.0000 0.0000
vn 0.0000 1.0000 0.0000
vn 0.0000 1.0000 0.0000
vn 0.0000 1.0000 0.0000
vn 0.0000 1.0000 0.0000
vn 0.0000 1.0000 0.0000
vn 0.9239 0.0000 0.3827
vn 0.3827 0.0000 0.9239
vn -0.3827 0.0000 0.9239
vn -0.9239 0.0000 0.3827
vn -0.9239 0.0000 -0.3827
vn -0.3827 0.0000 -0.9239
vn 0.3827 0.0000 -0.9239
vn 0.9239 0.0000 -0.3827
vn 0.0000 -1.0000 0.0000
vn 0.0000 -1.0000 0.0000
vn 0.0000 -1.0000 0.0000
vn 0.0000 -1.0000 0.0000
vn 0.0000 -1.0000 0.0000
vn 0.0000 -1.0000 0.0000
vn 0.0000 -1.0000 0.0000
vn 0.0000 -1.0000 0.0000
vn 0.0000 1.0000 0.0000
vn 0.0000 1.0000 0.0000
vn 0.0000 1.0000 0.0000
vn 0.0000 1.0000 0.0000
vn 0.0000 1.0000 0.0000
vn 0.0000 1.0000 0.0000
vn 0.0000 1.0000 0.0000
vn 0.0000 1.0000 0.0000
vn 0.9808 0.0000 0.1951
vn 0.8315 0.0000 0.5556
vn 0.5556 0.0000 0.8315
vn 0.1951 0.0000 0.9808
vn -0.1951 0.0000 0.9808
vn -0.5556 0.0000 0.8315
vn -0.8315 0.0000 0.5556
vn -0.9808 0.0000 0.1951
vn -0.9808 0.0000 -0.1951
vn -0.8315 0.0000 -0.5556
vn -0.5556 0.0000 -0.8315
vn -0.1951 0.0000 -0.9808
vn 0.1951 0.0000 -0.9808
vn 0.5556 0.0000 -0.8315
vn 0.8315 0.0000 -0.5556
vn 0.9808 0.0000 -0.1951
vn 0.0000 -1.0000 0.0000
vn 0.0000 -1.0000 0.0000
vn 0.0000 -1.0000 0.0000
vn 0.0000 -1.0000 0.0000
vn 0.0000 -1.0000 0.0000
vn 0.0000 -1.0000 0.0000
vn 0.0000 -1.0000 0.0000
vn 0.0000 -1.0000 0.0000
vn 0.0000 -1.0000 0.0000
vn 0.0000 -1.0000 0.0000
vn 0.0000 -1.0000 0.0000
vn 0.0000 -1.0000 0.0000
vn 0.0000 -1.0000 0.0000
vn 0.0000 -1.0000 0.0000
vn 0.0000 -1.0000 0.0000
vn 0.0000 -1.0000 0.0000
vn 0.0000 1.0000 0.0000
vn 0.0000 1.0000 0.0000
vn 0.0000 1.0000 0.0000
vn 0.0000 1.0000 0.0000
vn 0.0000 1.0000 0.0000
vn 0.0000 1.0000 0.0000
vn 0.0000 1.0000 0.0000
vn 0.0000 1.0000 0.0000
vn 0.0000 1.0000 0.0000
vn 0.0000 1.0000 0.0000
vn 0.0000 1.0000 0.0000
vn 0.0000 1.0000 0.0000
vn 0.0000 1.0000 0.0000
vn 0.0000 1.0000 0.0000
vn 0.0000 1.0000 0.0000
vn 0.0000 1.0000 0.0000
vn 0.9808 0.0000 0.1951
vn 0.8315 0.0000 0.5556
vn 0.5556 0.0000 0.8315
vn 0.1951 0.0000 0.9808
vn -0.1951 0.0000 0.9808
vn -0.5556 0.0000 0.8315
vn -0.8315 0.0000 0.5556
vn -0.9808 0.0000 0.1951
vn -0.9808 0.0000 -0.1951
vn -0.8315 0.0000 -0.5556
vn -0.5556 0.0000 -0.8315
vn -0.1951 0.0000 -0.9808
vn 0.1951 0.0000 -0.9808
vn 0.5556 0.0000 -0.8315
vn 0.8315 0.0000 -0.5556
vn 0.9808 0.0000 -0.1951
vn 0.0000 -1.0000 0.0000
vn 0.0000 -1.0000 0.0000
vn 0.0000 -1.0000 0.0000
vn 0.0000 -1.0000 0.0000
vn 0.0000 -1.0000 0.0000
vn 0.0000 -1.0000 0.0000
vn 0.0000 -1.0000 0.0000
vn 0.0000 -1.0000 0.0000
vn 0.0000 -1.0000 0.0000
vn 0.0000 -1.0000 0.0000
vn 0.0000 -1.0000 0.0000
vn 0.0000 -1.0000 0.0000
vn 0.0000 -1.0000 0.0000
vn 0.0000 -1.0000 0.0000
vn 0.0000 -1.0000 0.0000
vn 0.0000 -1.0000 0.0000
vn 0.0000 1.0000 0.0000
vn 0.0000 1.0000 0.0000
vn 0.0000 1.0000 0.0000
vn 0.0000 1.0000 0.0000
vn 0.0000 1.0000 0.0000
vn 0.0000 1.0000 0.0000
vn 0.0000 1.0000 0.0000
vn 0.0000 1.0000 0.0000
vn 0.0000 1.0000 0.0000
vn 0.0000 1.0000 0.0000
vn 0.0000 1.0000 0.0000
vn 0.0000 1.0000 0.0000
vn 0.0000 1.0000 0.0000
vn 0.0000 1.0000 0.0000
vn 0.0000 1.0000 0.0000
vn 0.0000 1.0000 0.0000
g Mount
usemtl Mount
f 1/1/1 2/2/1 3/3/1 4/4/1
f 5/5/2 6/6/2 7/7/2 8/8/2
f 9/9/3 10/10/3 11/11/3 12/12/3
f 13/13/4 14/14/4 15/15/4 16/16/4
f 17/17/5 18/18/5 19/19/5 20/20/5
f 21/21/6 22/22/6 23/23/6 24/24/6
f 25/25/7 26/26/7 27/27/7 28/28/7
f 29/29/8 30/30/8 31/31/8 32/32/8
f 33/33/9 34/34/9 35/35/9 36/36/9
f 37/37/10 38/38/10 39/39/10 40/40/10
f 41/41/11 42/42/11 43/43/11 44/44/11
f 45/45/12 46/46/12 47/47/12 48/48/12
f 49/49/13 50/50/13 51/51/13
f 52/52/14 53/53/14 54/54/14
f 55/55/15 56/56/15 57/57/15
f 58/58/16 59/59/16 60/60/16
f 61/61/17 62/62/17 63/63/17
f 64/64/18 65/65/18 66/66/18
f 67/67/19 68/68/19 69/69/19
f 70/70/20 71/71/20 72/72/20
f 73/73/21 74/74/21 75/75/21
f 76/76/22 77/77/22 78/78/22
f 79/79/23 80/80/23 81/81/23
f 82/82/24 83/83/24 84/84/24
f 85/85/25 86/86/25 87/87/25
f 88/88/26 89/89/26 90/90/26
f 91/91/27 92/92/27 93/93/27
f 94/94/28 95/95/28 96/96/28
f 97/97/29 98/98/29 99/99/29
f 100/100/30 101/101/30 102/102/30
f 103/103/31 104/104/31 105/105/31
f 106/106/32 107/107/32 108/108/32
f 109/109/33 110/110/33 111/111/33
f 112/112/34 113/113/34 114/114/34
f 115/115/35 116/116/35 117/117/35
f 118/118/36 119/119/36 120/120/36
g Rod
usemtl Rod
f 121/121/37 122/122/37 123/123/37 124/124/37
f 125/125/38 126/126/38 127/127/38 128/128/38
f 129/129/39 130/130/39 131/131/39 132/132/39
f 133/133/40 134/134/40 135/135/40 136/136/40
f 137/137/41 138/138/41 139/139/41 140/140/41
f 141/141/42 142/142/42 143/143/42 144/144/42
f 145/145/43 146/146/43 147/147/43 148/148/43
f 149/149/44 150/150/44 151/151/44 152/152/44
f 153/153/45 154/154/45 155/155/45
f 156/156/46 157/157/46 158/158/46
f 159/159/47 160/160/47 161/161/47
f 162/162/48 163/163/48 164/164/48
f 165/165/49 166/166/49 167/167/49
f 168/168/50 169/169/50 170/170/50
f 171/171/51 172/172/51 173/173/51
f 174/174/52 175/175/52 176/176/52
f 177/177/53 178/178/53 179/179/53
f 180/180/54 181/181/54 182/182/54
f 183/183/55 184/184/55 185/185/55
f 186/186/56 187/187/56 188/188/56
f 189/189/57 190/190/57 191/191/57
f 192/192/58 193/193/58 194/194/58
f 195/195/59 196/196/59 197/197/59
f 198/198/60 199/199/60 200/200/60
g Shade
usemtl Shade
f 201/201/61 202/202/61 203/203/61 204/204/61
f 205/205/62 206/206/62 207/207/62 208/208/62
f 209/209/63 210/210/63 211/211/63 212/212/63
f 213/213/64 214/214/64 215/215/64 216/216/64
f 217/217/65 218/218/65 219/219/65 220/220/65
f 221/221/66 222/222/66 223/223/66 224/224/66
f 225/225/67 226/226/67 227/227/67 228/228/67
f 229/229/68 230/230/68 231/231/68 232/232/68
f 233/233/69 234/234/69 235/235/69 236/236/69
f 237/237/70 238/238/70 239/239/70 240/240/70
f 241/241/71 242/242/71 243/243/71 244/244/71
f 245/245/72 246/246/72 247/247/72 248/248/72
f 249/249/73 250/250/73 251/251/73 252/252/73
f 253/253/74 254/254/74 255/255/74 256/256/74
f 257/257/75 258/258/75 259/259/75 260/260/75
f 261/261/76 262/262/76 263/263/76 264/264/76
f 265/265/77 266/266/77 267/267/77
f 268/268/78 269/269/78 270/270/78
f 271/271/79 272/272/79 273/273/79
f 274/274/80 275/275/80 276/276/80
f 277/277/81 278/278/81 279/279/81
f 280/280/82 281/281/82 282/282/82
f 283/283/83 284/284/83 285/285/83
f 286/286/84 287/287/84 288/288/84
f 289/289/85 290/290/85 291/291/85
f 292/292/86 293/293/86 294/294/86
f 295/295/87 296/296/87 297/297/87
f 298/298/88 299/299/88 300/300/88
f 301/301/89 302/302/89 303/303/89
f 304/304/90 305/305/90 306/306/90
f 307/307/91 308/308/91 309/309/91
f 310/310/92 311/311/92 312/312/92
f 313/313/93 314/314/93 315/315/93
f 316/316/94 317/317/94 318/318/94
f 319/319/95 320/320/95 321/321/95
f 322/322/96 323/323/96 324/324/96
f 325/325/97 326/326/97 327/327/97
f 328/328/98 329/329/98 330/330/98
f 331/331/99 332/332/99 333/333/99
f 334/334/100 335/335/100 336/336/100
f 337/337/101 338/338/101 339/339/101
f 340/340/102 341/341/102 342/342/102
f 343/343/103 344/344/103 345/345/103
f 346/346/104 347/347/104 348/348/104
f 349/349/105 350/350/105 351/351/105
f 352/352/106 353/353/106 354/354/106
f 355/355/107 356/356/107 357/357/107
f 358/358/108 359/359/108 360/360/108
g Panel
usemtl Panel
f 361/361/109 362/362/109 363/363/109 364/364/109
f 365/365/110 366/366/110 367/367/110 368/368/110
f 369/369/111 370/370/111 371/371/111 372/372/111
f 373/373/112 374/374/112 375/375/112 376/376/112
f 377/377/113 378/378/113 379/379/113 380/380/113
f 381/381/114 382/382/114 383/383/114 384/384/114
f 385/385/115 386/386/115 387/387/115 388/388/115
f 389/389/116 390/390/116 391/391/116 392/392/116
f 393/393/117 394/394/117 395/395/117 396/396/117
f 397/397/118 398/398/118 399/399/118 400/400/118
f 401/401/119 402/402/119 403/403/119 404/404/119
f 405/405/120 406/406/120 407/407/120 408/408/120
f 409/409/121 410/410/121 411/411/121 412/412/121
f 413/413/122 414/414/122 415/415/122 416/416/122
f 417/417/123 418/418/123 419/419/123 420/420/123
f 421/421/124 422/422/124 423/423/124 424/424/124
f 425/425/125 426/426/125 427/427/125
f 428/428/126 429/429/126 430/430/126
f 431/431/127 432/432/127 433/433/127
f 434/434/128 435/435/128 436/436/128
f 437/437/129 438/438/129 439/439/129
f 440/440/130 441/441/130 442/442/130
f 443/443/131 444/444/131 445/445/131
f 446/446/132 447/447/132 448/448/132
f 449/449/133 450/450/133 451/451/133
f 452/452/134 453/453/134 454/454/134
f 455/455/135 456/456/135 457/457/135
f 458/458/136 459/459/136 460/460/136
f 461/461/137 462/462/137 463/463/137
f 464/464/138 465/465/138 466/466/138
f 467/467/139 468/468/139 469/469/139
f 470/470/140 471/471/140 472/472/140
f 473/473/141 474/474/141 475/475/141
f 476/476/142 477/477/142 478/478/142
f 479/479/143 480/480/143 481/481/143
f 482/482/144 483/483/144 484/484/144
f 485/485/145 486/486/145 487/487/145
f 488/488/146 489/489/146 490/490/146
f 491/491/147 492/492/147 493/493/147
f 494/494/148 495/495/148 496/496/148
f 497/497/149 498/498/149 499/499/149
f 500/500/150 501/501/150 502/502/150
f 503/503/151 504/504/151 505/505/151
f 506/506/152 507/507/152 508/508/152
f 509/509/153 510/510/153 511/511/153
f 512/512/154 513/513/154 514/514/154
f 515/515/155 516/516/155 517/517/155
f 518/518/156 519/519/156 520/520/156
