# PROP_Keycard - procedurally generated, CC0
mtllib PROP_Keycard.mtl
v -0.04300 0.00050 0.02700
v 0.04300 0.00050 0.02700
v 0.04300 0.00350 0.02700
v -0.04300 0.00350 0.02700
v 0.04300 0.00050 -0.02700
v -0.04300 0.00050 -0.02700
v -0.04300 0.00350 -0.02700
v 0.04300 0.00350 -0.02700
v -0.04300 0.00050 -0.02700
v -0.04300 0.00050 0.02700
v -0.04300 0.00350 0.02700
v -0.04300 0.00350 -0.02700
v 0.04300 0.00050 0.02700
v 0.04300 0.00050 -0.02700
v 0.04300 0.00350 -0.02700
v 0.04300 0.00350 0.02700
v -0.04300 0.00350 0.02700
v 0.04300 0.00350 0.02700
v 0.04300 0.00350 -0.02700
v -0.04300 0.00350 -0.02700
v -0.04300 0.00050 -0.02700
v 0.04300 0.00050 -0.02700
v 0.04300 0.00050 0.02700
v -0.04300 0.00050 0.02700
v -0.04300 0.00350 -0.00900
v 0.04300 0.00350 -0.00900
v 0.04300 0.00450 -0.00900
v -0.04300 0.00450 -0.00900
v 0.04300 0.00350 -0.02100
v -0.04300 0.00350 -0.02100
v -0.04300 0.00450 -0.02100
v 0.04300 0.00450 -0.02100
v -0.04300 0.00350 -0.02100
v -0.04300 0.00350 -0.00900
v -0.04300 0.00450 -0.00900
v -0.04300 0.00450 -0.02100
v 0.04300 0.00350 -0.00900
v 0.04300 0.00350 -0.02100
v 0.04300 0.00450 -0.02100
v 0.04300 0.00450 -0.00900
v -0.04300 0.00450 -0.00900
v 0.04300 0.00450 -0.00900
v 0.04300 0.00450 -0.02100
v -0.04300 0.00450 -0.02100
v -0.04300 0.00350 -0.02100
v 0.04300 0.00350 -0.02100
v 0.04300 0.00350 -0.00900
v -0.04300 0.00350 -0.00900
vt 0.0000 0.0000
vt 1.0000 0.0000
vt 1.0000 1.0000
vt 0.0000 1.0000
vt 0.0000 0.0000
vt 1.0000 0.0000
vt 1.0000 1.0000
vt 0.0000 1.0000
vt 0.0000 0.0000
vt 1.0000 0.0000
vt 1.0000 1.0000
vt 0.0000 1.0000
vt 0.0000 0.0000
vt 1.0000 0.0000
vt 1.0000 1.0000
vt 0.0000 1.0000
vt 0.0000 0.0000
vt 1.0000 0.0000
vt 1.0000 1.0000
vt 0.0000 1.0000
vt 0.0000 0.0000
vt 1.0000 0.0000
vt 1.0000 1.0000
vt 0.0000 1.0000
vt 0.0000 0.0000
vt 1.0000 0.0000
vt 1.0000 1.0000
vt 0.0000 1.0000
vt 0.0000 0.0000
vt 1.0000 0.0000
vt 1.0000 1.0000
vt 0.0000 1.0000
vt 0.0000 0.0000
vt 1.0000 0.0000
vt 1.0000 1.0000
vt 0.0000 1.0000
vt 0.0000 0.0000
vt 1.0000 0.0000
vt 1.0000 1.0000
vt 0.0000 1.0000
vt 0.0000 0.0000
vt 1.0000 0.0000
vt 1.0000 1.0000
vt 0.0000 1.0000
vt 0.0000 0.0000
vt 1.0000 0.0000
vt 1.0000 1.0000
vt 0.0000 1.0000
vn 0.0000 0.0000 1.0000
vn 0.0000 0.0000 -1.0000
vn -1.0000 0.0000 0.0000
vn 1.0000 0.0000 0.0000
vn 0.0000 1.0000 0.0000
vn 0.0000 -1.0000 0.0000
vn 0.0000 0.0000 1.0000
vn 0.0000 0.0000 -1.0000
vn -1.0000 0.0000 0.0000
vn 1.0000 0.0000 0.0000
vn 0.0000 1.0000 0.0000
vn 0.0000 -1.0000 0.0000
g Card
usemtl Card
f 1/1/1 2/2/1 3/3/1 4/4/1
f 5/5/2 6/6/2 7/7/2 8/8/2
f 9/9/3 10/10/3 11/11/3 12/12/3
f 13/13/4 14/14/4 15/15/4 16/16/4
f 17/17/5 18/18/5 19/19/5 20/20/5
f 21/21/6 22/22/6 23/23/6 24/24/6
g Stripe
usemtl Stripe
f 25/25/7 26/26/7 27/27/7 28/28/7
f 29/29/8 30/30/8 31/31/8 32/32/8
f 33/33/9 34/34/9 35/35/9 36/36/9
f 37/37/10 38/38/10 39/39/10 40/40/10
f 41/41/11 42/42/11 43/43/11 44/44/11
f 45/45/12 46/46/12 47/47/12 48/48/12
