# PROP_SocketChemical - procedurally generated, CC0
v -0.25000 0.00000 0.03000
v 0.25000 0.00000 0.03000
v 0.25000 0.50000 0.03000
v -0.25000 0.50000 0.03000
v 0.25000 0.00000 -0.03000
v -0.25000 0.00000 -0.03000
v -0.25000 0.50000 -0.03000
v 0.25000 0.50000 -0.03000
v -0.25000 0.00000 -0.03000
v -0.25000 0.00000 0.03000
v -0.25000 0.50000 0.03000
v -0.25000 0.50000 -0.03000
v 0.25000 0.00000 0.03000
v 0.25000 0.00000 -0.03000
v 0.25000 0.50000 -0.03000
v 0.25000 0.50000 0.03000
v -0.25000 0.50000 0.03000
v 0.25000 0.50000 0.03000
v 0.25000 0.50000 -0.03000
v -0.25000 0.50000 -0.03000
v -0.25000 0.00000 -0.03000
v 0.25000 0.00000 -0.03000
v 0.25000 0.00000 0.03000
v -0.25000 0.00000 0.03000
v 0.16000 0.17000 0.08000
v 0.16000 0.33000 0.08000
v 0.14782 0.33000 0.14123
v 0.14782 0.17000 0.14123
v 0.14782 0.17000 0.14123
v 0.14782 0.33000 0.14123
v 0.11314 0.33000 0.19314
v 0.11314 0.17000 0.19314
v 0.11314 0.17000 0.19314
v 0.11314 0.33000 0.19314
v 0.06123 0.33000 0.22782
v 0.06123 0.17000 0.22782
v 0.06123 0.17000 0.22782
v 0.06123 0.33000 0.22782
v 0.00000 0.33000 0.24000
v 0.00000 0.17000 0.24000
v 0.00000 0.17000 0.24000
v 0.00000 0.33000 0.24000
v -0.06123 0.33000 0.22782
v -0.06123 0.17000 0.22782
v -0.06123 0.17000 0.22782
v -0.06123 0.33000 0.22782
v -0.11314 0.33000 0.19314
v -0.11314 0.17000 0.19314
v -0.11314 0.17000 0.19314
v -0.11314 0.33000 0.19314
v -0.14782 0.33000 0.14123
v -0.14782 0.17000 0.14123
v -0.14782 0.17000 0.14123
v -0.14782 0.33000 0.14123
v -0.16000 0.33000 0.08000
v -0.16000 0.17000 0.08000
v -0.16000 0.17000 0.08000
v -0.16000 0.33000 0.08000
v -0.14782 0.33000 0.01877
v -0.14782 0.17000 0.01877
v -0.14782 0.17000 0.01877
v -0.14782 0.33000 0.01877
v -0.11314 0.33000 -0.03314
v -0.11314 0.17000 -0.03314
v -0.11314 0.17000 -0.03314
v -0.11314 0.33000 -0.03314
v -0.06123 0.33000 -0.06782
v -0.06123 0.17000 -0.06782
v -0.06123 0.17000 -0.06782
v -0.06123 0.33000 -0.06782
v -0.00000 0.33000 -0.08000
v -0.00000 0.17000 -0.08000
v -0.00000 0.17000 -0.08000
v -0.00000 0.33000 -0.08000
v 0.06123 0.33000 -0.06782
v 0.06123 0.17000 -0.06782
v 0.06123 0.17000 -0.06782
v 0.06123 0.33000 -0.06782
v 0.11314 0.33000 -0.03314
v 0.11314 0.17000 -0.03314
v 0.11314 0.17000 -0.03314
v 0.11314 0.33000 -0.03314
v 0.14782 0.33000 0.01877
v 0.14782 0.17000 0.01877
v 0.14782 0.17000 0.01877
v 0.14782 0.33000 0.01877
v 0.16000 0.33000 0.08000
v 0.16000 0.17000 0.08000
v 0.00000 0.17000 0.08000
v 0.16000 0.17000 0.08000
v 0.14782 0.17000 0.14123
v 0.00000 0.17000 0.08000
v 0.14782 0.17000 0.14123
v 0.11314 0.17000 0.19314
v 0.00000 0.17000 0.08000
v 0.11314 0.17000 0.19314
v 0.06123 0.17000 0.22782
v 0.00000 0.17000 0.08000
v 0.06123 0.17000 0.22782
v 0.00000 0.17000 0.24000
v 0.00000 0.17000 0.08000
v 0.00000 0.17000 0.24000
v -0.06123 0.17000 0.22782
v 0.00000 0.17000 0.08000
v -0.06123 0.17000 0.22782
v -0.11314 0.17000 0.19314
v 0.00000 0.17000 0.08000
v -0.11314 0.17000 0.19314
v -0.14782 0.17000 0.14123
v 0.00000 0.17000 0.08000
v -0.14782 0.17000 0.14123
v -0.16000 0.17000 0.08000
v 0.00000 0.17000 0.08000
v -0.16000 0.17000 0.08000
v -0.14782 0.17000 0.01877
v 0.00000 0.17000 0.08000
v -0.14782 0.17000 0.01877
v -0.11314 0.17000 -0.03314
v 0.00000 0.17000 0.08000
v -0.11314 0.17000 -0.03314
v -0.06123 0.17000 -0.06782
v 0.00000 0.17000 0.08000
v -0.06123 0.17000 -0.06782
v -0.00000 0.17000 -0.08000
v 0.00000 0.17000 0.08000
v -0.00000 0.17000 -0.08000
v 0.06123 0.17000 -0.06782
v 0.00000 0.17000 0.08000
v 0.06123 0.17000 -0.06782
v 0.11314 0.17000 -0.03314
v 0.00000 0.17000 0.08000
v 0.11314 0.17000 -0.03314
v 0.14782 0.17000 0.01877
v 0.00000 0.17000 0.08000
v 0.14782 0.17000 0.01877
v 0.16000 0.17000 0.08000
v 0.00000 0.33000 0.08000
v 0.14782 0.33000 0.14123
v 0.16000 0.33000 0.08000
v 0.00000 0.33000 0.08000
v 0.11314 0.33000 0.19314
v 0.14782 0.33000 0.14123
v 0.00000 0.33000 0.08000
v 0.06123 0.33000 0.22782
v 0.11314 0.33000 0.19314
v 0.00000 0.33000 0.08000
v 0.00000 0.33000 0.24000
v 0.06123 0.33000 0.22782
v 0.00000 0.33000 0.08000
v -0.06123 0.33000 0.22782
v 0.00000 0.33000 0.24000
v 0.00000 0.33000 0.08000
v -0.11314 0.33000 0.19314
v -0.06123 0.33000 0.22782
v 0.00000 0.33000 0.08000
v -0.14782 0.33000 0.14123
v -0.11314 0.33000 0.19314
v 0.00000 0.33000 0.08000
v -0.16000 0.33000 0.08000
v -0.14782 0.33000 0.14123
v 0.00000 0.33000 0.08000
v -0.14782 0.33000 0.01877
v -0.16000 0.33000 0.08000
v 0.00000 0.33000 0.08000
v -0.11314 0.33000 -0.03314
v -0.14782 0.33000 0.01877
v 0.00000 0.33000 0.08000
v -0.06123 0.33000 -0.06782
v -0.11314 0.33000 -0.03314
v 0.00000 0.33000 0.08000
v -0.00000 0.33000 -0.08000
v -0.06123 0.33000 -0.06782
v 0.00000 0.33000 0.08000
v 0.06123 0.33000 -0.06782
v -0.00000 0.33000 -0.08000
v 0.00000 0.33000 0.08000
v 0.11314 0.33000 -0.03314
v 0.06123 0.33000 -0.06782
v 0.00000 0.33000 0.08000
v 0.14782 0.33000 0.01877
v 0.11314 0.33000 -0.03314
v 0.00000 0.33000 0.08000
v 0.16000 0.33000 0.08000
v 0.14782 0.33000 0.01877
v 0.12000 0.24000 0.12000
v 0.12000 0.26000 0.12000
v 0.11087 0.26000 0.16592
v 0.11087 0.24000 0.16592
v 0.11087 0.24000 0.16592
v 0.11087 0.26000 0.16592
v 0.08485 0.26000 0.20485
v 0.08485 0.24000 0.20485
v 0.08485 0.24000 0.20485
v 0.08485 0.26000 0.20485
v 0.04592 0.26000 0.23087
v 0.04592 0.24000 0.23087
v 0.04592 0.24000 0.23087
v 0.04592 0.26000 0.23087
v 0.00000 0.26000 0.24000
v 0.00000 0.24000 0.24000
v 0.00000 0.24000 0.24000
v 0.00000 0.26000 0.24000
v -0.04592 0.26000 0.23087
v -0.04592 0.24000 0.23087
v -0.04592 0.24000 0.23087
v -0.04592 0.26000 0.23087
v -0.08485 0.26000 0.20485
v -0.08485 0.24000 0.20485
v -0.08485 0.24000 0.20485
v -0.08485 0.26000 0.20485
v -0.11087 0.26000 0.16592
v -0.11087 0.24000 0.16592
v -0.11087 0.24000 0.16592
v -0.11087 0.26000 0.16592
v -0.12000 0.26000 0.12000
v -0.12000 0.24000 0.12000
v -0.12000 0.24000 0.12000
v -0.12000 0.26000 0.12000
v -0.11087 0.26000 0.07408
v -0.11087 0.24000 0.07408
v -0.11087 0.24000 0.07408
v -0.11087 0.26000 0.07408
v -0.08485 0.26000 0.03515
v -0.08485 0.24000 0.03515
v -0.08485 0.24000 0.03515
v -0.08485 0.26000 0.03515
v -0.04592 0.26000 0.00913
v -0.04592 0.24000 0.00913
v -0.04592 0.24000 0.00913
v -0.04592 0.26000 0.00913
v -0.00000 0.26000 0.00000
v -0.00000 0.24000 0.00000
v -0.00000 0.24000 0.00000
v -0.00000 0.26000 0.00000
v 0.04592 0.26000 0.00913
v 0.04592 0.24000 0.00913
v 0.04592 0.24000 0.00913
v 0.04592 0.26000 0.00913
v 0.08485 0.26000 0.03515
v 0.08485 0.24000 0.03515
v 0.08485 0.24000 0.03515
v 0.08485 0.26000 0.03515
v 0.11087 0.26000 0.07408
v 0.11087 0.24000 0.07408
v 0.11087 0.24000 0.07408
v 0.11087 0.26000 0.07408
v 0.12000 0.26000 0.12000
v 0.12000 0.24000 0.12000
v 0.00000 0.24000 0.12000
v 0.12000 0.24000 0.12000
v 0.11087 0.24000 0.16592
v 0.00000 0.24000 0.12000
v 0.11087 0.24000 0.16592
v 0.08485 0.24000 0.20485
v 0.00000 0.24000 0.12000
v 0.08485 0.24000 0.20485
v 0.04592 0.24000 0.23087
v 0.00000 0.24000 0.12000
v 0.04592 0.24000 0.23087
v 0.00000 0.24000 0.24000
v 0.00000 0.24000 0.12000
v 0.00000 0.24000 0.24000
v -0.04592 0.24000 0.23087
v 0.00000 0.24000 0.12000
v -0.04592 0.24000 0.23087
v -0.08485 0.24000 0.20485
v 0.00000 0.24000 0.12000
v -0.08485 0.24000 0.20485
v -0.11087 0.24000 0.16592
v 0.00000 0.24000 0.12000
v -0.11087 0.24000 0.16592
v -0.12000 0.24000 0.12000
v 0.00000 0.24000 0.12000
v -0.12000 0.24000 0.12000
v -0.11087 0.24000 0.07408
v 0.00000 0.24000 0.12000
v -0.11087 0.24000 0.07408
v -0.08485 0.24000 0.03515
v 0.00000 0.24000 0.12000
v -0.08485 0.24000 0.03515
v -0.04592 0.24000 0.00913
v 0.00000 0.24000 0.12000
v -0.04592 0.24000 0.00913
v -0.00000 0.24000 0.00000
v 0.00000 0.24000 0.12000
v -0.00000 0.24000 0.00000
v 0.04592 0.24000 0.00913
v 0.00000 0.24000 0.12000
v 0.04592 0.24000 0.00913
v 0.08485 0.24000 0.03515
v 0.00000 0.24000 0.12000
v 0.08485 0.24000 0.03515
v 0.11087 0.24000 0.07408
v 0.00000 0.24000 0.12000
v 0.11087 0.24000 0.07408
v 0.12000 0.24000 0.12000
v 0.00000 0.26000 0.12000
v 0.11087 0.26000 0.16592
v 0.12000 0.26000 0.12000
v 0.00000 0.26000 0.12000
v 0.08485 0.26000 0.20485
v 0.11087 0.26000 0.16592
v 0.00000 0.26000 0.12000
v 0.04592 0.26000 0.23087
v 0.08485 0.26000 0.20485
v 0.00000 0.26000 0.12000
v 0.00000 0.26000 0.24000
v 0.04592 0.26000 0.23087
v 0.00000 0.26000 0.12000
v -0.04592 0.26000 0.23087
v 0.00000 0.26000 0.24000
v 0.00000 0.26000 0.12000
v -0.08485 0.26000 0.20485
v -0.04592 0.26000 0.23087
v 0.00000 0.26000 0.12000
v -0.11087 0.26000 0.16592
v -0.08485 0.26000 0.20485
v 0.00000 0.26000 0.12000
v -0.12000 0.26000 0.12000
v -0.11087 0.26000 0.16592
v 0.00000 0.26000 0.12000
v -0.11087 0.26000 0.07408
v -0.12000 0.26000 0.12000
v 0.00000 0.26000 0.12000
v -0.08485 0.26000 0.03515
v -0.11087 0.26000 0.07408
v 0.00000 0.26000 0.12000
v -0.04592 0.26000 0.00913
v -0.08485 0.26000 0.03515
v 0.00000 0.26000 0.12000
v -0.00000 0.26000 0.00000
v -0.04592 0.26000 0.00913
v 0.00000 0.26000 0.12000
v 0.04592 0.26000 0.00913
v -0.00000 0.26000 0.00000
v 0.00000 0.26000 0.12000
v 0.08485 0.26000 0.03515
v 0.04592 0.26000 0.00913
v 0.00000 0.26000 0.12000
v 0.11087 0.26000 0.07408
v 0.08485 0.26000 0.03515
v 0.00000 0.26000 0.12000
v 0.12000 0.26000 0.12000
v 0.11087 0.26000 0.07408
v 0.18000 0.23000 0.05000
v 0.18000 0.27000 0.05000
v 0.16630 0.27000 0.11888
v 0.16630 0.23000 0.11888
v 0.16630 0.23000 0.11888
v 0.16630 0.27000 0.11888
v 0.12728 0.27000 0.17728
v 0.12728 0.23000 0.17728
v 0.12728 0.23000 0.17728
v 0.12728 0.27000 0.17728
v 0.06888 0.27000 0.21630
v 0.06888 0.23000 0.21630
v 0.06888 0.23000 0.21630
v 0.06888 0.27000 0.21630
v 0.00000 0.27000 0.23000
v 0.00000 0.23000 0.23000
v 0.00000 0.23000 0.23000
v 0.00000 0.27000 0.23000
v -0.06888 0.27000 0.21630
v -0.06888 0.23000 0.21630
v -0.06888 0.23000 0.21630
v -0.06888 0.27000 0.21630
v -0.12728 0.27000 0.17728
v -0.12728 0.23000 0.17728
v -0.12728 0.23000 0.17728
v -0.12728 0.27000 0.17728
v -0.16630 0.27000 0.11888
v -0.16630 0.23000 0.11888
v -0.16630 0.23000 0.11888
v -0.16630 0.27000 0.11888
v -0.18000 0.27000 0.05000
v -0.18000 0.23000 0.05000
v -0.18000 0.23000 0.05000
v -0.18000 0.27000 0.05000
v -0.16630 0.27000 -0.01888
v -0.16630 0.23000 -0.01888
v -0.16630 0.23000 -0.01888
v -0.16630 0.27000 -0.01888
v -0.12728 0.27000 -0.07728
v -0.12728 0.23000 -0.07728
v -0.12728 0.23000 -0.07728
v -0.12728 0.27000 -0.07728
v -0.06888 0.27000 -0.11630
v -0.06888 0.23000 -0.11630
v -0.06888 0.23000 -0.11630
v -0.06888 0.27000 -0.11630
v -0.00000 0.27000 -0.13000
v -0.00000 0.23000 -0.13000
v -0.00000 0.23000 -0.13000
v -0.00000 0.27000 -0.13000
v 0.06888 0.27000 -0.11630
v 0.06888 0.23000 -0.11630
v 0.06888 0.23000 -0.11630
v 0.06888 0.27000 -0.11630
v 0.12728 0.27000 -0.07728
v 0.12728 0.23000 -0.07728
v 0.12728 0.23000 -0.07728
v 0.12728 0.27000 -0.07728
v 0.16630 0.27000 -0.01888
v 0.16630 0.23000 -0.01888
v 0.16630 0.23000 -0.01888
v 0.16630 0.27000 -0.01888
v 0.18000 0.27000 0.05000
v 0.18000 0.23000 0.05000
v 0.00000 0.23000 0.05000
v 0.18000 0.23000 0.05000
v 0.16630 0.23000 0.11888
v 0.00000 0.23000 0.05000
v 0.16630 0.23000 0.11888
v 0.12728 0.23000 0.17728
v 0.00000 0.23000 0.05000
v 0.12728 0.23000 0.17728
v 0.06888 0.23000 0.21630
v 0.00000 0.23000 0.05000
v 0.06888 0.23000 0.21630
v 0.00000 0.23000 0.23000
v 0.00000 0.23000 0.05000
v 0.00000 0.23000 0.23000
v -0.06888 0.23000 0.21630
v 0.00000 0.23000 0.05000
v -0.06888 0.23000 0.21630
v -0.12728 0.23000 0.17728
v 0.00000 0.23000 0.05000
v -0.12728 0.23000 0.17728
v -0.16630 0.23000 0.11888
v 0.00000 0.23000 0.05000
v -0.16630 0.23000 0.11888
v -0.18000 0.23000 0.05000
v 0.00000 0.23000 0.05000
v -0.18000 0.23000 0.05000
v -0.16630 0.23000 -0.01888
v 0.00000 0.23000 0.05000
v -0.16630 0.23000 -0.01888
v -0.12728 0.23000 -0.07728
v 0.00000 0.23000 0.05000
v -0.12728 0.23000 -0.07728
v -0.06888 0.23000 -0.11630
v 0.00000 0.23000 0.05000
v -0.06888 0.23000 -0.11630
v -0.00000 0.23000 -0.13000
v 0.00000 0.23000 0.05000
v -0.00000 0.23000 -0.13000
v 0.06888 0.23000 -0.11630
v 0.00000 0.23000 0.05000
v 0.06888 0.23000 -0.11630
v 0.12728 0.23000 -0.07728
v 0.00000 0.23000 0.05000
v 0.12728 0.23000 -0.07728
v 0.16630 0.23000 -0.01888
v 0.00000 0.23000 0.05000
v 0.16630 0.23000 -0.01888
v 0.18000 0.23000 0.05000
v 0.00000 0.27000 0.05000
v 0.16630 0.27000 0.11888
v 0.18000 0.27000 0.05000
v 0.00000 0.27000 0.05000
v 0.12728 0.27000 0.17728
v 0.16630 0.27000 0.11888
v 0.00000 0.27000 0.05000
v 0.06888 0.27000 0.21630
v 0.12728 0.27000 0.17728
v 0.00000 0.27000 0.05000
v 0.00000 0.27000 0.23000
v 0.06888 0.27000 0.21630
v 0.00000 0.27000 0.05000
v -0.06888 0.27000 0.21630
v 0.00000 0.27000 0.23000
v 0.00000 0.27000 0.05000
v -0.12728 0.27000 0.17728
v -0.06888 0.27000 0.21630
v 0.00000 0.27000 0.05000
v -0.16630 0.27000 0.11888
v -0.12728 0.27000 0.17728
v 0.00000 0.27000 0.05000
v -0.18000 0.27000 0.05000
v -0.16630 0.27000 0.11888
v 0.00000 0.27000 0.05000
v -0.16630 0.27000 -0.01888
v -0.18000 0.27000 0.05000
v 0.00000 0.27000 0.05000
v -0.12728 0.27000 -0.07728
v -0.16630 0.27000 -0.01888
v 0.00000 0.27000 0.05000
v -0.06888 0.27000 -0.11630
v -0.12728 0.27000 -0.07728
v 0.00000 0.27000 0.05000
v -0.00000 0.27000 -0.13000
v -0.06888 0.27000 -0.11630
v 0.00000 0.27000 0.05000
v 0.06888 0.27000 -0.11630
v -0.00000 0.27000 -0.13000
v 0.00000 0.27000 0.05000
v 0.12728 0.27000 -0.07728
v 0.06888 0.27000 -0.11630
v 0.00000 0.27000 0.05000
v 0.16630 0.27000 -0.01888
v 0.12728 0.27000 -0.07728
v 0.00000 0.27000 0.05000
v 0.18000 0.27000 0.05000
v 0.16630 0.27000 -0.01888
v -0.18000 0.43000 0.04000
v -0.12000 0.43000 0.04000
v -0.12000 0.45000 0.04000
v -0.18000 0.45000 0.04000
v -0.12000 0.43000 0.03000
v -0.18000 0.43000 0.03000
v -0.18000 0.45000 0.03000
v -0.12000 0.45000 0.03000
v -0.18000 0.43000 0.03000
v -0.18000 0.43000 0.04000
v -0.18000 0.45000 0.04000
v -0.18000 0.45000 0.03000
v -0.12000 0.43000 0.04000
v -0.12000 0.43000 0.03000
v -0.12000 0.45000 0.03000
v -0.12000 0.45000 0.04000
v -0.18000 0.45000 0.04000
v -0.12000 0.45000 0.04000
v -0.12000 0.45000 0.03000
v -0.18000 0.45000 0.03000
v -0.18000 0.43000 0.03000
v -0.12000 0.43000 0.03000
v -0.12000 0.43000 0.04000
v -0.18000 0.43000 0.04000
v -0.18000 0.39000 0.04000
v -0.12000 0.39000 0.04000
v -0.12000 0.41000 0.04000
v -0.18000 0.41000 0.04000
v -0.12000 0.39000 0.03000
v -0.18000 0.39000 0.03000
v -0.18000 0.41000 0.03000
v -0.12000 0.41000 0.03000
v -0.18000 0.39000 0.03000
v -0.18000 0.39000 0.04000
v -0.18000 0.41000 0.04000
v -0.18000 0.41000 0.03000
v -0.12000 0.39000 0.04000
v -0.12000 0.39000 0.03000
v -0.12000 0.41000 0.03000
v -0.12000 0.41000 0.04000
v -0.18000 0.41000 0.04000
v -0.12000 0.41000 0.04000
v -0.12000 0.41000 0.03000
v -0.18000 0.41000 0.03000
v -0.18000 0.39000 0.03000
v -0.12000 0.39000 0.03000
v -0.12000 0.39000 0.04000
v -0.18000 0.39000 0.04000
vt 0.0000 0.0000
vt 1.0000 0.0000
vt 1.0000 1.0000
vt 0.0000 1.0000
vt 0.0000 0.0000
vt 1.0000 0.0000
vt 1.0000 1.0000
vt 0.0000 1.0000
vt 0.0000 0.0000
vt 1.0000 0.0000
vt 1.0000 1.0000
vt 0.0000 1.0000
vt 0.0000 0.0000
vt 1.0000 0.0000
vt 1.0000 1.0000
vt 0.0000 1.0000
vt 0.0000 0.0000
vt 1.0000 0.0000
vt 1.0000 1.0000
vt 0.0000 1.0000
vt 0.0000 0.0000
vt 1.0000 0.0000
vt 1.0000 1.0000
vt 0.0000 1.0000
vt 0.0000 0.0000
vt 0.0000 1.0000
vt 0.0625 1.0000
vt 0.0625 0.0000
vt 0.0625 0.0000
vt 0.0625 1.0000
vt 0.1250 1.0000
vt 0.1250 0.0000
vt 0.1250 0.0000
vt 0.1250 1.0000
vt 0.1875 1.0000
vt 0.1875 0.0000
vt 0.1875 0.0000
vt 0.1875 1.0000
vt 0.2500 1.0000
vt 0.2500 0.0000
vt 0.2500 0.0000
vt 0.2500 1.0000
vt 0.3125 1.0000
vt 0.3125 0.0000
vt 0.3125 0.0000
vt 0.3125 1.0000
vt 0.3750 1.0000
vt 0.3750 0.0000
vt 0.3750 0.0000
vt 0.3750 1.0000
vt 0.4375 1.0000
vt 0.4375 0.0000
vt 0.4375 0.0000
vt 0.4375 1.0000
vt 0.5000 1.0000
vt 0.5000 0.0000
vt 0.5000 0.0000
vt 0.5000 1.0000
vt 0.5625 1.0000
vt 0.5625 0.0000
vt 0.5625 0.0000
vt 0.5625 1.0000
vt 0.6250 1.0000
vt 0.6250 0.0000
vt 0.6250 0.0000
vt 0.6250 1.0000
vt 0.6875 1.0000
vt 0.6875 0.0000
vt 0.6875 0.0000
vt 0.6875 1.0000
vt 0.7500 1.0000
vt 0.7500 0.0000
vt 0.7500 0.0000
vt 0.7500 1.0000
vt 0.8125 1.0000
vt 0.8125 0.0000
vt 0.8125 0.0000
vt 0.8125 1.0000
vt 0.8750 1.0000
vt 0.8750 0.0000
vt 0.8750 0.0000
vt 0.8750 1.0000
vt 0.9375 1.0000
vt 0.9375 0.0000
vt 0.9375 0.0000
vt 0.9375 1.0000
vt 1.0000 1.0000
vt 1.0000 0.0000
vt 0.5000 0.5000
vt 0.0000 0.0000
vt 1.0000 0.0000
vt 0.5000 0.5000
vt 0.0000 0.0000
vt 1.0000 0.0000
vt 0.5000 0.5000
vt 0.0000 0.0000
vt 1.0000 0.0000
vt 0.5000 0.5000
vt 0.0000 0.0000
vt 1.0000 0.0000
vt 0.5000 0.5000
vt 0.0000 0.0000
vt 1.0000 0.0000
vt 0.5000 0.5000
vt 0.0000 0.0000
vt 1.0000 0.0000
vt 0.5000 0.5000
vt 0.0000 0.0000
vt 1.0000 0.0000
vt 0.5000 0.5000
vt 0.0000 0.0000
vt 1.0000 0.0000
vt 0.5000 0.5000
vt 0.0000 0.0000
vt 1.0000 0.0000
vt 0.5000 0.5000
vt 0.0000 0.0000
vt 1.0000 0.0000
vt 0.5000 0.5000
vt 0.0000 0.0000
vt 1.0000 0.0000
vt 0.5000 0.5000
vt 0.0000 0.0000
vt 1.0000 0.0000
vt 0.5000 0.5000
vt 0.0000 0.0000
vt 1.0000 0.0000
vt 0.5000 0.5000
vt 0.0000 0.0000
vt 1.0000 0.0000
vt 0.5000 0.5000
vt 0.0000 0.0000
vt 1.0000 0.0000
vt 0.5000 0.5000
vt 0.0000 0.0000
vt 1.0000 0.0000
vt 0.5000 0.5000
vt 0.0000 0.0000
vt 1.0000 0.0000
vt 0.5000 0.5000
vt 0.0000 0.0000
vt 1.0000 0.0000
vt 0.5000 0.5000
vt 0.0000 0.0000
vt 1.0000 0.0000
vt 0.5000 0.5000
vt 0.0000 0.0000
vt 1.0000 0.0000
vt 0.5000 0.5000
vt 0.0000 0.0000
vt 1.0000 0.0000
vt 0.5000 0.5000
vt 0.0000 0.0000
vt 1.0000 0.0000
vt 0.5000 0.5000
vt 0.0000 0.0000
vt 1.0000 0.0000
vt 0.5000 0.5000
vt 0.0000 0.0000
vt 1.0000 0.0000
vt 0.5000 0.5000
vt 0.0000 0.0000
vt 1.0000 0.0000
vt 0.5000 0.5000
vt 0.0000 0.0000
vt 1.0000 0.0000
vt 0.5000 0.5000
vt 0.0000 0.0000
vt 1.0000 0.0000
vt 0.5000 0.5000
vt 0.0000 0.0000
vt 1.0000 0.0000
vt 0.5000 0.5000
vt 0.0000 0.0000
vt 1.0000 0.0000
vt 0.5000 0.5000
vt 0.0000 0.0000
vt 1.0000 0.0000
vt 0.5000 0.5000
vt 0.0000 0.0000
vt 1.0000 0.0000
vt 0.5000 0.5000
vt 0.0000 0.0000
vt 1.0000 0.0000
vt 0.0000 0.0000
vt 0.0000 1.0000
vt 0.0625 1.0000
vt 0.0625 0.0000
vt 0.0625 0.0000
vt 0.0625 1.0000
vt 0.1250 1.0000
vt 0.1250 0.0000
vt 0.1250 0.0000
vt 0.1250 1.0000
vt 0.1875 1.0000
vt 0.1875 0.0000
vt 0.1875 0.0000
vt 0.1875 1.0000
vt 0.2500 1.0000
vt 0.2500 0.0000
vt 0.2500 0.0000
vt 0.2500 1.0000
vt 0.3125 1.0000
vt 0.3125 0.0000
vt 0.3125 0.0000
vt 0.3125 1.0000
vt 0.3750 1.0000
vt 0.3750 0.0000
vt 0.3750 0.0000
vt 0.3750 1.0000
vt 0.4375 1.0000
vt 0.4375 0.0000
vt 0.4375 0.0000
vt 0.4375 1.0000
vt 0.5000 1.0000
vt 0.5000 0.0000
vt 0.5000 0.0000
vt 0.5000 1.0000
vt 0.5625 1.0000
vt 0.5625 0.0000
vt 0.5625 0.0000
vt 0.5625 1.0000
vt 0.6250 1.0000
vt 0.6250 0.0000
vt 0.6250 0.0000
vt 0.6250 1.0000
vt 0.6875 1.0000
vt 0.6875 0.0000
vt 0.6875 0.0000
vt 0.6875 1.0000
vt 0.7500 1.0000
vt 0.7500 0.0000
vt 0.7500 0.0000
vt 0.7500 1.0000
vt 0.8125 1.0000
vt 0.8125 0.0000
vt 0.8125 0.0000
vt 0.8125 1.0000
vt 0.8750 1.0000
vt 0.8750 0.0000
vt 0.8750 0.0000
vt 0.8750 1.0000
vt 0.9375 1.0000
vt 0.9375 0.0000
vt 0.9375 0.0000
vt 0.9375 1.0000
vt 1.0000 1.0000
vt 1.0000 0.0000
vt 0.5000 0.5000
vt 0.0000 0.0000
vt 1.0000 0.0000
vt 0.5000 0.5000
vt 0.0000 0.0000
vt 1.0000 0.0000
vt 0.5000 0.5000
vt 0.0000 0.0000
vt 1.0000 0.0000
vt 0.5000 0.5000
vt 0.0000 0.0000
vt 1.0000 0.0000
vt 0.5000 0.5000
vt 0.0000 0.0000
vt 1.0000 0.0000
vt 0.5000 0.5000
vt 0.0000 0.0000
vt 1.0000 0.0000
vt 0.5000 0.5000
vt 0.0000 0.0000
vt 1.0000 0.0000
vt 0.5000 0.5000
vt 0.0000 0.0000
vt 1.0000 0.0000
vt 0.5000 0.5000
vt 0.0000 0.0000
vt 1.0000 0.0000
vt 0.5000 0.5000
vt 0.0000 0.0000
vt 1.0000 0.0000
vt 0.5000 0.5000
vt 0.0000 0.0000
vt 1.0000 0.0000
vt 0.5000 0.5000
vt 0.0000 0.0000
vt 1.0000 0.0000
vt 0.5000 0.5000
vt 0.0000 0.0000
vt 1.0000 0.0000
vt 0.5000 0.5000
vt 0.0000 0.0000
vt 1.0000 0.0000
vt 0.5000 0.5000
vt 0.0000 0.0000
vt 1.0000 0.0000
vt 0.5000 0.5000
vt 0.0000 0.0000
vt 1.0000 0.0000
vt 0.5000 0.5000
vt 0.0000 0.0000
vt 1.0000 0.0000
vt 0.5000 0.5000
vt 0.0000 0.0000
vt 1.0000 0.0000
vt 0.5000 0.5000
vt 0.0000 0.0000
vt 1.0000 0.0000
vt 0.5000 0.5000
vt 0.0000 0.0000
vt 1.0000 0.0000
vt 0.5000 0.5000
vt 0.0000 0.0000
vt 1.0000 0.0000
vt 0.5000 0.5000
vt 0.0000 0.0000
vt 1.0000 0.0000
vt 0.5000 0.5000
vt 0.0000 0.0000
vt 1.0000 0.0000
vt 0.5000 0.5000
vt 0.0000 0.0000
vt 1.0000 0.0000
vt 0.5000 0.5000
vt 0.0000 0.0000
vt 1.0000 0.0000
vt 0.5000 0.5000
vt 0.0000 0.0000
vt 1.0000 0.0000
vt 0.5000 0.5000
vt 0.0000 0.0000
vt 1.0000 0.0000
vt 0.5000 0.5000
vt 0.0000 0.0000
vt 1.0000 0.0000
vt 0.5000 0.5000
vt 0.0000 0.0000
vt 1.0000 0.0000
vt 0.5000 0.5000
vt 0.0000 0.0000
vt 1.0000 0.0000
vt 0.5000 0.5000
vt 0.0000 0.0000
vt 1.0000 0.0000
vt 0.5000 0.5000
vt 0.0000 0.0000
vt 1.0000 0.0000
vt 0.0000 0.0000
vt 0.0000 1.0000
vt 0.0625 1.0000
vt 0.0625 0.0000
vt 0.0625 0.0000
vt 0.0625 1.0000
vt 0.1250 1.0000
vt 0.1250 0.0000
vt 0.1250 0.0000
vt 0.1250 1.0000
vt 0.1875 1.0000
vt 0.1875 0.0000
vt 0.1875 0.0000
vt 0.1875 1.0000
vt 0.2500 1.0000
vt 0.2500 0.0000
vt 0.2500 0.0000
vt 0.2500 1.0000
vt 0.3125 1.0000
vt 0.3125 0.0000
vt 0.3125 0.0000
vt 0.3125 1.0000
vt 0.3750 1.0000
vt 0.3750 0.0000
vt 0.3750 0.0000
vt 0.3750 1.0000
vt 0.4375 1.0000
vt 0.4375 0.0000
vt 0.4375 0.0000
vt 0.4375 1.0000
vt 0.5000 1.0000
vt 0.5000 0.0000
vt 0.5000 0.0000
vt 0.5000 1.0000
vt 0.5625 1.0000
vt 0.5625 0.0000
vt 0.5625 0.0000
vt 0.5625 1.0000
vt 0.6250 1.0000
vt 0.6250 0.0000
vt 0.6250 0.0000
vt 0.6250 1.0000
vt 0.6875 1.0000
vt 0.6875 0.0000
vt 0.6875 0.0000
vt 0.6875 1.0000
vt 0.7500 1.0000
vt 0.7500 0.0000
vt 0.7500 0.0000
vt 0.7500 1.0000
vt 0.8125 1.0000
vt 0.8125 0.0000
vt 0.8125 0.0000
vt 0.8125 1.0000
vt 0.8750 1.0000
vt 0.8750 0.0000
vt 0.8750 0.0000
vt 0.8750 1.0000
vt 0.9375 1.0000
vt 0.9375 0.0000
vt 0.9375 0.0000
vt 0.9375 1.0000
vt 1.0000 1.0000
vt 1.0000 0.0000
vt 0.5000 0.5000
vt 0.0000 0.0000
vt 1.0000 0.0000
vt 0.5000 0.5000
vt 0.0000 0.0000
vt 1.0000 0.0000
vt 0.5000 0.5000
vt 0.0000 0.0000
vt 1.0000 0.0000
vt 0.5000 0.5000
vt 0.0000 0.0000
vt 1.0000 0.0000
vt 0.5000 0.5000
vt 0.0000 0.0000
vt 1.0000 0.0000
vt 0.5000 0.5000
vt 0.0000 0.0000
vt 1.0000 0.0000
vt 0.5000 0.5000
vt 0.0000 0.0000
vt 1.0000 0.0000
vt 0.5000 0.5000
vt 0.0000 0.0000
vt 1.0000 0.0000
vt 0.5000 0.5000
vt 0.0000 0.0000
vt 1.0000 0.0000
vt 0.5000 0.5000
vt 0.0000 0.0000
vt 1.0000 0.0000
vt 0.5000 0.5000
vt 0.0000 0.0000
vt 1.0000 0.0000
vt 0.5000 0.5000
vt 0.0000 0.0000
vt 1.0000 0.0000
vt 0.5000 0.5000
vt 0.0000 0.0000
vt 1.0000 0.0000
vt 0.5000 0.5000
vt 0.0000 0.0000
vt 1.0000 0.0000
vt 0.5000 0.5000
vt 0.0000 0.0000
vt 1.0000 0.0000
vt 0.5000 0.5000
vt 0.0000 0.0000
vt 1.0000 0.0000
vt 0.5000 0.5000
vt 0.0000 0.0000
vt 1.0000 0.0000
vt 0.5000 0.5000
vt 0.0000 0.0000
vt 1.0000 0.0000
vt 0.5000 0.5000
vt 0.0000 0.0000
vt 1.0000 0.0000
vt 0.5000 0.5000
vt 0.0000 0.0000
vt 1.0000 0.0000
vt 0.5000 0.5000
vt 0.0000 0.0000
vt 1.0000 0.0000
vt 0.5000 0.5000
vt 0.0000 0.0000
vt 1.0000 0.0000
vt 0.5000 0.5000
vt 0.0000 0.0000
vt 1.0000 0.0000
vt 0.5000 0.5000
vt 0.0000 0.0000
vt 1.0000 0.0000
vt 0.5000 0.5000
vt 0.0000 0.0000
vt 1.0000 0.0000
vt 0.5000 0.5000
vt 0.0000 0.0000
vt 1.0000 0.0000
vt 0.5000 0.5000
vt 0.0000 0.0000
vt 1.0000 0.0000
vt 0.5000 0.5000
vt 0.0000 0.0000
vt 1.0000 0.0000
vt 0.5000 0.5000
vt 0.0000 0.0000
vt 1.0000 0.0000
vt 0.5000 0.5000
vt 0.0000 0.0000
vt 1.0000 0.0000
vt 0.5000 0.5000
vt 0.0000 0.0000
vt 1.0000 0.0000
vt 0.5000 0.5000
vt 0.0000 0.0000
vt 1.0000 0.0000
vt 0.0000 0.0000
vt 1.0000 0.0000
vt 1.0000 1.0000
vt 0.0000 1.0000
vt 0.0000 0.0000
vt 1.0000 0.0000
vt 1.0000 1.0000
vt 0.0000 1.0000
vt 0.0000 0.0000
vt 1.0000 0.0000
vt 1.0000 1.0000
vt 0.0000 1.0000
vt 0.0000 0.0000
vt 1.0000 0.0000
vt 1.0000 1.0000
vt 0.0000 1.0000
vt 0.0000 0.0000
vt 1.0000 0.0000
vt 1.0000 1.0000
vt 0.0000 1.0000
vt 0.0000 0.0000
vt 1.0000 0.0000
vt 1.0000 1.0000
vt 0.0000 1.0000
vt 0.0000 0.0000
vt 1.0000 0.0000
vt 1.0000 1.0000
vt 0.0000 1.0000
vt 0.0000 0.0000
vt 1.0000 0.0000
vt 1.0000 1.0000
vt 0.0000 1.0000
vt 0.0000 0.0000
vt 1.0000 0.0000
vt 1.0000 1.0000
vt 0.0000 1.0000
vt 0.0000 0.0000
vt 1.0000 0.0000
vt 1.0000 1.0000
vt 0.0000 1.0000
vt 0.0000 0.0000
vt 1.0000 0.0000
vt 1.0000 1.0000
vt 0.0000 1.0000
vt 0.0000 0.0000
vt 1.0000 0.0000
vt 1.0000 1.0000
vt 0.0000 1.0000
vn 0.0000 0.0000 1.0000
vn 0.0000 0.0000 -1.0000
vn -1.0000 0.0000 0.0000
vn 1.0000 0.0000 0.0000
vn 0.0000 1.0000 0.0000
vn 0.0000 -1.0000 0.0000
vn 0.9808 0.0000 0.1951
vn 0.8315 0.0000 0.5556
vn 0.5556 0.0000 0.8315
vn 0.1951 0.0000 0.9808
vn -0.1951 0.0000 0.9808
vn -0.5556 0.0000 0.8315
vn -0.8315 0.0000 0.5556
vn -0.9808 0.0000 0.1951
vn -0.9808 0.0000 -0.1951
vn -0.8315 0.0000 -0.5556
vn -0.5556 0.0000 -0.8315
vn -0.1951 0.0000 -0.9808
vn 0.1951 0.0000 -0.9808
vn 0.5556 0.0000 -0.8315
vn 0.8315 0.0000 -0.5556
vn 0.9808 0.0000 -0.1951
vn 0.0000 -1.0000 0.0000
vn 0.0000 -1.0000 0.0000
vn 0.0000 -1.0000 0.0000
vn 0.0000 -1.0000 0.0000
vn 0.0000 -1.0000 0.0000
vn 0.0000 -1.0000 0.0000
vn 0.0000 -1.0000 0.0000
vn 0.0000 -1.0000 0.0000
vn 0.0000 -1.0000 0.0000
vn 0.0000 -1.0000 0.0000
vn 0.0000 -1.0000 0.0000
vn 0.0000 -1.0000 0.0000
vn 0.0000 -1.0000 0.0000
vn 0.0000 -1.0000 0.0000
vn 0.0000 -1.0000 0.0000
vn 0.0000 -1.0000 0.0000
vn 0.0000 1.0000 0.0000
vn 0.0000 1.0000 0.0000
vn 0.0000 1.0000 0.0000
vn 0.0000 1.0000 0.0000
vn 0.0000 1.0000 0.0000
vn 0.0000 1.0000 0.0000
vn 0.0000 1.0000 0.0000
vn 0.0000 1.0000 0.0000
vn 0.0000 1.0000 0.0000
vn 0.0000 1.0000 0.0000
vn 0.0000 1.0000 0.0000
vn 0.0000 1.0000 0.0000
vn 0.0000 1.0000 0.0000
vn 0.0000 1.0000 0.0000
vn 0.0000 1.0000 0.0000
vn 0.0000 1.0000 0.0000
vn 0.9808 0.0000 0.1951
vn 0.8315 0.0000 0.5556
vn 0.5556 0.0000 0.8315
vn 0.1951 0.0000 0.9808
vn -0.1951 0.0000 0.9808
vn -0.5556 0.0000 0.8315
vn -0.8315 0.0000 0.5556
vn -0.9808 0.0000 0.1951
vn -0.9808 0.0000 -0.1951
vn -0.8315 0.0000 -0.5556
vn -0.5556 0.0000 -0.8315
vn -0.1951 0.0000 -0.9808
vn 0.1951 0.0000 -0.9808
vn 0.5556 0.0000 -0.8315
vn 0.8315 0.0000 -0.5556
vn 0.9808 0.0000 -0.1951
vn 0.0000 -1.0000 0.0000
vn 0.0000 -1.0000 0.0000
vn 0.0000 -1.0000 0.0000
vn 0.0000 -1.0000 0.0000
vn 0.0000 -1.0000 0.0000
vn 0.0000 -1.0000 0.0000
vn 0.0000 -1.0000 0.0000
vn 0.0000 -1.0000 0.0000
vn 0.0000 -1.0000 0.0000
vn 0.0000 -1.0000 0.0000
vn 0.0000 -1.0000 0.0000
vn 0.0000 -1.0000 0.0000
vn 0.0000 -1.0000 0.0000
vn 0.0000 -1.0000 0.0000
vn 0.0000 -1.0000 0.0000
vn 0.0000 -1.0000 0.0000
vn 0.0000 1.0000 0.0000
vn 0.0000 1.0000 0.0000
vn 0.0000 1.0000 0.0000
vn 0.0000 1.0000 0.0000
vn 0.0000 1.0000 0.0000
vn 0.0000 1.0000 0.0000
vn 0.0000 1.0000 0.0000
vn 0.0000 1.0000 0.0000
vn 0.0000 1.0000 0.0000
vn 0.0000 1.0000 0.0000
vn 0.0000 1.0000 0.0000
vn 0.0000 1.0000 0.0000
vn 0.0000 1.0000 0.0000
vn 0.0000 1.0000 0.0000
vn 0.0000 1.0000 0.0000
vn 0.0000 1.0000 0.0000
vn 0.9808 0.0000 0.1951
vn 0.8315 0.0000 0.5556
vn 0.5556 0.0000 0.8315
vn 0.1951 0.0000 0.9808
vn -0.1951 0.0000 0.9808
vn -0.5556 0.0000 0.8315
vn -0.8315 0.0000 0.5556
vn -0.9808 0.0000 0.1951
vn -0.9808 0.0000 -0.1951
vn -0.8315 0.0000 -0.5556
vn -0.5556 0.0000 -0.8315
vn -0.1951 0.0000 -0.9808
vn 0.1951 0.0000 -0.9808
vn 0.5556 0.0000 -0.8315
vn 0.8315 0.0000 -0.5556
vn 0.9808 0.0000 -0.1951
vn 0.0000 -1.0000 0.0000
vn 0.0000 -1.0000 0.0000
vn 0.0000 -1.0000 0.0000
vn 0.0000 -1.0000 0.0000
vn 0.0000 -1.0000 0.0000
vn 0.0000 -1.0000 0.0000
vn 0.0000 -1.0000 0.0000
vn 0.0000 -1.0000 0.0000
vn 0.0000 -1.0000 0.0000
vn 0.0000 -1.0000 0.0000
vn 0.0000 -1.0000 0.0000
vn 0.0000 -1.0000 0.0000
vn 0.0000 -1.0000 0.0000
vn 0.0000 -1.0000 0.0000
vn 0.0000 -1.0000 0.0000
vn 0.0000 -1.0000 0.0000
vn 0.0000 1.0000 0.0000
vn 0.0000 1.0000 0.0000
vn 0.0000 1.0000 0.0000
vn 0.0000 1.0000 0.0000
vn 0.0000 1.0000 0.0000
vn 0.0000 1.0000 0.0000
vn 0.0000 1.0000 0.0000
vn 0.0000 1.0000 0.0000
vn 0.0000 1.0000 0.0000
vn 0.0000 1.0000 0.0000
vn 0.0000 1.0000 0.0000
vn 0.0000 1.0000 0.0000
vn 0.0000 1.0000 0.0000
vn 0.0000 1.0000 0.0000
vn 0.0000 1.0000 0.0000
vn 0.0000 1.0000 0.0000
vn 0.0000 0.0000 1.0000
vn 0.0000 0.0000 -1.0000
vn -1.0000 0.0000 0.0000
vn 1.0000 0.0000 0.0000
vn 0.0000 1.0000 0.0000
vn 0.0000 -1.0000 0.0000
vn 0.0000 0.0000 1.0000
vn 0.0000 0.0000 -1.0000
vn -1.0000 0.0000 0.0000
vn 1.0000 0.0000 0.0000
vn 0.0000 1.0000 0.0000
vn 0.0000 -1.0000 0.0000
g MAT_MetalPanels
usemtl MAT_MetalPanels
f 1/1/1 2/2/1 3/3/1 4/4/1
f 5/5/2 6/6/2 7/7/2 8/8/2
f 9/9/3 10/10/3 11/11/3 12/12/3
f 13/13/4 14/14/4 15/15/4 16/16/4
f 17/17/5 18/18/5 19/19/5 20/20/5
f 21/21/6 22/22/6 23/23/6 24/24/6
f 25/25/7 26/26/7 27/27/7 28/28/7
f 29/29/8 30/30/8 31/31/8 32/32/8
f 33/33/9 34/34/9 35/35/9 36/36/9
f 37/37/10 38/38/10 39/39/10 40/40/10
f 41/41/11 42/42/11 43/43/11 44/44/11
f 45/45/12 46/46/12 47/47/12 48/48/12
f 49/49/13 50/50/13 51/51/13 52/52/13
f 53/53/14 54/54/14 55/55/14 56/56/14
f 57/57/15 58/58/15 59/59/15 60/60/15
f 61/61/16 62/62/16 63/63/16 64/64/16
f 65/65/17 66/66/17 67/67/17 68/68/17
f 69/69/18 70/70/18 71/71/18 72/72/18
f 73/73/19 74/74/19 75/75/19 76/76/19
f 77/77/20 78/78/20 79/79/20 80/80/20
f 81/81/21 82/82/21 83/83/21 84/84/21
f 85/85/22 86/86/22 87/87/22 88/88/22
f 89/89/23 90/90/23 91/91/23
f 92/92/24 93/93/24 94/94/24
f 95/95/25 96/96/25 97/97/25
f 98/98/26 99/99/26 100/100/26
f 101/101/27 102/102/27 103/103/27
f 104/104/28 105/105/28 106/106/28
f 107/107/29 108/108/29 109/109/29
f 110/110/30 111/111/30 112/112/30
f 113/113/31 114/114/31 115/115/31
f 116/116/32 117/117/32 118/118/32
f 119/119/33 120/120/33 121/121/33
f 122/122/34 123/123/34 124/124/34
f 125/125/35 126/126/35 127/127/35
f 128/128/36 129/129/36 130/130/36
f 131/131/37 132/132/37 133/133/37
f 134/134/38 135/135/38 136/136/38
f 137/137/39 138/138/39 139/139/39
f 140/140/40 141/141/40 142/142/40
f 143/143/41 144/144/41 145/145/41
f 146/146/42 147/147/42 148/148/42
f 149/149/43 150/150/43 151/151/43
f 152/152/44 153/153/44 154/154/44
f 155/155/45 156/156/45 157/157/45
f 158/158/46 159/159/46 160/160/46
f 161/161/47 162/162/47 163/163/47
f 164/164/48 165/165/48 166/166/48
f 167/167/49 168/168/49 169/169/49
f 170/170/50 171/171/50 172/172/50
f 173/173/51 174/174/51 175/175/51
f 176/176/52 177/177/52 178/178/52
f 179/179/53 180/180/53 181/181/53
f 182/182/54 183/183/54 184/184/54
g MAT_PanelLight
usemtl MAT_PanelLight
f 185/185/55 186/186/55 187/187/55 188/188/55
f 189/189/56 190/190/56 191/191/56 192/192/56
f 193/193/57 194/194/57 195/195/57 196/196/57
f 197/197/58 198/198/58 199/199/58 200/200/58
f 201/201/59 202/202/59 203/203/59 204/204/59
f 205/205/60 206/206/60 207/207/60 208/208/60
f 209/209/61 210/210/61 211/211/61 212/212/61
f 213/213/62 214/214/62 215/215/62 216/216/62
f 217/217/63 218/218/63 219/219/63 220/220/63
f 221/221/64 222/222/64 223/223/64 224/224/64
f 225/225/65 226/226/65 227/227/65 228/228/65
f 229/229/66 230/230/66 231/231/66 232/232/66
f 233/233/67 234/234/67 235/235/67 236/236/67
f 237/237/68 238/238/68 239/239/68 240/240/68
f 241/241/69 242/242/69 243/243/69 244/244/69
f 245/245/70 246/246/70 247/247/70 248/248/70
f 249/249/71 250/250/71 251/251/71
f 252/252/72 253/253/72 254/254/72
f 255/255/73 256/256/73 257/257/73
f 258/258/74 259/259/74 260/260/74
f 261/261/75 262/262/75 263/263/75
f 264/264/76 265/265/76 266/266/76
f 267/267/77 268/268/77 269/269/77
f 270/270/78 271/271/78 272/272/78
f 273/273/79 274/274/79 275/275/79
f 276/276/80 277/277/80 278/278/80
f 279/279/81 280/280/81 281/281/81
f 282/282/82 283/283/82 284/284/82
f 285/285/83 286/286/83 287/287/83
f 288/288/84 289/289/84 290/290/84
f 291/291/85 292/292/85 293/293/85
f 294/294/86 295/295/86 296/296/86
f 297/297/87 298/298/87 299/299/87
f 300/300/88 301/301/88 302/302/88
f 303/303/89 304/304/89 305/305/89
f 306/306/90 307/307/90 308/308/90
f 309/309/91 310/310/91 311/311/91
f 312/312/92 313/313/92 314/314/92
f 315/315/93 316/316/93 317/317/93
f 318/318/94 319/319/94 320/320/94
f 321/321/95 322/322/95 323/323/95
f 324/324/96 325/325/96 326/326/96
f 327/327/97 328/328/97 329/329/97
f 330/330/98 331/331/98 332/332/98
f 333/333/99 334/334/99 335/335/99
f 336/336/100 337/337/100 338/338/100
f 339/339/101 340/340/101 341/341/101
f 342/342/102 343/343/102 344/344/102
f 505/505/151 506/506/151 507/507/151 508/508/151
f 509/509/152 510/510/152 511/511/152 512/512/152
f 513/513/153 514/514/153 515/515/153 516/516/153
f 517/517/154 518/518/154 519/519/154 520/520/154
f 521/521/155 522/522/155 523/523/155 524/524/155
f 525/525/156 526/526/156 527/527/156 528/528/156
f 529/529/157 530/530/157 531/531/157 532/532/157
f 533/533/158 534/534/158 535/535/158 536/536/158
f 537/537/159 538/538/159 539/539/159 540/540/159
f 541/541/160 542/542/160 543/543/160 544/544/160
f 545/545/161 546/546/161 547/547/161 548/548/161
f 549/549/162 550/550/162 551/551/162 552/552/162
g MAT_FilterChemical
usemtl MAT_FilterChemical
f 345/345/103 346/346/103 347/347/103 348/348/103
f 349/349/104 350/350/104 351/351/104 352/352/104
f 353/353/105 354/354/105 355/355/105 356/356/105
f 357/357/106 358/358/106 359/359/106 360/360/106
f 361/361/107 362/362/107 363/363/107 364/364/107
f 365/365/108 366/366/108 367/367/108 368/368/108
f 369/369/109 370/370/109 371/371/109 372/372/109
f 373/373/110 374/374/110 375/375/110 376/376/110
f 377/377/111 378/378/111 379/379/111 380/380/111
f 381/381/112 382/382/112 383/383/112 384/384/112
f 385/385/113 386/386/113 387/387/113 388/388/113
f 389/389/114 390/390/114 391/391/114 392/392/114
f 393/393/115 394/394/115 395/395/115 396/396/115
f 397/397/116 398/398/116 399/399/116 400/400/116
f 401/401/117 402/402/117 403/403/117 404/404/117
f 405/405/118 406/406/118 407/407/118 408/408/118
f 409/409/119 410/410/119 411/411/119
f 412/412/120 413/413/120 414/414/120
f 415/415/121 416/416/121 417/417/121
f 418/418/122 419/419/122 420/420/122
f 421/421/123 422/422/123 423/423/123
f 424/424/124 425/425/124 426/426/124
f 427/427/125 428/428/125 429/429/125
f 430/430/126 431/431/126 432/432/126
f 433/433/127 434/434/127 435/435/127
f 436/436/128 437/437/128 438/438/128
f 439/439/129 440/440/129 441/441/129
f 442/442/130 443/443/130 444/444/130
f 445/445/131 446/446/131 447/447/131
f 448/448/132 449/449/132 450/450/132
f 451/451/133 452/452/133 453/453/133
f 454/454/134 455/455/134 456/456/134
f 457/457/135 458/458/135 459/459/135
f 460/460/136 461/461/136 462/462/136
f 463/463/137 464/464/137 465/465/137
f 466/466/138 467/467/138 468/468/138
f 469/469/139 470/470/139 471/471/139
f 472/472/140 473/473/140 474/474/140
f 475/475/141 476/476/141 477/477/141
f 478/478/142 479/479/142 480/480/142
f 481/481/143 482/482/143 483/483/143
f 484/484/144 485/485/144 486/486/144
f 487/487/145 488/488/145 489/489/145
f 490/490/146 491/491/146 492/492/146
f 493/493/147 494/494/147 495/495/147
f 496/496/148 497/497/148 498/498/148
f 499/499/149 500/500/149 501/501/149
f 502/502/150 503/503/150 504/504/150
