# PROP_FilterChemical - procedurally generated, CC0
v 0.09000 0.02000 0.00000
v 0.09000 0.26000 0.00000
v 0.08315 0.26000 0.03444
v 0.08315 0.02000 0.03444
v 0.08315 0.02000 0.03444
v 0.08315 0.26000 0.03444
v 0.06364 0.26000 0.06364
v 0.06364 0.02000 0.06364
v 0.06364 0.02000 0.06364
v 0.06364 0.26000 0.06364
v 0.03444 0.26000 0.08315
v 0.03444 0.02000 0.08315
v 0.03444 0.02000 0.08315
v 0.03444 0.26000 0.08315
v 0.00000 0.26000 0.09000
v 0.00000 0.02000 0.09000
v 0.00000 0.02000 0.09000
v 0.00000 0.26000 0.09000
v -0.03444 0.26000 0.08315
v -0.03444 0.02000 0.08315
v -0.03444 0.02000 0.08315
v -0.03444 0.26000 0.08315
v -0.06364 0.26000 0.06364
v -0.06364 0.02000 0.06364
v -0.06364 0.02000 0.06364
v -0.06364 0.26000 0.06364
v -0.08315 0.26000 0.03444
v -0.08315 0.02000 0.03444
v -0.08315 0.02000 0.03444
v -0.08315 0.26000 0.03444
v -0.09000 0.26000 0.00000
v -0.09000 0.02000 0.00000
v -0.09000 0.02000 0.00000
v -0.09000 0.26000 0.00000
v -0.08315 0.26000 -0.03444
v -0.08315 0.02000 -0.03444
v -0.08315 0.02000 -0.03444
v -0.08315 0.26000 -0.03444
v -0.06364 0.26000 -0.06364
v -0.06364 0.02000 -0.06364
v -0.06364 0.02000 -0.06364
v -0.06364 0.26000 -0.06364
v -0.03444 0.26000 -0.08315
v -0.03444 0.02000 -0.08315
v -0.03444 0.02000 -0.08315
v -0.03444 0.26000 -0.08315
v -0.00000 0.26000 -0.09000
v -0.00000 0.02000 -0.09000
v -0.00000 0.02000 -0.09000
v -0.00000 0.26000 -0.09000
v 0.03444 0.26000 -0.08315
v 0.03444 0.02000 -0.08315
v 0.03444 0.02000 -0.08315
v 0.03444 0.26000 -0.08315
v 0.06364 0.26000 -0.06364
v 0.06364 0.02000 -0.06364
v 0.06364 0.02000 -0.06364
v 0.06364 0.26000 -0.06364
v 0.08315 0.26000 -0.03444
v 0.08315 0.02000 -0.03444
v 0.08315 0.02000 -0.03444
v 0.08315 0.26000 -0.03444
v 0.09000 0.26000 -0.00000
v 0.09000 0.02000 -0.00000
v 0.00000 0.02000 0.00000
v 0.09000 0.02000 0.00000
v 0.08315 0.02000 0.03444
v 0.00000 0.02000 0.00000
v 0.08315 0.02000 0.03444
v 0.06364 0.02000 0.06364
v 0.00000 0.02000 0.00000
v 0.06364 0.02000 0.06364
v 0.03444 0.02000 0.08315
v 0.00000 0.02000 0.00000
v 0.03444 0.02000 0.08315
v 0.00000 0.02000 0.09000
v 0.00000 0.02000 0.00000
v 0.00000 0.02000 0.09000
v -0.03444 0.02000 0.08315
v 0.00000 0.02000 0.00000
v -0.03444 0.02000 0.08315
v -0.06364 0.02000 0.06364
v 0.00000 0.02000 0.00000
v -0.06364 0.02000 0.06364
v -0.08315 0.02000 0.03444
v 0.00000 0.02000 0.00000
v -0.08315 0.02000 0.03444
v -0.09000 0.02000 0.00000
v 0.00000 0.02000 0.00000
v -0.09000 0.02000 0.00000
v -0.08315 0.02000 -0.03444
v 0.00000 0.02000 0.00000
v -0.08315 0.02000 -0.03444
v -0.06364 0.02000 -0.06364
v 0.00000 0.02000 0.00000
v -0.06364 0.02000 -0.06364
v -0.03444 0.02000 -0.08315
v 0.00000 0.02000 0.00000
v -0.03444 0.02000 -0.08315
v -0.00000 0.02000 -0.09000
v 0.00000 0.02000 0.00000
v -0.00000 0.02000 -0.09000
v 0.03444 0.02000 -0.08315
v 0.00000 0.02000 0.00000
v 0.03444 0.02000 -0.08315
v 0.06364 0.02000 -0.06364
v 0.00000 0.02000 0.00000
v 0.06364 0.02000 -0.06364
v 0.08315 0.02000 -0.03444
v 0.00000 0.02000 0.00000
v 0.08315 0.02000 -0.03444
v 0.09000 0.02000 -0.00000
v 0.00000 0.26000 0.00000
v 0.08315 0.26000 0.03444
v 0.09000 0.26000 0.00000
v 0.00000 0.26000 0.00000
v 0.06364 0.26000 0.06364
v 0.08315 0.26000 0.03444
v 0.00000 0.26000 0.00000
v 0.03444 0.26000 0.08315
v 0.06364 0.26000 0.06364
v 0.00000 0.26000 0.00000
v 0.00000 0.26000 0.09000
v 0.03444 0.26000 0.08315
v 0.00000 0.26000 0.00000
v -0.03444 0.26000 0.08315
v 0.00000 0.26000 0.09000
v 0.00000 0.26000 0.00000
v -0.06364 0.26000 0.06364
v -0.03444 0.26000 0.08315
v 0.00000 0.26000 0.00000
v -0.08315 0.26000 0.03444
v -0.06364 0.26000 0.06364
v 0.00000 0.26000 0.00000
v -0.09000 0.26000 0.00000
v -0.08315 0.26000 0.03444
v 0.00000 0.26000 0.00000
v -0.08315 0.26000 -0.03444
v -0.09000 0.26000 0.00000
v 0.00000 0.26000 0.00000
v -0.06364 0.26000 -0.06364
v -0.08315 0.26000 -0.03444
v 0.00000 0.26000 0.00000
v -0.03444 0.26000 -0.08315
v -0.06364 0.26000 -0.06364
v 0.00000 0.26000 0.00000
v -0.00000 0.26000 -0.09000
v -0.03444 0.26000 -0.08315
v 0.00000 0.26000 0.00000
v 0.03444 0.26000 -0.08315
v -0.00000 0.26000 -0.09000
v 0.00000 0.26000 0.00000
v 0.06364 0.26000 -0.06364
v 0.03444 0.26000 -0.08315
v 0.00000 0.26000 0.00000
v 0.08315 0.26000 -0.03444
v 0.06364 0.26000 -0.06364
v 0.00000 0.26000 0.00000
v 0.09000 0.26000 -0.00000
v 0.08315 0.26000 -0.03444
v 0.09500 0.00000 0.00000
v 0.09500 0.04000 0.00000
v 0.08777 0.04000 0.03635
v 0.08777 0.00000 0.03635
v 0.08777 0.00000 0.03635
v 0.08777 0.04000 0.03635
v 0.06718 0.04000 0.06718
v 0.06718 0.00000 0.06718
v 0.06718 0.00000 0.06718
v 0.06718 0.04000 0.06718
v 0.03635 0.04000 0.08777
v 0.03635 0.00000 0.08777
v 0.03635 0.00000 0.08777
v 0.03635 0.04000 0.08777
v 0.00000 0.04000 0.09500
v 0.00000 0.00000 0.09500
v 0.00000 0.00000 0.09500
v 0.00000 0.04000 0.09500
v -0.03635 0.04000 0.08777
v -0.03635 0.00000 0.08777
v -0.03635 0.00000 0.08777
v -0.03635 0.04000 0.08777
v -0.06718 0.04000 0.06718
v -0.06718 0.00000 0.06718
v -0.06718 0.00000 0.06718
v -0.06718 0.04000 0.06718
v -0.08777 0.04000 0.03635
v -0.08777 0.00000 0.03635
v -0.08777 0.00000 0.03635
v -0.08777 0.04000 0.03635
v -0.09500 0.04000 0.00000
v -0.09500 0.00000 0.00000
v -0.09500 0.00000 0.00000
v -0.09500 0.04000 0.00000
v -0.08777 0.04000 -0.03635
v -0.08777 0.00000 -0.03635
v -0.08777 0.00000 -0.03635
v -0.08777 0.04000 -0.03635
v -0.06718 0.04000 -0.06718
v -0.06718 0.00000 -0.06718
v -0.06718 0.00000 -0.06718
v -0.06718 0.04000 -0.06718
v -0.03635 0.04000 -0.08777
v -0.03635 0.00000 -0.08777
v -0.03635 0.00000 -0.08777
v -0.03635 0.04000 -0.08777
v -0.00000 0.04000 -0.09500
v -0.00000 0.00000 -0.09500
v -0.00000 0.00000 -0.09500
v -0.00000 0.04000 -0.09500
v 0.03635 0.04000 -0.08777
v 0.03635 0.00000 -0.08777
v 0.03635 0.00000 -0.08777
v 0.03635 0.04000 -0.08777
v 0.06718 0.04000 -0.06718
v 0.06718 0.00000 -0.06718
v 0.06718 0.00000 -0.06718
v 0.06718 0.04000 -0.06718
v 0.08777 0.04000 -0.03635
v 0.08777 0.00000 -0.03635
v 0.08777 0.00000 -0.03635
v 0.08777 0.04000 -0.03635
v 0.09500 0.04000 -0.00000
v 0.09500 0.00000 -0.00000
v 0.00000 0.00000 0.00000
v 0.09500 0.00000 0.00000
v 0.08777 0.00000 0.03635
v 0.00000 0.00000 0.00000
v 0.08777 0.00000 0.03635
v 0.06718 0.00000 0.06718
v 0.00000 0.00000 0.00000
v 0.06718 0.00000 0.06718
v 0.03635 0.00000 0.08777
v 0.00000 0.00000 0.00000
v 0.03635 0.00000 0.08777
v 0.00000 0.00000 0.09500
v 0.00000 0.00000 0.00000
v 0.00000 0.00000 0.09500
v -0.03635 0.00000 0.08777
v 0.00000 0.00000 0.00000
v -0.03635 0.00000 0.08777
v -0.06718 0.00000 0.06718
v 0.00000 0.00000 0.00000
v -0.06718 0.00000 0.06718
v -0.08777 0.00000 0.03635
v 0.00000 0.00000 0.00000
v -0.08777 0.00000 0.03635
v -0.09500 0.00000 0.00000
v 0.00000 0.00000 0.00000
v -0.09500 0.00000 0.00000
v -0.08777 0.00000 -0.03635
v 0.00000 0.00000 0.00000
v -0.08777 0.00000 -0.03635
v -0.06718 0.00000 -0.06718
v 0.00000 0.00000 0.00000
v -0.06718 0.00000 -0.06718
v -0.03635 0.00000 -0.08777
v 0.00000 0.00000 0.00000
v -0.03635 0.00000 -0.08777
v -0.00000 0.00000 -0.09500
v 0.00000 0.00000 0.00000
v -0.00000 0.00000 -0.09500
v 0.03635 0.00000 -0.08777
v 0.00000 0.00000 0.00000
v 0.03635 0.00000 -0.08777
v 0.06718 0.00000 -0.06718
v 0.00000 0.00000 0.00000
v 0.06718 0.00000 -0.06718
v 0.08777 0.00000 -0.03635
v 0.00000 0.00000 0.00000
v 0.08777 0.00000 -0.03635
v 0.09500 0.00000 -0.00000
v 0.00000 0.04000 0.00000
v 0.08777 0.04000 0.03635
v 0.09500 0.04000 0.00000
v 0.00000 0.04000 0.00000
v 0.06718 0.04000 0.06718
v 0.08777 0.04000 0.03635
v 0.00000 0.04000 0.00000
v 0.03635 0.04000 0.08777
v 0.06718 0.04000 0.06718
v 0.00000 0.04000 0.00000
v 0.00000 0.04000 0.09500
v 0.03635 0.04000 0.08777
v 0.00000 0.04000 0.00000
v -0.03635 0.04000 0.08777
v 0.00000 0.04000 0.09500
v 0.00000 0.04000 0.00000
v -0.06718 0.04000 0.06718
v -0.03635 0.04000 0.08777
v 0.00000 0.04000 0.00000
v -0.08777 0.04000 0.03635
v -0.06718 0.04000 0.06718
v 0.00000 0.04000 0.00000
v -0.09500 0.04000 0.00000
v -0.08777 0.04000 0.03635
v 0.00000 0.04000 0.00000
v -0.08777 0.04000 -0.03635
v -0.09500 0.04000 0.00000
v 0.00000 0.04000 0.00000
v -0.06718 0.04000 -0.06718
v -0.08777 0.04000 -0.03635
v 0.00000 0.04000 0.00000
v -0.03635 0.04000 -0.08777
v -0.06718 0.04000 -0.06718
v 0.00000 0.04000 0.00000
v -0.00000 0.04000 -0.09500
v -0.03635 0.04000 -0.08777
v 0.00000 0.04000 0.00000
v 0.03635 0.04000 -0.08777
v -0.00000 0.04000 -0.09500
v 0.00000 0.04000 0.00000
v 0.06718 0.04000 -0.06718
v 0.03635 0.04000 -0.08777
v 0.00000 0.04000 0.00000
v 0.08777 0.04000 -0.03635
v 0.06718 0.04000 -0.06718
v 0.00000 0.04000 0.00000
v 0.09500 0.04000 -0.00000
v 0.08777 0.04000 -0.03635
v 0.09500 0.24000 0.00000
v 0.09500 0.28000 0.00000
v 0.08777 0.28000 0.03635
v 0.08777 0.24000 0.03635
v 0.08777 0.24000 0.03635
v 0.08777 0.28000 0.03635
v 0.06718 0.28000 0.06718
v 0.06718 0.24000 0.06718
v 0.06718 0.24000 0.06718
v 0.06718 0.28000 0.06718
v 0.03635 0.28000 0.08777
v 0.03635 0.24000 0.08777
v 0.03635 0.24000 0.08777
v 0.03635 0.28000 0.08777
v 0.00000 0.28000 0.09500
v 0.00000 0.24000 0.09500
v 0.00000 0.24000 0.09500
v 0.00000 0.28000 0.09500
v -0.03635 0.28000 0.08777
v -0.03635 0.24000 0.08777
v -0.03635 0.24000 0.08777
v -0.03635 0.28000 0.08777
v -0.06718 0.28000 0.06718
v -0.06718 0.24000 0.06718
v -0.06718 0.24000 0.06718
v -0.06718 0.28000 0.06718
v -0.08777 0.28000 0.03635
v -0.08777 0.24000 0.03635
v -0.08777 0.24000 0.03635
v -0.08777 0.28000 0.03635
v -0.09500 0.28000 0.00000
v -0.09500 0.24000 0.00000
v -0.09500 0.24000 0.00000
v -0.09500 0.28000 0.00000
v -0.08777 0.28000 -0.03635
v -0.08777 0.24000 -0.03635
v -0.08777 0.24000 -0.03635
v -0.08777 0.28000 -0.03635
v -0.06718 0.28000 -0.06718
v -0.06718 0.24000 -0.06718
v -0.06718 0.24000 -0.06718
v -0.06718 0.28000 -0.06718
v -0.03635 0.28000 -0.08777
v -0.03635 0.24000 -0.08777
v -0.03635 0.24000 -0.08777
v -0.03635 0.28000 -0.08777
v -0.00000 0.28000 -0.09500
v -0.00000 0.24000 -0.09500
v -0.00000 0.24000 -0.09500
v -0.00000 0.28000 -0.09500
v 0.03635 0.28000 -0.08777
v 0.03635 0.24000 -0.08777
v 0.03635 0.24000 -0.08777
v 0.03635 0.28000 -0.08777
v 0.06718 0.28000 -0.06718
v 0.06718 0.24000 -0.06718
v 0.06718 0.24000 -0.06718
v 0.06718 0.28000 -0.06718
v 0.08777 0.28000 -0.03635
v 0.08777 0.24000 -0.03635
v 0.08777 0.24000 -0.03635
v 0.08777 0.28000 -0.03635
v 0.09500 0.28000 -0.00000
v 0.09500 0.24000 -0.00000
v 0.00000 0.24000 0.00000
v 0.09500 0.24000 0.00000
v 0.08777 0.24000 0.03635
v 0.00000 0.24000 0.00000
v 0.08777 0.24000 0.03635
v 0.06718 0.24000 0.06718
v 0.00000 0.24000 0.00000
v 0.06718 0.24000 0.06718
v 0.03635 0.24000 0.08777
v 0.00000 0.24000 0.00000
v 0.03635 0.24000 0.08777
v 0.00000 0.24000 0.09500
v 0.00000 0.24000 0.00000
v 0.00000 0.24000 0.09500
v -0.03635 0.24000 0.08777
v 0.00000 0.24000 0.00000
v -0.03635 0.24000 0.08777
v -0.06718 0.24000 0.06718
v 0.00000 0.24000 0.00000
v -0.06718 0.24000 0.06718
v -0.08777 0.24000 0.03635
v 0.00000 0.24000 0.00000
v -0.08777 0.24000 0.03635
v -0.09500 0.24000 0.00000
v 0.00000 0.24000 0.00000
v -0.09500 0.24000 0.00000
v -0.08777 0.24000 -0.03635
v 0.00000 0.24000 0.00000
v -0.08777 0.24000 -0.03635
v -0.06718 0.24000 -0.06718
v 0.00000 0.24000 0.00000
v -0.06718 0.24000 -0.06718
v -0.03635 0.24000 -0.08777
v 0.00000 0.24000 0.00000
v -0.03635 0.24000 -0.08777
v -0.00000 0.24000 -0.09500
v 0.00000 0.24000 0.00000
v -0.00000 0.24000 -0.09500
v 0.03635 0.24000 -0.08777
v 0.00000 0.24000 0.00000
v 0.03635 0.24000 -0.08777
v 0.06718 0.24000 -0.06718
v 0.00000 0.24000 0.00000
v 0.06718 0.24000 -0.06718
v 0.08777 0.24000 -0.03635
v 0.00000 0.24000 0.00000
v 0.08777 0.24000 -0.03635
v 0.09500 0.24000 -0.00000
v 0.00000 0.28000 0.00000
v 0.08777 0.28000 0.03635
v 0.09500 0.28000 0.00000
v 0.00000 0.28000 0.00000
v 0.06718 0.28000 0.06718
v 0.08777 0.28000 0.03635
v 0.00000 0.28000 0.00000
v 0.03635 0.28000 0.08777
v 0.06718 0.28000 0.06718
v 0.00000 0.28000 0.00000
v 0.00000 0.28000 0.09500
v 0.03635 0.28000 0.08777
v 0.00000 0.28000 0.00000
v -0.03635 0.28000 0.08777
v 0.00000 0.28000 0.09500
v 0.00000 0.28000 0.00000
v -0.06718 0.28000 0.06718
v -0.03635 0.28000 0.08777
v 0.00000 0.28000 0.00000
v -0.08777 0.28000 0.03635
v -0.06718 0.28000 0.06718
v 0.00000 0.28000 0.00000
v -0.09500 0.28000 0.00000
v -0.08777 0.28000 0.03635
v 0.00000 0.28000 0.00000
v -0.08777 0.28000 -0.03635
v -0.09500 0.28000 0.00000
v 0.00000 0.28000 0.00000
v -0.06718 0.28000 -0.06718
v -0.08777 0.28000 -0.03635
v 0.00000 0.28000 0.00000
v -0.03635 0.28000 -0.08777
v -0.06718 0.28000 -0.06718
v 0.00000 0.28000 0.00000
v -0.00000 0.28000 -0.09500
v -0.03635 0.28000 -0.08777
v 0.00000 0.28000 0.00000
v 0.03635 0.28000 -0.08777
v -0.00000 0.28000 -0.09500
v 0.00000 0.28000 0.00000
v 0.06718 0.28000 -0.06718
v 0.03635 0.28000 -0.08777
v 0.00000 0.28000 0.00000
v 0.08777 0.28000 -0.03635
v 0.06718 0.28000 -0.06718
v 0.00000 0.28000 0.00000
v 0.09500 0.28000 -0.00000
v 0.08777 0.28000 -0.03635
v 0.09200 0.09000 0.00000
v 0.09200 0.19000 0.00000
v 0.08500 0.19000 0.03521
v 0.08500 0.09000 0.03521
v 0.08500 0.09000 0.03521
v 0.08500 0.19000 0.03521
v 0.06505 0.19000 0.06505
v 0.06505 0.09000 0.06505
v 0.06505 0.09000 0.06505
v 0.06505 0.19000 0.06505
v 0.03521 0.19000 0.08500
v 0.03521 0.09000 0.08500
v 0.03521 0.09000 0.08500
v 0.03521 0.19000 0.08500
v 0.00000 0.19000 0.09200
v 0.00000 0.09000 0.09200
v 0.00000 0.09000 0.09200
v 0.00000 0.19000 0.09200
v -0.03521 0.19000 0.08500
v -0.03521 0.09000 0.08500
v -0.03521 0.09000 0.08500
v -0.03521 0.19000 0.08500
v -0.06505 0.19000 0.06505
v -0.06505 0.09000 0.06505
v -0.06505 0.09000 0.06505
v -0.06505 0.19000 0.06505
v -0.08500 0.19000 0.03521
v -0.08500 0.09000 0.03521
v -0.08500 0.09000 0.03521
v -0.08500 0.19000 0.03521
v -0.09200 0.19000 0.00000
v -0.09200 0.09000 0.00000
v -0.09200 0.09000 0.00000
v -0.09200 0.19000 0.00000
v -0.08500 0.19000 -0.03521
v -0.08500 0.09000 -0.03521
v -0.08500 0.09000 -0.03521
v -0.08500 0.19000 -0.03521
v -0.06505 0.19000 -0.06505
v -0.06505 0.09000 -0.06505
v -0.06505 0.09000 -0.06505
v -0.06505 0.19000 -0.06505
v -0.03521 0.19000 -0.08500
v -0.03521 0.09000 -0.08500
v -0.03521 0.09000 -0.08500
v -0.03521 0.19000 -0.08500
v -0.00000 0.19000 -0.09200
v -0.00000 0.09000 -0.09200
v -0.00000 0.09000 -0.09200
v -0.00000 0.19000 -0.09200
v 0.03521 0.19000 -0.08500
v 0.03521 0.09000 -0.08500
v 0.03521 0.09000 -0.08500
v 0.03521 0.19000 -0.08500
v 0.06505 0.19000 -0.06505
v 0.06505 0.09000 -0.06505
v 0.06505 0.09000 -0.06505
v 0.06505 0.19000 -0.06505
v 0.08500 0.19000 -0.03521
v 0.08500 0.09000 -0.03521
v 0.08500 0.09000 -0.03521
v 0.08500 0.19000 -0.03521
v 0.09200 0.19000 -0.00000
v 0.09200 0.09000 -0.00000
v 0.00000 0.09000 0.00000
v 0.09200 0.09000 0.00000
v 0.08500 0.09000 0.03521
v 0.00000 0.09000 0.00000
v 0.08500 0.09000 0.03521
v 0.06505 0.09000 0.06505
v 0.00000 0.09000 0.00000
v 0.06505 0.09000 0.06505
v 0.03521 0.09000 0.08500
v 0.00000 0.09000 0.00000
v 0.03521 0.09000 0.08500
v 0.00000 0.09000 0.09200
v 0.00000 0.09000 0.00000
v 0.00000 0.09000 0.09200
v -0.03521 0.09000 0.08500
v 0.00000 0.09000 0.00000
v -0.03521 0.09000 0.08500
v -0.06505 0.09000 0.06505
v 0.00000 0.09000 0.00000
v -0.06505 0.09000 0.06505
v -0.08500 0.09000 0.03521
v 0.00000 0.09000 0.00000
v -0.08500 0.09000 0.03521
v -0.09200 0.09000 0.00000
v 0.00000 0.09000 0.00000
v -0.09200 0.09000 0.00000
v -0.08500 0.09000 -0.03521
v 0.00000 0.09000 0.00000
v -0.08500 0.09000 -0.03521
v -0.06505 0.09000 -0.06505
v 0.00000 0.09000 0.00000
v -0.06505 0.09000 -0.06505
v -0.03521 0.09000 -0.08500
v 0.00000 0.09000 0.00000
v -0.03521 0.09000 -0.08500
v -0.00000 0.09000 -0.09200
v 0.00000 0.09000 0.00000
v -0.00000 0.09000 -0.09200
v 0.03521 0.09000 -0.08500
v 0.00000 0.09000 0.00000
v 0.03521 0.09000 -0.08500
v 0.06505 0.09000 -0.06505
v 0.00000 0.09000 0.00000
v 0.06505 0.09000 -0.06505
v 0.08500 0.09000 -0.03521
v 0.00000 0.09000 0.00000
v 0.08500 0.09000 -0.03521
v 0.09200 0.09000 -0.00000
v 0.00000 0.19000 0.00000
v 0.08500 0.19000 0.03521
v 0.09200 0.19000 0.00000
v 0.00000 0.19000 0.00000
v 0.06505 0.19000 0.06505
v 0.08500 0.19000 0.03521
v 0.00000 0.19000 0.00000
v 0.03521 0.19000 0.08500
v 0.06505 0.19000 0.06505
v 0.00000 0.19000 0.00000
v 0.00000 0.19000 0.09200
v 0.03521 0.19000 0.08500
v 0.00000 0.19000 0.00000
v -0.03521 0.19000 0.08500
v 0.00000 0.19000 0.09200
v 0.00000 0.19000 0.00000
v -0.06505 0.19000 0.06505
v -0.03521 0.19000 0.08500
v 0.00000 0.19000 0.00000
v -0.08500 0.19000 0.03521
v -0.06505 0.19000 0.06505
v 0.00000 0.19000 0.00000
v -0.09200 0.19000 0.00000
v -0.08500 0.19000 0.03521
v 0.00000 0.19000 0.00000
v -0.08500 0.19000 -0.03521
v -0.09200 0.19000 0.00000
v 0.00000 0.19000 0.00000
v -0.06505 0.19000 -0.06505
v -0.08500 0.19000 -0.03521
v 0.00000 0.19000 0.00000
v -0.03521 0.19000 -0.08500
v -0.06505 0.19000 -0.06505
v 0.00000 0.19000 0.00000
v -0.00000 0.19000 -0.09200
v -0.03521 0.19000 -0.08500
v 0.00000 0.19000 0.00000
v 0.03521 0.19000 -0.08500
v -0.00000 0.19000 -0.09200
v 0.00000 0.19000 0.00000
v 0.06505 0.19000 -0.06505
v 0.03521 0.19000 -0.08500
v 0.00000 0.19000 0.00000
v 0.08500 0.19000 -0.03521
v 0.06505 0.19000 -0.06505
v 0.00000 0.19000 0.00000
v 0.09200 0.19000 -0.00000
v 0.08500 0.19000 -0.03521
v -0.05000 0.30500 0.01500
v 0.05000 0.30500 0.01500
v 0.05000 0.33500 0.01500
v -0.05000 0.33500 0.01500
v 0.05000 0.30500 -0.01500
v -0.05000 0.30500 -0.01500
v -0.05000 0.33500 -0.01500
v 0.05000 0.33500 -0.01500
v -0.05000 0.30500 -0.01500
v -0.05000 0.30500 0.01500
v -0.05000 0.33500 0.01500
v -0.05000 0.33500 -0.01500
v 0.05000 0.30500 0.01500
v 0.05000 0.30500 -0.01500
v 0.05000 0.33500 -0.01500
v 0.05000 0.33500 0.01500
v -0.05000 0.33500 0.01500
v 0.05000 0.33500 0.01500
v 0.05000 0.33500 -0.01500
v -0.05000 0.33500 -0.01500
v -0.05000 0.30500 -0.01500
v 0.05000 0.30500 -0.01500
v 0.05000 0.30500 0.01500
v -0.05000 0.30500 0.01500
v -0.05000 0.27000 0.01500
v -0.03000 0.27000 0.01500
v -0.03000 0.32000 0.01500
v -0.05000 0.32000 0.01500
v -0.03000 0.27000 -0.01500
v -0.05000 0.27000 -0.01500
v -0.05000 0.32000 -0.01500
v -0.03000 0.32000 -0.01500
v -0.05000 0.27000 -0.01500
v -0.05000 0.27000 0.01500
v -0.05000 0.32000 0.01500
v -0.05000 0.32000 -0.01500
v -0.03000 0.27000 0.01500
v -0.03000 0.27000 -0.01500
v -0.03000 0.32000 -0.01500
v -0.03000 0.32000 0.01500
v -0.05000 0.32000 0.01500
v -0.03000 0.32000 0.01500
v -0.03000 0.32000 -0.01500
v -0.05000 0.32000 -0.01500
v -0.05000 0.27000 -0.01500
v -0.03000 0.27000 -0.01500
v -0.03000 0.27000 0.01500
v -0.05000 0.27000 0.01500
v 0.03000 0.27000 0.01500
v 0.05000 0.27000 0.01500
v 0.05000 0.32000 0.01500
v 0.03000 0.32000 0.01500
v 0.05000 0.27000 -0.01500
v 0.03000 0.27000 -0.01500
v 0.03000 0.32000 -0.01500
v 0.05000 0.32000 -0.01500
v 0.03000 0.27000 -0.01500
v 0.03000 0.27000 0.01500
v 0.03000 0.32000 0.01500
v 0.03000 0.32000 -0.01500
v 0.05000 0.27000 0.01500
v 0.05000 0.27000 -0.01500
v 0.05000 0.32000 -0.01500
v 0.05000 0.32000 0.01500
v 0.03000 0.32000 0.01500
v 0.05000 0.32000 0.01500
v 0.05000 0.32000 -0.01500
v 0.03000 0.32000 -0.01500
v 0.03000 0.27000 -0.01500
v 0.05000 0.27000 -0.01500
v 0.05000 0.27000 0.01500
v 0.03000 0.27000 0.01500
vt 0.0000 0.0000
vt 0.0000 1.0000
vt 0.0625 1.0000
vt 0.0625 0.0000
vt 0.0625 0.0000
vt 0.0625 1.0000
vt 0.1250 1.0000
vt 0.1250 0.0000
vt 0.1250 0.0000
vt 0.1250 1.0000
vt 0.1875 1.0000
vt 0.1875 0.0000
vt 0.1875 0.0000
vt 0.1875 1.0000
vt 0.2500 1.0000
vt 0.2500 0.0000
vt 0.2500 0.0000
vt 0.2500 1.0000
vt 0.3125 1.0000
vt 0.3125 0.0000
vt 0.3125 0.0000
vt 0.3125 1.0000
vt 0.3750 1.0000
vt 0.3750 0.0000
vt 0.3750 0.0000
vt 0.3750 1.0000
vt 0.4375 1.0000
vt 0.4375 0.0000
vt 0.4375 0.0000
vt 0.4375 1.0000
vt 0.5000 1.0000
vt 0.5000 0.0000
vt 0.5000 0.0000
vt 0.5000 1.0000
vt 0.5625 1.0000
vt 0.5625 0.0000
vt 0.5625 0.0000
vt 0.5625 1.0000
vt 0.6250 1.0000
vt 0.6250 0.0000
vt 0.6250 0.0000
vt 0.6250 1.0000
vt 0.6875 1.0000
vt 0.6875 0.0000
vt 0.6875 0.0000
vt 0.6875 1.0000
vt 0.7500 1.0000
vt 0.7500 0.0000
vt 0.7500 0.0000
vt 0.7500 1.0000
vt 0.8125 1.0000
vt 0.8125 0.0000
vt 0.8125 0.0000
vt 0.8125 1.0000
vt 0.8750 1.0000
vt 0.8750 0.0000
vt 0.8750 0.0000
vt 0.8750 1.0000
vt 0.9375 1.0000
vt 0.9375 0.0000
vt 0.9375 0.0000
vt 0.9375 1.0000
vt 1.0000 1.0000
vt 1.0000 0.0000
vt 0.5000 0.5000
vt 0.0000 0.0000
vt 1.0000 0.0000
vt 0.5000 0.5000
vt 0.0000 0.0000
vt 1.0000 0.0000
vt 0.5000 0.5000
vt 0.0000 0.0000
vt 1.0000 0.0000
vt 0.5000 0.5000
vt 0.0000 0.0000
vt 1.0000 0.0000
vt 0.5000 0.5000
vt 0.0000 0.0000
vt 1.0000 0.0000
vt 0.5000 0.5000
vt 0.0000 0.0000
vt 1.0000 0.0000
vt 0.5000 0.5000
vt 0.0000 0.0000
vt 1.0000 0.0000
vt 0.5000 0.5000
vt 0.0000 0.0000
vt 1.0000 0.0000
vt 0.5000 0.5000
vt 0.0000 0.0000
vt 1.0000 0.0000
vt 0.5000 0.5000
vt 0.0000 0.0000
vt 1.0000 0.0000
vt 0.5000 0.5000
vt 0.0000 0.0000
vt 1.0000 0.0000
vt 0.5000 0.5000
vt 0.0000 0.0000
vt 1.0000 0.0000
vt 0.5000 0.5000
vt 0.0000 0.0000
vt 1.0000 0.0000
vt 0.5000 0.5000
vt 0.0000 0.0000
vt 1.0000 0.0000
vt 0.5000 0.5000
vt 0.0000 0.0000
vt 1.0000 0.0000
vt 0.5000 0.5000
vt 0.0000 0.0000
vt 1.0000 0.0000
vt 0.5000 0.5000
vt 0.0000 0.0000
vt 1.0000 0.0000
vt 0.5000 0.5000
vt 0.0000 0.0000
vt 1.0000 0.0000
vt 0.5000 0.5000
vt 0.0000 0.0000
vt 1.0000 0.0000
vt 0.5000 0.5000
vt 0.0000 0.0000
vt 1.0000 0.0000
vt 0.5000 0.5000
vt 0.0000 0.0000
vt 1.0000 0.0000
vt 0.5000 0.5000
vt 0.0000 0.0000
vt 1.0000 0.0000
vt 0.5000 0.5000
vt 0.0000 0.0000
vt 1.0000 0.0000
vt 0.5000 0.5000
vt 0.0000 0.0000
vt 1.0000 0.0000
vt 0.5000 0.5000
vt 0.0000 0.0000
vt 1.0000 0.0000
vt 0.5000 0.5000
vt 0.0000 0.0000
vt 1.0000 0.0000
vt 0.5000 0.5000
vt 0.0000 0.0000
vt 1.0000 0.0000
vt 0.5000 0.5000
vt 0.0000 0.0000
vt 1.0000 0.0000
vt 0.5000 0.5000
vt 0.0000 0.0000
vt 1.0000 0.0000
vt 0.5000 0.5000
vt 0.0000 0.0000
vt 1.0000 0.0000
vt 0.5000 0.5000
vt 0.0000 0.0000
vt 1.0000 0.0000
vt 0.5000 0.5000
vt 0.0000 0.0000
vt 1.0000 0.0000
vt 0.0000 0.0000
vt 0.0000 1.0000
vt 0.0625 1.0000
vt 0.0625 0.0000
vt 0.0625 0.0000
vt 0.0625 1.0000
vt 0.1250 1.0000
vt 0.1250 0.0000
vt 0.1250 0.0000
vt 0.1250 1.0000
vt 0.1875 1.0000
vt 0.1875 0.0000
vt 0.1875 0.0000
vt 0.1875 1.0000
vt 0.2500 1.0000
vt 0.2500 0.0000
vt 0.2500 0.0000
vt 0.2500 1.0000
vt 0.3125 1.0000
vt 0.3125 0.0000
vt 0.3125 0.0000
vt 0.3125 1.0000
vt 0.3750 1.0000
vt 0.3750 0.0000
vt 0.3750 0.0000
vt 0.3750 1.0000
vt 0.4375 1.0000
vt 0.4375 0.0000
vt 0.4375 0.0000
vt 0.4375 1.0000
vt 0.5000 1.0000
vt 0.5000 0.0000
vt 0.5000 0.0000
vt 0.5000 1.0000
vt 0.5625 1.0000
vt 0.5625 0.0000
vt 0.5625 0.0000
vt 0.5625 1.0000
vt 0.6250 1.0000
vt 0.6250 0.0000
vt 0.6250 0.0000
vt 0.6250 1.0000
vt 0.6875 1.0000
vt 0.6875 0.0000
vt 0.6875 0.0000
vt 0.6875 1.0000
vt 0.7500 1.0000
vt 0.7500 0.0000
vt 0.7500 0.0000
vt 0.7500 1.0000
vt 0.8125 1.0000
vt 0.8125 0.0000
vt 0.8125 0.0000
vt 0.8125 1.0000
vt 0.8750 1.0000
vt 0.8750 0.0000
vt 0.8750 0.0000
vt 0.8750 1.0000
vt 0.9375 1.0000
vt 0.9375 0.0000
vt 0.9375 0.0000
vt 0.9375 1.0000
vt 1.0000 1.0000
vt 1.0000 0.0000
vt 0.5000 0.5000
vt 0.0000 0.0000
vt 1.0000 0.0000
vt 0.5000 0.5000
vt 0.0000 0.0000
vt 1.0000 0.0000
vt 0.5000 0.5000
vt 0.0000 0.0000
vt 1.0000 0.0000
vt 0.5000 0.5000
vt 0.0000 0.0000
vt 1.0000 0.0000
vt 0.5000 0.5000
vt 0.0000 0.0000
vt 1.0000 0.0000
vt 0.5000 0.5000
vt 0.0000 0.0000
vt 1.0000 0.0000
vt 0.5000 0.5000
vt 0.0000 0.0000
vt 1.0000 0.0000
vt 0.5000 0.5000
vt 0.0000 0.0000
vt 1.0000 0.0000
vt 0.5000 0.5000
vt 0.0000 0.0000
vt 1.0000 0.0000
vt 0.5000 0.5000
vt 0.0000 0.0000
vt 1.0000 0.0000
vt 0.5000 0.5000
vt 0.0000 0.0000
vt 1.0000 0.0000
vt 0.5000 0.5000
vt 0.0000 0.0000
vt 1.0000 0.0000
vt 0.5000 0.5000
vt 0.0000 0.0000
vt 1.0000 0.0000
vt 0.5000 0.5000
vt 0.0000 0.0000
vt 1.0000 0.0000
vt 0.5000 0.5000
vt 0.0000 0.0000
vt 1.0000 0.0000
vt 0.5000 0.5000
vt 0.0000 0.0000
vt 1.0000 0.0000
vt 0.5000 0.5000
vt 0.0000 0.0000
vt 1.0000 0.0000
vt 0.5000 0.5000
vt 0.0000 0.0000
vt 1.0000 0.0000
vt 0.5000 0.5000
vt 0.0000 0.0000
vt 1.0000 0.0000
vt 0.5000 0.5000
vt 0.0000 0.0000
vt 1.0000 0.0000
vt 0.5000 0.5000
vt 0.0000 0.0000
vt 1.0000 0.0000
vt 0.5000 0.5000
vt 0.0000 0.0000
vt 1.0000 0.0000
vt 0.5000 0.5000
vt 0.0000 0.0000
vt 1.0000 0.0000
vt 0.5000 0.5000
vt 0.0000 0.0000
vt 1.0000 0.0000
vt 0.5000 0.5000
vt 0.0000 0.0000
vt 1.0000 0.0000
vt 0.5000 0.5000
vt 0.0000 0.0000
vt 1.0000 0.0000
vt 0.5000 0.5000
vt 0.0000 0.0000
vt 1.0000 0.0000
vt 0.5000 0.5000
vt 0.0000 0.0000
vt 1.0000 0.0000
vt 0.5000 0.5000
vt 0.0000 0.0000
vt 1.0000 0.0000
vt 0.5000 0.5000
vt 0.0000 0.0000
vt 1.0000 0.0000
vt 0.5000 0.5000
vt 0.0000 0.0000
vt 1.0000 0.0000
vt 0.5000 0.5000
vt 0.0000 0.0000
vt 1.0000 0.0000
vt 0.0000 0.0000
vt 0.0000 1.0000
vt 0.0625 1.0000
vt 0.0625 0.0000
vt 0.0625 0.0000
vt 0.0625 1.0000
vt 0.1250 1.0000
vt 0.1250 0.0000
vt 0.1250 0.0000
vt 0.1250 1.0000
vt 0.1875 1.0000
vt 0.1875 0.0000
vt 0.1875 0.0000
vt 0.1875 1.0000
vt 0.2500 1.0000
vt 0.2500 0.0000
vt 0.2500 0.0000
vt 0.2500 1.0000
vt 0.3125 1.0000
vt 0.3125 0.0000
vt 0.3125 0.0000
vt 0.3125 1.0000
vt 0.3750 1.0000
vt 0.3750 0.0000
vt 0.3750 0.0000
vt 0.3750 1.0000
vt 0.4375 1.0000
vt 0.4375 0.0000
vt 0.4375 0.0000
vt 0.4375 1.0000
vt 0.5000 1.0000
vt 0.5000 0.0000
vt 0.5000 0.0000
vt 0.5000 1.0000
vt 0.5625 1.0000
vt 0.5625 0.0000
vt 0.5625 0.0000
vt 0.5625 1.0000
vt 0.6250 1.0000
vt 0.6250 0.0000
vt 0.6250 0.0000
vt 0.6250 1.0000
vt 0.6875 1.0000
vt 0.6875 0.0000
vt 0.6875 0.0000
vt 0.6875 1.0000
vt 0.7500 1.0000
vt 0.7500 0.0000
vt 0.7500 0.0000
vt 0.7500 1.0000
vt 0.8125 1.0000
vt 0.8125 0.0000
vt 0.8125 0.0000
vt 0.8125 1.0000
vt 0.8750 1.0000
vt 0.8750 0.0000
vt 0.8750 0.0000
vt 0.8750 1.0000
vt 0.9375 1.0000
vt 0.9375 0.0000
vt 0.9375 0.0000
vt 0.9375 1.0000
vt 1.0000 1.0000
vt 1.0000 0.0000
vt 0.5000 0.5000
vt 0.0000 0.0000
vt 1.0000 0.0000
vt 0.5000 0.5000
vt 0.0000 0.0000
vt 1.0000 0.0000
vt 0.5000 0.5000
vt 0.0000 0.0000
vt 1.0000 0.0000
vt 0.5000 0.5000
vt 0.0000 0.0000
vt 1.0000 0.0000
vt 0.5000 0.5000
vt 0.0000 0.0000
vt 1.0000 0.0000
vt 0.5000 0.5000
vt 0.0000 0.0000
vt 1.0000 0.0000
vt 0.5000 0.5000
vt 0.0000 0.0000
vt 1.0000 0.0000
vt 0.5000 0.5000
vt 0.0000 0.0000
vt 1.0000 0.0000
vt 0.5000 0.5000
vt 0.0000 0.0000
vt 1.0000 0.0000
vt 0.5000 0.5000
vt 0.0000 0.0000
vt 1.0000 0.0000
vt 0.5000 0.5000
vt 0.0000 0.0000
vt 1.0000 0.0000
vt 0.5000 0.5000
vt 0.0000 0.0000
vt 1.0000 0.0000
vt 0.5000 0.5000
vt 0.0000 0.0000
vt 1.0000 0.0000
vt 0.5000 0.5000
vt 0.0000 0.0000
vt 1.0000 0.0000
vt 0.5000 0.5000
vt 0.0000 0.0000
vt 1.0000 0.0000
vt 0.5000 0.5000
vt 0.0000 0.0000
vt 1.0000 0.0000
vt 0.5000 0.5000
vt 0.0000 0.0000
vt 1.0000 0.0000
vt 0.5000 0.5000
vt 0.0000 0.0000
vt 1.0000 0.0000
vt 0.5000 0.5000
vt 0.0000 0.0000
vt 1.0000 0.0000
vt 0.5000 0.5000
vt 0.0000 0.0000
vt 1.0000 0.0000
vt 0.5000 0.5000
vt 0.0000 0.0000
vt 1.0000 0.0000
vt 0.5000 0.5000
vt 0.0000 0.0000
vt 1.0000 0.0000
vt 0.5000 0.5000
vt 0.0000 0.0000
vt 1.0000 0.0000
vt 0.5000 0.5000
vt 0.0000 0.0000
vt 1.0000 0.0000
vt 0.5000 0.5000
vt 0.0000 0.0000
vt 1.0000 0.0000
vt 0.5000 0.5000
vt 0.0000 0.0000
vt 1.0000 0.0000
vt 0.5000 0.5000
vt 0.0000 0.0000
vt 1.0000 0.0000
vt 0.5000 0.5000
vt 0.0000 0.0000
vt 1.0000 0.0000
vt 0.5000 0.5000
vt 0.0000 0.0000
vt 1.0000 0.0000
vt 0.5000 0.5000
vt 0.0000 0.0000
vt 1.0000 0.0000
vt 0.5000 0.5000
vt 0.0000 0.0000
vt 1.0000 0.0000
vt 0.5000 0.5000
vt 0.0000 0.0000
vt 1.0000 0.0000
vt 0.0000 0.0000
vt 0.0000 1.0000
vt 0.0625 1.0000
vt 0.0625 0.0000
vt 0.0625 0.0000
vt 0.0625 1.0000
vt 0.1250 1.0000
vt 0.1250 0.0000
vt 0.1250 0.0000
vt 0.1250 1.0000
vt 0.1875 1.0000
vt 0.1875 0.0000
vt 0.1875 0.0000
vt 0.1875 1.0000
vt 0.2500 1.0000
vt 0.2500 0.0000
vt 0.2500 0.0000
vt 0.2500 1.0000
vt 0.3125 1.0000
vt 0.3125 0.0000
vt 0.3125 0.0000
vt 0.3125 1.0000
vt 0.3750 1.0000
vt 0.3750 0.0000
vt 0.3750 0.0000
vt 0.3750 1.0000
vt 0.4375 1.0000
vt 0.4375 0.0000
vt 0.4375 0.0000
vt 0.4375 1.0000
vt 0.5000 1.0000
vt 0.5000 0.0000
vt 0.5000 0.0000
vt 0.5000 1.0000
vt 0.5625 1.0000
vt 0.5625 0.0000
vt 0.5625 0.0000
vt 0.5625 1.0000
vt 0.6250 1.0000
vt 0.6250 0.0000
vt 0.6250 0.0000
vt 0.6250 1.0000
vt 0.6875 1.0000
vt 0.6875 0.0000
vt 0.6875 0.0000
vt 0.6875 1.0000
vt 0.7500 1.0000
vt 0.7500 0.0000
vt 0.7500 0.0000
vt 0.7500 1.0000
vt 0.8125 1.0000
vt 0.8125 0.0000
vt 0.8125 0.0000
vt 0.8125 1.0000
vt 0.8750 1.0000
vt 0.8750 0.0000
vt 0.8750 0.0000
vt 0.8750 1.0000
vt 0.9375 1.0000
vt 0.9375 0.0000
vt 0.9375 0.0000
vt 0.9375 1.0000
vt 1.0000 1.0000
vt 1.0000 0.0000
vt 0.5000 0.5000
vt 0.0000 0.0000
vt 1.0000 0.0000
vt 0.5000 0.5000
vt 0.0000 0.0000
vt 1.0000 0.0000
vt 0.5000 0.5000
vt 0.0000 0.0000
vt 1.0000 0.0000
vt 0.5000 0.5000
vt 0.0000 0.0000
vt 1.0000 0.0000
vt 0.5000 0.5000
vt 0.0000 0.0000
vt 1.0000 0.0000
vt 0.5000 0.5000
vt 0.0000 0.0000
vt 1.0000 0.0000
vt 0.5000 0.5000
vt 0.0000 0.0000
vt 1.0000 0.0000
vt 0.5000 0.5000
vt 0.0000 0.0000
vt 1.0000 0.0000
vt 0.5000 0.5000
vt 0.0000 0.0000
vt 1.0000 0.0000
vt 0.5000 0.5000
vt 0.0000 0.0000
vt 1.0000 0.0000
vt 0.5000 0.5000
vt 0.0000 0.0000
vt 1.0000 0.0000
vt 0.5000 0.5000
vt 0.0000 0.0000
vt 1.0000 0.0000
vt 0.5000 0.5000
vt 0.0000 0.0000
vt 1.0000 0.0000
vt 0.5000 0.5000
vt 0.0000 0.0000
vt 1.0000 0.0000
vt 0.5000 0.5000
vt 0.0000 0.0000
vt 1.0000 0.0000
vt 0.5000 0.5000
vt 0.0000 0.0000
vt 1.0000 0.0000
vt 0.5000 0.5000
vt 0.0000 0.0000
vt 1.0000 0.0000
vt 0.5000 0.5000
vt 0.0000 0.0000
vt 1.0000 0.0000
vt 0.5000 0.5000
vt 0.0000 0.0000
vt 1.0000 0.0000
vt 0.5000 0.5000
vt 0.0000 0.0000
vt 1.0000 0.0000
vt 0.5000 0.5000
vt 0.0000 0.0000
vt 1.0000 0.0000
vt 0.5000 0.5000
vt 0.0000 0.0000
vt 1.0000 0.0000
vt 0.5000 0.5000
vt 0.0000 0.0000
vt 1.0000 0.0000
vt 0.5000 0.5000
vt 0.0000 0.0000
vt 1.0000 0.0000
vt 0.5000 0.5000
vt 0.0000 0.0000
vt 1.0000 0.0000
vt 0.5000 0.5000
vt 0.0000 0.0000
vt 1.0000 0.0000
vt 0.5000 0.5000
vt 0.0000 0.0000
vt 1.0000 0.0000
vt 0.5000 0.5000
vt 0.0000 0.0000
vt 1.0000 0.0000
vt 0.5000 0.5000
vt 0.0000 0.0000
vt 1.0000 0.0000
vt 0.5000 0.5000
vt 0.0000 0.0000
vt 1.0000 0.0000
vt 0.5000 0.5000
vt 0.0000 0.0000
vt 1.0000 0.0000
vt 0.5000 0.5000
vt 0.0000 0.0000
vt 1.0000 0.0000
vt 0.0000 0.0000
vt 1.0000 0.0000
vt 1.0000 1.0000
vt 0.0000 1.0000
vt 0.0000 0.0000
vt 1.0000 0.0000
vt 1.0000 1.0000
vt 0.0000 1.0000
vt 0.0000 0.0000
vt 1.0000 0.0000
vt 1.0000 1.0000
vt 0.0000 1.0000
vt 0.0000 0.0000
vt 1.0000 0.0000
vt 1.0000 1.0000
vt 0.0000 1.0000
vt 0.0000 0.0000
vt 1.0000 0.0000
vt 1.0000 1.0000
vt 0.0000 1.0000
vt 0.0000 0.0000
vt 1.0000 0.0000
vt 1.0000 1.0000
vt 0.0000 1.0000
vt 0.0000 0.0000
vt 1.0000 0.0000
vt 1.0000 1.0000
vt 0.0000 1.0000
vt 0.0000 0.0000
vt 1.0000 0.0000
vt 1.0000 1.0000
vt 0.0000 1.0000
vt 0.0000 0.0000
vt 1.0000 0.0000
vt 1.0000 1.0000
vt 0.0000 1.0000
vt 0.0000 0.0000
vt 1.0000 0.0000
vt 1.0000 1.0000
vt 0.0000 1.0000
vt 0.0000 0.0000
vt 1.0000 0.0000
vt 1.0000 1.0000
vt 0.0000 1.0000
vt 0.0000 0.0000
vt 1.0000 0.0000
vt 1.0000 1.0000
vt 0.0000 1.0000
vt 0.0000 0.0000
vt 1.0000 0.0000
vt 1.0000 1.0000
vt 0.0000 1.0000
vt 0.0000 0.0000
vt 1.0000 0.0000
vt 1.0000 1.0000
vt 0.0000 1.0000
vt 0.0000 0.0000
vt 1.0000 0.0000
vt 1.0000 1.0000
vt 0.0000 1.0000
vt 0.0000 0.0000
vt 1.0000 0.0000
vt 1.0000 1.0000
vt 0.0000 1.0000
vt 0.0000 0.0000
vt 1.0000 0.0000
vt 1.0000 1.0000
vt 0.0000 1.0000
vt 0.0000 0.0000
vt 1.0000 0.0000
vt 1.0000 1.0000
vt 0.0000 1.0000
vn 0.9808 0.0000 0.1951
vn 0.8315 0.0000 0.5556
vn 0.5556 0.0000 0.8315
vn 0.1951 0.0000 0.9808
vn -0.1951 0.0000 0.9808
vn -0.5556 0.0000 0.8315
vn -0.8315 0.0000 0.5556
vn -0.9808 0.0000 0.1951
vn -0.9808 0.0000 -0.1951
vn -0.8315 0.0000 -0.5556
vn -0.5556 0.0000 -0.8315
vn -0.1951 0.0000 -0.9808
vn 0.1951 0.0000 -0.9808
vn 0.5556 0.0000 -0.8315
vn 0.8315 0.0000 -0.5556
vn 0.9808 0.0000 -0.1951
vn 0.0000 -1.0000 0.0000
vn 0.0000 -1.0000 0.0000
vn 0.0000 -1.0000 0.0000
vn 0.0000 -1.0000 0.0000
vn 0.0000 -1.0000 0.0000
vn 0.0000 -1.0000 0.0000
vn 0.0000 -1.0000 0.0000
vn 0.0000 -1.0000 0.0000
vn 0.0000 -1.0000 0.0000
vn 0.0000 -1.0000 0.0000
vn 0.0000 -1.0000 0.0000
vn 0.0000 -1.0000 0.0000
vn 0.0000 -1.0000 0.0000
vn 0.0000 -1.0000 0.0000
vn 0.0000 -1.0000 0.0000
vn 0.0000 -1.0000 0.0000
vn 0.0000 1.0000 0.0000
vn 0.0000 1.0000 0.0000
vn 0.0000 1.0000 0.0000
vn 0.0000 1.0000 0.0000
vn 0.0000 1.0000 0.0000
vn 0.0000 1.0000 0.0000
vn 0.0000 1.0000 0.0000
vn 0.0000 1.0000 0.0000
vn 0.0000 1.0000 0.0000
vn 0.0000 1.0000 0.0000
vn 0.0000 1.0000 0.0000
vn 0.0000 1.0000 0.0000
vn 0.0000 1.0000 0.0000
vn 0.0000 1.0000 0.0000
vn 0.0000 1.0000 0.0000
vn 0.0000 1.0000 0.0000
vn 0.9808 0.0000 0.1951
vn 0.8315 0.0000 0.5556
vn 0.5556 0.0000 0.8315
vn 0.1951 0.0000 0.9808
vn -0.1951 0.0000 0.9808
vn -0.5556 0.0000 0.8315
vn -0.8315 0.0000 0.5556
vn -0.9808 0.0000 0.1951
vn -0.9808 0.0000 -0.1951
vn -0.8315 0.0000 -0.5556
vn -0.5556 0.0000 -0.8315
vn -0.1951 0.0000 -0.9808
vn 0.1951 0.0000 -0.9808
vn 0.5556 0.0000 -0.8315
vn 0.8315 0.0000 -0.5556
vn 0.9808 0.0000 -0.1951
vn 0.0000 -1.0000 0.0000
vn 0.0000 -1.0000 0.0000
vn 0.0000 -1.0000 0.0000
vn 0.0000 -1.0000 0.0000
vn 0.0000 -1.0000 0.0000
vn 0.0000 -1.0000 0.0000
vn 0.0000 -1.0000 0.0000
vn 0.0000 -1.0000 0.0000
vn 0.0000 -1.0000 0.0000
vn 0.0000 -1.0000 0.0000
vn 0.0000 -1.0000 0.0000
vn 0.0000 -1.0000 0.0000
vn 0.0000 -1.0000 0.0000
vn 0.0000 -1.0000 0.0000
vn 0.0000 -1.0000 0.0000
vn 0.0000 -1.0000 0.0000
vn 0.0000 1.0000 0.0000
vn 0.0000 1.0000 0.0000
vn 0.0000 1.0000 0.0000
vn 0.0000 1.0000 0.0000
vn 0.0000 1.0000 0.0000
vn 0.0000 1.0000 0.0000
vn 0.0000 1.0000 0.0000
vn 0.0000 1.0000 0.0000
vn 0.0000 1.0000 0.0000
vn 0.0000 1.0000 0.0000
vn 0.0000 1.0000 0.0000
vn 0.0000 1.0000 0.0000
vn 0.0000 1.0000 0.0000
vn 0.0000 1.0000 0.0000
vn 0.0000 1.0000 0.0000
vn 0.0000 1.0000 0.0000
vn 0.9808 0.0000 0.1951
vn 0.8315 0.0000 0.5556
vn 0.5556 0.0000 0.8315
vn 0.1951 0.0000 0.9808
vn -0.1951 0.0000 0.9808
vn -0.5556 0.0000 0.8315
vn -0.8315 0.0000 0.5556
vn -0.9808 0.0000 0.1951
vn -0.9808 0.0000 -0.1951
vn -0.8315 0.0000 -0.5556
vn -0.5556 0.0000 -0.8315
vn -0.1951 0.0000 -0.9808
vn 0.1951 0.0000 -0.9808
vn 0.5556 0.0000 -0.8315
vn 0.8315 0.0000 -0.5556
vn 0.9808 0.0000 -0.1951
vn 0.0000 -1.0000 0.0000
vn 0.0000 -1.0000 0.0000
vn 0.0000 -1.0000 0.0000
vn 0.0000 -1.0000 0.0000
vn 0.0000 -1.0000 0.0000
vn 0.0000 -1.0000 0.0000
vn 0.0000 -1.0000 0.0000
vn 0.0000 -1.0000 0.0000
vn 0.0000 -1.0000 0.0000
vn 0.0000 -1.0000 0.0000
vn 0.0000 -1.0000 0.0000
vn 0.0000 -1.0000 0.0000
vn 0.0000 -1.0000 0.0000
vn 0.0000 -1.0000 0.0000
vn 0.0000 -1.0000 0.0000
vn 0.0000 -1.0000 0.0000
vn 0.0000 1.0000 0.0000
vn 0.0000 1.0000 0.0000
vn 0.0000 1.0000 0.0000
vn 0.0000 1.0000 0.0000
vn 0.0000 1.0000 0.0000
vn 0.0000 1.0000 0.0000
vn 0.0000 1.0000 0.0000
vn 0.0000 1.0000 0.0000
vn 0.0000 1.0000 0.0000
vn 0.0000 1.0000 0.0000
vn 0.0000 1.0000 0.0000
vn 0.0000 1.0000 0.0000
vn 0.0000 1.0000 0.0000
vn 0.0000 1.0000 0.0000
vn 0.0000 1.0000 0.0000
vn 0.0000 1.0000 0.0000
vn 0.9808 0.0000 0.1951
vn 0.8315 0.0000 0.5556
vn 0.5556 0.0000 0.8315
vn 0.1951 0.0000 0.9808
vn -0.1951 0.0000 0.9808
vn -0.5556 0.0000 0.8315
vn -0.8315 0.0000 0.5556
vn -0.9808 0.0000 0.1951
vn -0.9808 0.0000 -0.1951
vn -0.8315 0.0000 -0.5556
vn -0.5556 0.0000 -0.8315
vn -0.1951 0.0000 -0.9808
vn 0.1951 0.0000 -0.9808
vn 0.5556 0.0000 -0.8315
vn 0.8315 0.0000 -0.5556
vn 0.9808 0.0000 -0.1951
vn 0.0000 -1.0000 0.0000
vn 0.0000 -1.0000 0.0000
vn 0.0000 -1.0000 0.0000
vn 0.0000 -1.0000 0.0000
vn 0.0000 -1.0000 0.0000
vn 0.0000 -1.0000 0.0000
vn 0.0000 -1.0000 0.0000
vn 0.0000 -1.0000 0.0000
vn 0.0000 -1.0000 0.0000
vn 0.0000 -1.0000 0.0000
vn 0.0000 -1.0000 0.0000
vn 0.0000 -1.0000 0.0000
vn 0.0000 -1.0000 0.0000
vn 0.0000 -1.0000 0.0000
vn 0.0000 -1.0000 0.0000
vn 0.0000 -1.0000 0.0000
vn 0.0000 1.0000 0.0000
vn 0.0000 1.0000 0.0000
vn 0.0000 1.0000 0.0000
vn 0.0000 1.0000 0.0000
vn 0.0000 1.0000 0.0000
vn 0.0000 1.0000 0.0000
vn 0.0000 1.0000 0.0000
vn 0.0000 1.0000 0.0000
vn 0.0000 1.0000 0.0000
vn 0.0000 1.0000 0.0000
vn 0.0000 1.0000 0.0000
vn 0.0000 1.0000 0.0000
vn 0.0000 1.0000 0.0000
vn 0.0000 1.0000 0.0000
vn 0.0000 1.0000 0.0000
vn 0.0000 1.0000 0.0000
vn 0.0000 0.0000 1.0000
vn 0.0000 0.0000 -1.0000
vn -1.0000 0.0000 0.0000
vn 1.0000 0.0000 0.0000
vn 0.0000 1.0000 0.0000
vn 0.0000 -1.0000 0.0000
vn 0.0000 0.0000 1.0000
vn 0.0000 0.0000 -1.0000
vn -1.0000 0.0000 0.0000
vn 1.0000 0.0000 0.0000
vn 0.0000 1.0000 0.0000
vn 0.0000 -1.0000 0.0000
vn 0.0000 0.0000 1.0000
vn 0.0000 0.0000 -1.0000
vn -1.0000 0.0000 0.0000
vn 1.0000 0.0000 0.0000
vn 0.0000 1.0000 0.0000
vn 0.0000 -1.0000 0.0000
g MAT_FilterChemical
usemtl MAT_FilterChemical
f 1/1/1 2/2/1 3/3/1 4/4/1
f 5/5/2 6/6/2 7/7/2 8/8/2
f 9/9/3 10/10/3 11/11/3 12/12/3
f 13/13/4 14/14/4 15/15/4 16/16/4
f 17/17/5 18/18/5 19/19/5 20/20/5
f 21/21/6 22/22/6 23/23/6 24/24/6
f 25/25/7 26/26/7 27/27/7 28/28/7
f 29/29/8 30/30/8 31/31/8 32/32/8
f 33/33/9 34/34/9 35/35/9 36/36/9
f 37/37/10 38/38/10 39/39/10 40/40/10
f 41/41/11 42/42/11 43/43/11 44/44/11
f 45/45/12 46/46/12 47/47/12 48/48/12
f 49/49/13 50/50/13 51/51/13 52/52/13
f 53/53/14 54/54/14 55/55/14 56/56/14
f 57/57/15 58/58/15 59/59/15 60/60/15
f 61/61/16 62/62/16 63/63/16 64/64/16
f 65/65/17 66/66/17 67/67/17
f 68/68/18 69/69/18 70/70/18
f 71/71/19 72/72/19 73/73/19
f 74/74/20 75/75/20 76/76/20
f 77/77/21 78/78/21 79/79/21
f 80/80/22 81/81/22 82/82/22
f 83/83/23 84/84/23 85/85/23
f 86/86/24 87/87/24 88/88/24
f 89/89/25 90/90/25 91/91/25
f 92/92/26 93/93/26 94/94/26
f 95/95/27 96/96/27 97/97/27
f 98/98/28 99/99/28 100/100/28
f 101/101/29 102/102/29 103/103/29
f 104/104/30 105/105/30 106/106/30
f 107/107/31 108/108/31 109/109/31
f 110/110/32 111/111/32 112/112/32
f 113/113/33 114/114/33 115/115/33
f 116/116/34 117/117/34 118/118/34
f 119/119/35 120/120/35 121/121/35
f 122/122/36 123/123/36 124/124/36
f 125/125/37 126/126/37 127/127/37
f 128/128/38 129/129/38 130/130/38
f 131/131/39 132/132/39 133/133/39
f 134/134/40 135/135/40 136/136/40
f 137/137/41 138/138/41 139/139/41
f 140/140/42 141/141/42 142/142/42
f 143/143/43 144/144/43 145/145/43
f 146/146/44 147/147/44 148/148/44
f 149/149/45 150/150/45 151/151/45
f 152/152/46 153/153/46 154/154/46
f 155/155/47 156/156/47 157/157/47
f 158/158/48 159/159/48 160/160/48
g MAT_MetalPanels
usemtl MAT_MetalPanels
f 161/161/49 162/162/49 163/163/49 164/164/49
f 165/165/50 166/166/50 167/167/50 168/168/50
f 169/169/51 170/170/51 171/171/51 172/172/51
f 173/173/52 174/174/52 175/175/52 176/176/52
f 177/177/53 178/178/53 179/179/53 180/180/53
f 181/181/54 182/182/54 183/183/54 184/184/54
f 185/185/55 186/186/55 187/187/55 188/188/55
f 189/189/56 190/190/56 191/191/56 192/192/56
f 193/193/57 194/194/57 195/195/57 196/196/57
f 197/197/58 198/198/58 199/199/58 200/200/58
f 201/201/59 202/202/59 203/203/59 204/204/59
f 205/205/60 206/206/60 207/207/60 208/208/60
f 209/209/61 210/210/61 211/211/61 212/212/61
f 213/213/62 214/214/62 215/215/62 216/216/62
f 217/217/63 218/218/63 219/219/63 220/220/63
f 221/221/64 222/222/64 223/223/64 224/224/64
f 225/225/65 226/226/65 227/227/65
f 228/228/66 229/229/66 230/230/66
f 231/231/67 232/232/67 233/233/67
f 234/234/68 235/235/68 236/236/68
f 237/237/69 238/238/69 239/239/69
f 240/240/70 241/241/70 242/242/70
f 243/243/71 244/244/71 245/245/71
f 246/246/72 247/247/72 248/248/72
f 249/249/73 250/250/73 251/251/73
f 252/252/74 253/253/74 254/254/74
f 255/255/75 256/256/75 257/257/75
f 258/258/76 259/259/76 260/260/76
f 261/261/77 262/262/77 263/263/77
f 264/264/78 265/265/78 266/266/78
f 267/267/79 268/268/79 269/269/79
f 270/270/80 271/271/80 272/272/80
f 273/273/81 274/274/81 275/275/81
f 276/276/82 277/277/82 278/278/82
f 279/279/83 280/280/83 281/281/83
f 282/282/84 283/283/84 284/284/84
f 285/285/85 286/286/85 287/287/85
f 288/288/86 289/289/86 290/290/86
f 291/291/87 292/292/87 293/293/87
f 294/294/88 295/295/88 296/296/88
f 297/297/89 298/298/89 299/299/89
f 300/300/90 301/301/90 302/302/90
f 303/303/91 304/304/91 305/305/91
f 306/306/92 307/307/92 308/308/92
f 309/309/93 310/310/93 311/311/93
f 312/312/94 313/313/94 314/314/94
f 315/315/95 316/316/95 317/317/95
f 318/318/96 319/319/96 320/320/96
f 321/321/97 322/322/97 323/323/97 324/324/97
f 325/325/98 326/326/98 327/327/98 328/328/98
f 329/329/99 330/330/99 331/331/99 332/332/99
f 333/333/100 334/334/100 335/335/100 336/336/100
f 337/337/101 338/338/101 339/339/101 340/340/101
f 341/341/102 342/342/102 343/343/102 344/344/102
f 345/345/103 346/346/103 347/347/103 348/348/103
f 349/349/104 350/350/104 351/351/104 352/352/104
f 353/353/105 354/354/105 355/355/105 356/356/105
f 357/357/106 358/358/106 359/359/106 360/360/106
f 361/361/107 362/362/107 363/363/107 364/364/107
f 365/365/108 366/366/108 367/367/108 368/368/108
f 369/369/109 370/370/109 371/371/109 372/372/109
f 373/373/110 374/374/110 375/375/110 376/376/110
f 377/377/111 378/378/111 379/379/111 380/380/111
f 381/381/112 382/382/112 383/383/112 384/384/112
f 385/385/113 386/386/113 387/387/113
f 388/388/114 389/389/114 390/390/114
f 391/391/115 392/392/115 393/393/115
f 394/394/116 395/395/116 396/396/116
f 397/397/117 398/398/117 399/399/117
f 400/400/118 401/401/118 402/402/118
f 403/403/119 404/404/119 405/405/119
f 406/406/120 407/407/120 408/408/120
f 409/409/121 410/410/121 411/411/121
f 412/412/122 413/413/122 414/414/122
f 415/415/123 416/416/123 417/417/123
f 418/418/124 419/419/124 420/420/124
f 421/421/125 422/422/125 423/423/125
f 424/424/126 425/425/126 426/426/126
f 427/427/127 428/428/127 429/429/127
f 430/430/128 431/431/128 432/432/128
f 433/433/129 434/434/129 435/435/129
f 436/436/130 437/437/130 438/438/130
f 439/439/131 440/440/131 441/441/131
f 442/442/132 443/443/132 444/444/132
f 445/445/133 446/446/133 447/447/133
f 448/448/134 449/449/134 450/450/134
f 451/451/135 452/452/135 453/453/135
f 454/454/136 455/455/136 456/456/136
f 457/457/137 458/458/137 459/459/137
f 460/460/138 461/461/138 462/462/138
f 463/463/139 464/464/139 465/465/139
f 466/466/140 467/467/140 468/468/140
f 469/469/141 470/470/141 471/471/141
f 472/472/142 473/473/142 474/474/142
f 475/475/143 476/476/143 477/477/143
f 478/478/144 479/479/144 480/480/144
f 641/641/193 642/642/193 643/643/193 644/644/193
f 645/645/194 646/646/194 647/647/194 648/648/194
f 649/649/195 650/650/195 651/651/195 652/652/195
f 653/653/196 654/654/196 655/655/196 656/656/196
f 657/657/197 658/658/197 659/659/197 660/660/197
f 661/661/198 662/662/198 663/663/198 664/664/198
f 665/665/199 666/666/199 667/667/199 668/668/199
f 669/669/200 670/670/200 671/671/200 672/672/200
f 673/673/201 674/674/201 675/675/201 676/676/201
f 677/677/202 678/678/202 679/679/202 680/680/202
f 681/681/203 682/682/203 683/683/203 684/684/203
f 685/685/204 686/686/204 687/687/204 688/688/204
f 689/689/205 690/690/205 691/691/205 692/692/205
f 693/693/206 694/694/206 695/695/206 696/696/206
f 697/697/207 698/698/207 699/699/207 700/700/207
f 701/701/208 702/702/208 703/703/208 704/704/208
f 705/705/209 706/706/209 707/707/209 708/708/209
f 709/709/210 710/710/210 711/711/210 712/712/210
g MAT_CanisterLabel
usemtl MAT_CanisterLabel
f 481/481/145 482/482/145 483/483/145 484/484/145
f 485/485/146 486/486/146 487/487/146 488/488/146
f 489/489/147 490/490/147 491/491/147 492/492/147
f 493/493/148 494/494/148 495/495/148 496/496/148
f 497/497/149 498/498/149 499/499/149 500/500/149
f 501/501/150 502/502/150 503/503/150 504/504/150
f 505/505/151 506/506/151 507/507/151 508/508/151
f 509/509/152 510/510/152 511/511/152 512/512/152
f 513/513/153 514/514/153 515/515/153 516/516/153
f 517/517/154 518/518/154 519/519/154 520/520/154
f 521/521/155 522/522/155 523/523/155 524/524/155
f 525/525/156 526/526/156 527/527/156 528/528/156
f 529/529/157 530/530/157 531/531/157 532/532/157
f 533/533/158 534/534/158 535/535/158 536/536/158
f 537/537/159 538/538/159 539/539/159 540/540/159
f 541/541/160 542/542/160 543/543/160 544/544/160
f 545/545/161 546/546/161 547/547/161
f 548/548/162 549/549/162 550/550/162
f 551/551/163 552/552/163 553/553/163
f 554/554/164 555/555/164 556/556/164
f 557/557/165 558/558/165 559/559/165
f 560/560/166 561/561/166 562/562/166
f 563/563/167 564/564/167 565/565/167
f 566/566/168 567/567/168 568/568/168
f 569/569/169 570/570/169 571/571/169
f 572/572/170 573/573/170 574/574/170
f 575/575/171 576/576/171 577/577/171
f 578/578/172 579/579/172 580/580/172
f 581/581/173 582/582/173 583/583/173
f 584/584/174 585/585/174 586/586/174
f 587/587/175 588/588/175 589/589/175
f 590/590/176 591/591/176 592/592/176
f 593/593/177 594/594/177 595/595/177
f 596/596/178 597/597/178 598/598/178
f 599/599/179 600/600/179 601/601/179
f 602/602/180 603/603/180 604/604/180
f 605/605/181 606/606/181 607/607/181
f 608/608/182 609/609/182 610/610/182
f 611/611/183 612/612/183 613/613/183
f 614/614/184 615/615/184 616/616/184
f 617/617/185 618/618/185 619/619/185
f 620/620/186 621/621/186 622/622/186
f 623/623/187 624/624/187 625/625/187
f 626/626/188 627/627/188 628/628/188
f 629/629/189 630/630/189 631/631/189
f 632/632/190 633/633/190 634/634/190
f 635/635/191 636/636/191 637/637/191
f 638/638/192 639/639/192 640/640/192
