{
  "accessors": [
    {
      "bufferView": 2,
      "componentType": 5126,
      "count": 10934,
      "max": [
        2.1864991188049316,
        7.205550193786621,
        15.100397109985352
      ],
      "min": [
        -2.1309421062469482,
        -7.166595935821533,
        0.06477600336074829
      ],
      "type": "VEC3"
    },
    {
      "bufferView": 2,
      "byteOffset": 131208,
      "componentType": 5126,
      "count": 10934,
      "max": [
        0.9999562501907349,
        0.9998774528503418,
        0.9999451041221619
      ],
      "min": [
        -0.9999984502792358,
        -0.999926745891571,
        -0.9999451041221619
      ],
      "type": "VEC3"
    },
    {
      "bufferView": 3,
      "componentType": 5126,
      "count": 10934,
      "max": [
        0.9999984502792358,
        0.9999992847442627,
        0.9999999403953552,
        1.0
      ],
      "min": [
        -0.9999995231628418,
        -0.9999994039535522,
        -1.0,
        -1.0
      ],
      "type": "VEC4"
    },
    {
      "bufferView": 1,
      "componentType": 5126,
      "count": 10934,
      "max": [
        0.9950000047683716,
        0.9950000047683716
      ],
      "min": [
        0.004999999888241291,
        0.022803999483585358
      ],
      "type": "VEC2"
    },
    {
      "bufferView": 0,
      "componentType": 5125,
      "count": 37926,
      "type": "SCALAR"
    }
  ],
  "asset": {
    "extras": {
      "author": "Makovetkyi Volodymyr (https://sketchfab.com/pbr-scans)",
      "license": "CC-BY-4.0 (http://creativecommons.org/licenses/by/4.0/)",
      "source": "https://sketchfab.com/3d-models/pb178-wix-air-filter-low-529082da8d0a40db9279455602baaf14",
      "title": "PB178 Wix Air Filter Low"
    },
    "generator": "Sketchfab-12.67.0",
    "version": "2.0"
  },
  "bufferViews": [
    {
      "buffer": 0,
      "byteLength": 151704,
      "name": "floatBufferViews",
      "target": 34963
    },
    {
      "buffer": 0,
      "byteLength": 87472,
      "byteOffset": 151704,
      "byteStride": 8,
      "name": "floatBufferViews",
      "target": 34962
    },
    {
      "buffer": 0,
      "byteLength": 262416,
      "byteOffset": 239176,
      "byteStride": 12,
      "name": "floatBufferViews",
      "target": 34962
    },
    {
      "buffer": 0,
      "byteLength": 174944,
      "byteOffset": 501592,
      "byteStride": 16,
      "name": "floatBufferViews",
      "target": 34962
    }
  ],
  "buffers": [
    {
      "byteLength": 676536,
      "uri": "scene.bin"
    }
  ],
  "images": [
    {
      "uri": "textures/1002_baseColor.jpeg"
    },
    {
      "uri": "textures/1002_metallicRoughness.png"
    },
    {
      "uri": "textures/1002_normal.png"
    }
  ],
  "materials": [
    {
      "doubleSided": true,
      "name": "1002",
      "normalTexture": {
        "index": 2
      },
      "pbrMetallicRoughness": {
        "baseColorTexture": {
          "index": 0
        },
        "metallicRoughnessTexture": {
          "index": 1
        }
      }
    }
  ],
  "meshes": [
    {
      "name": "Object_0",
      "primitives": [
        {
          "attributes": {
            "NORMAL": 1,
            "POSITION": 0,
            "TANGENT": 2,
            "TEXCOORD_0": 3
          },
          "indices": 4,
          "material": 0,
          "mode": 4
        }
      ]
    }
  ],
  "nodes": [
    {
      "children": [
        1
      ],
      "matrix": [
        -4.440892098500626e-16,
        1.0,
        6.123234262925839e-17,
        0.0,
        2.832769343193999e-16,
        -6.123234262925839e-17,
        1.0,
        0.0,
        1.0,
        4.440892098500627e-16,
        -2.832769343193998e-16,
        0.0,
        -7.554808139801025,
        7.554808139801025,
        -0.038930416107176055,
        1.0
      ],
      "name": "Sketchfab_model"
    },
    {
      "children": [
        2
      ],
      "name": "PB178_wix_air_filter_Low.obj.cleaner.materialmerger.gles"
    },
    {
      "mesh": 0,
      "name": "Object_2"
    }
  ],
  "samplers": [
    {
      "magFilter": 9729,
      "minFilter": 9987,
      "wrapS": 10497,
      "wrapT": 10497
    }
  ],
  "scene": 0,
  "scenes": [
    {
      "name": "Sketchfab_Scene",
      "nodes": [
        0
      ]
    }
  ],
  "textures": [
    {
      "sampler": 0,
      "source": 0
    },
    {
      "sampler": 0,
      "source": 1
    },
    {
      "sampler": 0,
      "source": 2
    }
  ]
}
